<?xml version="1.0" encoding="UTF-8" standalone="no"?>
<svg
   xmlns:dc="http://purl.org/dc/elements/1.1/"
   xmlns:cc="http://creativecommons.org/ns#"
   xmlns:rdf="http://www.w3.org/1999/02/22-rdf-syntax-ns#"
   xmlns:svg="http://www.w3.org/2000/svg"
   xmlns="http://www.w3.org/2000/svg"
   xmlns:sodipodi="http://sodipodi.sourceforge.net/DTD/sodipodi-0.dtd"
   xmlns:inkscape="http://www.inkscape.org/namespaces/inkscape"
   sodipodi:docname="Hilbert.svg"
   inkscape:version="1.0 (4035a4f, 2020-05-01)"
   id="svg8"
   version="1.1"
   viewBox="0 0 15.24 128.5"
   height="128.5mm"
   width="15.24mm">
  <defs
     id="defs2" />
  <sodipodi:namedview
     inkscape:window-maximized="0"
     inkscape:window-y="139"
     inkscape:window-x="2092"
     inkscape:window-height="1137"
     inkscape:window-width="2214"
     inkscape:showpageshadow="false"
     showgrid="false"
     inkscape:document-rotation="0"
     inkscape:current-layer="layer1"
     inkscape:document-units="mm"
     inkscape:cy="280"
     inkscape:cx="11.78571"
     inkscape:zoom="1.4"
     inkscape:pageshadow="2"
     inkscape:pageopacity="0"
     borderopacity="1"
     bordercolor="#000000"
     pagecolor="#d7d7d7"
     id="base" />
  <metadata
     id="metadata5">
    <rdf:RDF>
      <cc:Work
         rdf:about="">
        <dc:format>image/svg+xml</dc:format>
        <dc:type
           rdf:resource="http://purl.org/dc/dcmitype/StillImage" />
        <dc:title></dc:title>
      </cc:Work>
    </rdf:RDF>
  </metadata>
  <g
     inkscape:groupmode="layer"
     id="layer3"
     inkscape:label="bg"
     style="display:inline">
    <path
       d="m 0,0.25 h 15.360952 v 128 H 0 Z"
       style="fill:#ffffff;stroke-width:0.187829"
       id="rect45" />
  </g>
  <g
     id="layer1"
     inkscape:groupmode="layer"
     inkscape:label="details"
     style="display:inline">
    <g
       style="font-size:3.52777px;line-height:1.25;font-family:'Arial Black';-inkscape-font-specification:'Arial Black, Normal';stroke-width:0.264583"
       id="text358"
       aria-label="Hilbert
">
      <path
         id="path487"
         style="stroke-width:0.264583"
         d="M 1.2285008,2.9554057 H 2.0088132 V 3.8390708 H 2.8614725 V 2.9554057 H 3.64523 V 5.4806552 H 2.8614725 V 4.4591866 H 2.0088132 V 5.4806552 H 1.2285008 Z" />
      <path
         id="path489"
         style="stroke-width:0.264583"
         d="M 4.1464903,2.9554057 H 4.8475657 V 3.4325504 H 4.1464903 Z m 0,0.6959078 H 4.8475657 V 5.4806552 H 4.1464903 Z" />
      <path
         id="path491"
         style="stroke-width:0.264583"
         d="M 5.3229878,2.9554057 H 6.0257857 V 5.4806552 H 5.3229878 Z" />
      <path
         id="path493"
         style="stroke-width:0.264583"
         d="m 6.480537,2.9554057 h 0.7079656 v 0.8750524 q 0.1050752,-0.1102428 0.2377111,-0.1653642 0.1343584,-0.055121 0.2962775,-0.055121 0.3341736,0 0.5529366,0.2411562 0.2187631,0.2394336 0.2187631,0.6890176 0,0.2997226 -0.099907,0.528821 -0.099908,0.2273758 -0.2773296,0.3410637 -0.1756995,0.1119653 -0.3910175,0.1119653 -0.1843122,0 -0.3376186,-0.079237 Q 7.2729073,5.3807476 7.1368263,5.2102158 V 5.4806552 H 6.480537 Z m 0.702798,1.605411 q 0,0.2359885 0.08785,0.3427863 0.089572,0.1050751 0.2256533,0.1050751 0.1257457,0 0.2101503,-0.1033526 0.086127,-0.1050752 0.086127,-0.351399 0,-0.2170405 -0.084405,-0.3186706 -0.082682,-0.1016301 -0.2015377,-0.1016301 -0.1429711,0 -0.2342659,0.1067977 -0.089572,0.1050752 -0.089572,0.3203932 z" />
      <path
         id="path495"
         style="stroke-width:0.264583"
         d="M 10.864412,4.7399613 H 9.4588159 q 0.018948,0.1688093 0.091295,0.2514914 0.1016301,0.1188555 0.2652717,0.1188555 0.1033527,0 0.1963705,-0.051676 0.05684,-0.032728 0.1223,-0.1154104 l 0.69074,0.063734 q -0.158474,0.275607 -0.382404,0.3961851 -0.223931,0.1188555 -0.6425094,0.1188555 -0.3634567,0 -0.5718845,-0.10163 Q 9.0195672,5.3170135 8.8817637,5.0948053 8.7456827,4.8708746 8.7456827,4.5694294 q 0,-0.4289134 0.2738845,-0.6941852 0.2756071,-0.2652718 0.7596419,-0.2652718 0.3927399,0 0.6201159,0.1188556 0.227376,0.1188555 0.346231,0.3445088 0.118856,0.2256532 0.118856,0.5873875 z M 10.151279,4.4040652 q -0.02067,-0.2032602 -0.110243,-0.2911099 -0.08785,-0.08785 -0.2325436,-0.08785 -0.1670868,0 -0.2669943,0.1326359 -0.063734,0.082682 -0.08096,0.2463238 z" />
      <path
         id="path497"
         style="stroke-width:0.264583"
         d="m 11.196862,3.6513135 h 0.65629 v 0.2997227 q 0.09474,-0.1946475 0.194647,-0.2669944 0.10163,-0.074069 0.249769,-0.074069 0.155029,0 0.339341,0.096462 l -0.217041,0.4995378 q -0.124023,-0.051676 -0.19637,-0.051676 -0.137803,0 -0.213595,0.1136879 -0.10852,0.1601966 -0.10852,0.5994453 v 0.6132257 h -0.704521 z" />
      <path
         id="path499"
         style="stroke-width:0.264583"
         d="m 13.599811,2.9554057 v 0.6959078 h 0.38585 v 0.5115956 h -0.38585 v 0.649399 q 0,0.117133 0.02239,0.155029 0.03445,0.058567 0.120578,0.058567 0.07752,0 0.217041,-0.044786 l 0.05168,0.4840349 q -0.260104,0.056844 -0.485757,0.056844 -0.261827,0 -0.38585,-0.067179 -0.124023,-0.067179 -0.184313,-0.2032602 -0.05857,-0.1378035 -0.05857,-0.4444163 V 4.1629091 H 12.638631 V 3.6513135 h 0.258382 V 3.3154174 Z" />
    </g>
    <g
       style="font-size:3.52777px;line-height:1.25;font-family:'Arial Black';-inkscape-font-specification:'Arial Black, Normal';stroke-width:0.264583"
       id="text457"
       aria-label="Meromorph">
      <path
         id="path502"
         style="font-style:normal;font-variant:normal;font-weight:normal;font-stretch:normal;font-size:2.82222px;font-family:Courier;-inkscape-font-specification:'Courier, Normal';font-variant-ligatures:normal;font-variant-caps:normal;font-variant-numeric:normal;font-variant-east-asian:normal;stroke-width:0.264583"
         d="m 0.90137973,126.51368 0.29627797,-0.86265 q 0.019293,-0.0496 0.052365,-0.0717 0.034451,-0.022 0.097841,-0.022 h 0.2259981 q 0.044097,0 0.066146,0.0248 0.023427,0.0234 0.023427,0.0689 0,0.0524 -0.028939,0.073 -0.027561,0.0193 -0.1033528,0.0193 h -0.022049 l 0.038585,1.25401 h 0.031695 q 0.089572,0 0.1198892,0.0207 0.030317,0.0193 0.030317,0.0744 0,0.0482 -0.024805,0.0744 -0.024805,0.0248 -0.071658,0.0248 H 1.245889 q -0.079926,0 -0.1088649,-0.0221 -0.028939,-0.022 -0.028939,-0.0772 0,-0.0537 0.034451,-0.0744 0.034451,-0.0207 0.1322916,-0.0207 h 0.059256 l -0.028939,-1.18511 -0.2728513,0.79237 q -0.020671,0.0579 -0.0509874,0.0799 -0.0303168,0.022 -0.0909505,0.022 -0.0578776,0 -0.0881944,-0.022 -0.0303168,-0.0234 -0.0496093,-0.0799 l -0.27698547,-0.79237 -0.0248047,1.18511 h 0.0923285 q 0.0813042,0 0.11437708,0.022 0.0330729,0.0221 0.0330729,0.073 0,0.0551 -0.0289388,0.0772 -0.0289388,0.0221 -0.11024297,0.0221 h -0.3858504 q -0.0482313,0 -0.07303597,-0.0248 -0.02342663,-0.0248 -0.02342663,-0.0744 0,-0.0551 0.03031682,-0.0744 0.03031681,-0.0207 0.11988923,-0.0207 h 0.0303168 l 0.0399631,-1.25401 h -0.0220486 q -0.0757921,0 -0.10473083,-0.0193 -0.0289388,-0.0207 -0.0289388,-0.073 0,-0.0455 0.0234266,-0.0689 0.0234266,-0.0248 0.0675238,-0.0248 h 0.22599809 q 0.0633897,0 0.0964626,0.022 0.0344509,0.0221 0.0523654,0.0717 z" />
      <path
         id="path504"
         style="font-style:normal;font-variant:normal;font-weight:normal;font-stretch:normal;font-size:2.82222px;font-family:Courier;-inkscape-font-specification:'Courier, Normal';font-variant-ligatures:normal;font-variant-caps:normal;font-variant-numeric:normal;font-variant-east-asian:normal;stroke-width:0.264583"
         d="m 2.1250767,126.61565 q 0.011024,0.19844 0.1336696,0.30731 0.1240234,0.10748 0.3376191,0.10748 0.1612304,0 0.3513995,-0.0854 0.1901691,-0.0868 0.2301322,-0.0868 0.041341,0 0.068902,0.0262 0.027561,0.0262 0.027561,0.0648 0,0.04 -0.028939,0.073 -0.028939,0.0331 -0.092329,0.0648 -0.1378037,0.0675 -0.2852537,0.10336 -0.1460719,0.0358 -0.2907658,0.0358 -0.3141925,0 -0.5029835,-0.18052 -0.1887911,-0.1819 -0.1887911,-0.48093 0,-0.30455 0.1998153,-0.49334 0.1998154,-0.18879 0.5208981,-0.18879 0.2907658,0 0.482313,0.17639 0.1915472,0.17639 0.1915472,0.42719 0,0.0772 -0.033073,0.10335 -0.031695,0.0262 -0.1750108,0.0262 h -0.020671 z m 0.00689,-0.18052 h 0.8971022 q -0.020671,-0.16399 -0.1378037,-0.2632 -0.1157551,-0.1006 -0.2852537,-0.1006 -0.183279,0 -0.3086803,0.0965 -0.1254014,0.0965 -0.1653645,0.26734 z" />
      <path
         id="path506"
         style="font-style:normal;font-variant:normal;font-weight:normal;font-stretch:normal;font-size:2.82222px;font-family:Courier;-inkscape-font-specification:'Courier, Normal';font-variant-ligatures:normal;font-variant-caps:normal;font-variant-numeric:normal;font-variant-east-asian:normal;stroke-width:0.264583"
         d="m 4.1480353,126.99737 h 0.4575083 q 0.053744,0 0.078548,0.0234 0.026183,0.0221 0.026183,0.0717 0,0.0565 -0.024805,0.0786 -0.023427,0.0207 -0.088194,0.0207 H 3.6960391 q -0.053743,0 -0.081304,-0.0248 -0.027561,-0.0248 -0.027561,-0.0744 0,-0.0482 0.027561,-0.0717 0.028939,-0.0234 0.088194,-0.0234 h 0.2397784 v -0.88332 h -0.093707 q -0.1336696,0 -0.1667425,-0.0207 -0.033073,-0.022 -0.033073,-0.0785 0,-0.0482 0.026183,-0.0717 0.027561,-0.0248 0.082682,-0.0248 h 0.3141924 q 0.037207,0 0.0565,0.0152 0.019293,0.0138 0.019293,0.0413 v 0.23426 q 0.1309135,-0.16398 0.2728513,-0.24391 0.1419379,-0.0799 0.3059243,-0.0799 0.1226453,0 0.1984373,0.0496 0.075792,0.0496 0.075792,0.12816 0,0.051 -0.038585,0.091 -0.037207,0.0386 -0.082682,0.0386 -0.031695,0 -0.1074869,-0.0413 -0.074414,-0.0427 -0.1336696,-0.0427 -0.1074869,0 -0.2273761,0.0772 -0.1185112,0.0758 -0.2632051,0.24115 z" />
      <path
         id="path508"
         style="font-style:normal;font-variant:normal;font-weight:normal;font-stretch:normal;font-size:2.82222px;font-family:Courier;-inkscape-font-specification:'Courier, Normal';font-variant-ligatures:normal;font-variant-caps:normal;font-variant-numeric:normal;font-variant-east-asian:normal;stroke-width:0.264583"
         d="m 5.9753124,127.0332 q 0.2122177,0 0.3472654,-0.13367 0.1364257,-0.13505 0.1364257,-0.34313 0,-0.20809 -0.1364257,-0.34313 -0.1364257,-0.13643 -0.3472654,-0.13643 -0.2108397,0 -0.3472653,0.13643 -0.1350477,0.13504 -0.1350477,0.34313 0,0.20946 0.1350477,0.34313 0.1350476,0.13367 0.3472653,0.13367 z m 0.7234695,-0.4768 q 0,0.2949 -0.2011934,0.48231 -0.2011934,0.18741 -0.5222761,0.18741 -0.3197046,0 -0.520898,-0.18741 -0.2011934,-0.18741 -0.2011934,-0.48231 0,-0.2949 0.2011934,-0.48094 0.2011934,-0.18741 0.520898,-0.18741 0.3197046,0 0.5208981,0.18741 0.2025714,0.18742 0.2025714,0.48094 z" />
      <path
         id="path510"
         style="font-style:normal;font-variant:normal;font-weight:normal;font-stretch:normal;font-size:2.82222px;font-family:Courier;-inkscape-font-specification:'Courier, Normal';font-variant-ligatures:normal;font-variant-caps:normal;font-variant-numeric:normal;font-variant-east-asian:normal;stroke-width:0.264583"
         d="m 8.178794,126.42411 q 0,-0.19431 -0.035829,-0.26183 -0.034451,-0.0689 -0.1198892,-0.0689 -0.1019748,0 -0.1626084,0.0882 -0.059256,0.0882 -0.059256,0.24254 v 0.57326 h 0.024805 q 0.08406,0 0.111621,0.0207 0.028939,0.0193 0.028939,0.0744 0,0.0496 -0.023427,0.0744 -0.023427,0.0248 -0.071658,0.0248 H 7.6964809 q -0.059255,0 -0.081304,-0.0276 -0.020671,-0.0276 -0.020671,-0.11851 v -0.04 -0.58153 -0.10749 q 0,-0.10335 -0.046853,-0.16261 -0.046853,-0.0606 -0.1281574,-0.0606 -0.062012,0 -0.1143771,0.0372 -0.050987,0.0358 -0.088194,0.10749 v 0.7593 h 0.050987 q 0.082682,0 0.111621,0.0207 0.028939,0.0207 0.028939,0.0744 0,0.0565 -0.023427,0.0786 -0.023427,0.0207 -0.089573,0.0207 H 6.9289143 q -0.053743,0 -0.079926,-0.0234 -0.024805,-0.0248 -0.024805,-0.0758 0,-0.0551 0.031695,-0.0744 0.033073,-0.0207 0.1267794,-0.0207 h 0.027561 v -0.88332 h -0.024805 q -0.096463,0 -0.1322916,-0.0221 -0.034451,-0.022 -0.034451,-0.0772 0,-0.0482 0.027561,-0.0717 0.027561,-0.0248 0.082682,-0.0248 h 0.2108396 q 0.045475,0 0.059256,0.0165 0.015158,0.0152 0.017914,0.0662 0.0565,-0.0606 0.1212673,-0.0896 0.064768,-0.0289 0.1460719,-0.0289 0.096463,0 0.1584743,0.0427 0.06339,0.0413 0.093706,0.12678 0.057878,-0.0868 0.1336696,-0.12816 0.075792,-0.0413 0.1736327,-0.0413 0.1777668,0 0.259071,0.11575 0.082682,0.11576 0.082682,0.37483 v 0.62425 h 0.022049 q 0.085438,0 0.1143771,0.0207 0.028939,0.0207 0.028939,0.0744 0,0.0496 -0.024805,0.0744 -0.024805,0.0248 -0.073036,0.0248 H 8.2862808 q -0.055121,0 -0.081304,-0.0331 -0.026183,-0.0331 -0.026183,-0.10473 z" />
      <path
         id="path512"
         style="font-style:normal;font-variant:normal;font-weight:normal;font-stretch:normal;font-size:2.82222px;font-family:Courier;-inkscape-font-specification:'Courier, Normal';font-variant-ligatures:normal;font-variant-caps:normal;font-variant-numeric:normal;font-variant-east-asian:normal;stroke-width:0.264583"
         d="m 9.3597719,127.0332 q 0.2122177,0 0.3472654,-0.13367 0.1364257,-0.13505 0.1364257,-0.34313 0,-0.20809 -0.1364257,-0.34313 -0.1364257,-0.13643 -0.3472654,-0.13643 -0.2108397,0 -0.3472653,0.13643 -0.1350477,0.13504 -0.1350477,0.34313 0,0.20946 0.1350477,0.34313 0.1350476,0.13367 0.3472653,0.13367 z m 0.7234691,-0.4768 q 0,0.2949 -0.201193,0.48231 -0.2011934,0.18741 -0.5222761,0.18741 -0.3197046,0 -0.520898,-0.18741 -0.2011935,-0.18741 -0.2011935,-0.48231 0,-0.2949 0.2011935,-0.48094 0.2011934,-0.18741 0.520898,-0.18741 0.3197046,0 0.5208981,0.18741 0.202571,0.18742 0.202571,0.48094 z" />
      <path
         id="path514"
         style="font-style:normal;font-variant:normal;font-weight:normal;font-stretch:normal;font-size:2.82222px;font-family:Courier;-inkscape-font-specification:'Courier, Normal';font-variant-ligatures:normal;font-variant-caps:normal;font-variant-numeric:normal;font-variant-east-asian:normal;stroke-width:0.264583"
         d="m 10.916954,126.99737 h 0.457508 q 0.05374,0 0.07855,0.0234 0.02618,0.0221 0.02618,0.0717 0,0.0565 -0.02481,0.0786 -0.02343,0.0207 -0.08819,0.0207 h -0.901237 q -0.05374,0 -0.0813,-0.0248 -0.02756,-0.0248 -0.02756,-0.0744 0,-0.0482 0.02756,-0.0717 0.02894,-0.0234 0.08819,-0.0234 h 0.239778 v -0.88332 h -0.09371 q -0.133669,0 -0.166742,-0.0207 -0.03307,-0.022 -0.03307,-0.0785 0,-0.0482 0.02618,-0.0717 0.02756,-0.0248 0.08268,-0.0248 h 0.314193 q 0.03721,0 0.0565,0.0152 0.01929,0.0138 0.01929,0.0413 v 0.23426 q 0.130913,-0.16398 0.272851,-0.24391 0.141938,-0.0799 0.305924,-0.0799 0.122645,0 0.198437,0.0496 0.07579,0.0496 0.07579,0.12816 0,0.051 -0.03858,0.091 -0.03721,0.0386 -0.08268,0.0386 -0.03169,0 -0.107487,-0.0413 -0.07441,-0.0427 -0.133669,-0.0427 -0.107487,0 -0.227376,0.0772 -0.118512,0.0758 -0.263205,0.24115 z" />
      <path
         id="path516"
         style="font-style:normal;font-variant:normal;font-weight:normal;font-stretch:normal;font-size:2.82222px;font-family:Courier;-inkscape-font-specification:'Courier, Normal';font-variant-ligatures:normal;font-variant-caps:normal;font-variant-numeric:normal;font-variant-east-asian:normal;stroke-width:0.264583"
         d="m 12.388698,127.54445 h 0.330729 q 0.05236,0 0.07855,0.0248 0.02618,0.0248 0.02618,0.0744 0,0.0537 -0.02618,0.0758 -0.0248,0.0221 -0.08957,0.0221 h -0.607714 q -0.05512,0 -0.08406,-0.0248 -0.02756,-0.0248 -0.02756,-0.073 0,-0.0551 0.03445,-0.0772 0.03583,-0.0221 0.130914,-0.0221 h 0.02618 v -1.4304 h -0.02618 q -0.09508,0 -0.130914,-0.0221 -0.03445,-0.022 -0.03445,-0.0772 0,-0.0482 0.02756,-0.0717 0.02894,-0.0248 0.08406,-0.0248 h 0.209462 q 0.04134,0 0.05926,0.0138 0.01929,0.0138 0.01929,0.0427 v 0.13367 q 0.09371,-0.0965 0.206705,-0.1447 0.114377,-0.0482 0.245291,-0.0482 0.276985,0 0.46302,0.18741 0.186036,0.18742 0.186036,0.46991 0,0.27148 -0.176389,0.44649 -0.176389,0.17501 -0.450618,0.17501 -0.146072,0 -0.268718,-0.051 -0.122645,-0.0524 -0.205327,-0.14883 z m 0.427191,-0.55259 q 0.191548,0 0.314193,-0.11989 0.122645,-0.12127 0.122645,-0.31282 0,-0.18741 -0.124023,-0.30868 -0.122646,-0.12264 -0.312815,-0.12264 -0.190169,0 -0.311436,0.12127 -0.121267,0.12126 -0.121267,0.31005 0,0.19017 0.119889,0.31144 0.121267,0.12127 0.312814,0.12127 z" />
      <path
         id="path518"
         style="font-style:normal;font-variant:normal;font-weight:normal;font-stretch:normal;font-size:2.82222px;font-family:Courier;-inkscape-font-specification:'Courier, Normal';font-variant-ligatures:normal;font-variant-caps:normal;font-variant-numeric:normal;font-variant-east-asian:normal;stroke-width:0.264583"
         d="m 13.918319,126.99737 v -1.41111 h -0.02618 q -0.09371,0 -0.129535,-0.022 -0.03445,-0.0221 -0.03445,-0.0772 0,-0.0496 0.02756,-0.0744 0.02894,-0.0248 0.08268,-0.0248 h 0.209461 q 0.03721,0 0.05788,0.0152 0.02067,0.0152 0.02067,0.0413 v 0.62425 q 0.100597,-0.0937 0.198438,-0.1378 0.09922,-0.0455 0.205327,-0.0455 0.208084,0 0.326595,0.12954 0.119889,0.12954 0.119889,0.35829 v 0.62425 h 0.06477 q 0.0689,0 0.09922,0.0234 0.03032,0.0221 0.03032,0.0717 0,0.0496 -0.02756,0.0744 -0.02756,0.0248 -0.08268,0.0248 h -0.366558 q -0.06477,0 -0.08819,-0.0207 -0.02205,-0.0221 -0.02205,-0.0786 0,-0.0551 0.02756,-0.0744 0.02894,-0.0207 0.107487,-0.0207 h 0.04823 v -0.57326 q 0,-0.16123 -0.07304,-0.24529 -0.07304,-0.0854 -0.212218,-0.0854 -0.141938,0 -0.249425,0.0951 -0.106109,0.0951 -0.106109,0.23565 v 0.57326 h 0.04823 q 0.08268,0 0.111621,0.0207 0.02894,0.0207 0.02894,0.0744 0,0.0565 -0.02343,0.0786 -0.02205,0.0207 -0.08682,0.0207 h -0.366557 q -0.05374,0 -0.08131,-0.0248 -0.02618,-0.0248 -0.02618,-0.0744 0,-0.0551 0.0317,-0.0744 0.03307,-0.0207 0.126779,-0.0207 z" />
    </g>
    <g
       style="font-style:normal;font-variant:normal;font-weight:normal;font-stretch:normal;font-size:2.46944px;line-height:1.25;font-family:'Arial Black';-inkscape-font-specification:'Arial Black, Normal';font-variant-ligatures:normal;font-variant-caps:normal;font-variant-numeric:normal;font-variant-east-asian:normal;display:inline;stroke-width:0.264583"
       id="text354"
       aria-label="Input">
      <path
         id="path521"
         style="font-style:normal;font-variant:normal;font-weight:normal;font-stretch:normal;font-size:2.46944px;font-family:'Arial Black';-inkscape-font-specification:'Arial Black, Normal';font-variant-ligatures:normal;font-variant-caps:normal;font-variant-numeric:normal;font-variant-east-asian:normal;stroke-width:0.264583"
         d="m 4.252849,27.941254 h 0.5474246 v 1.767675 H 4.252849 Z" />
      <path
         id="path523"
         style="font-style:normal;font-variant:normal;font-weight:normal;font-stretch:normal;font-size:2.46944px;font-family:'Arial Black';-inkscape-font-specification:'Arial Black, Normal';font-variant-ligatures:normal;font-variant-caps:normal;font-variant-numeric:normal;font-variant-east-asian:normal;stroke-width:0.264583"
         d="m 5.1583907,28.428389 h 0.456991 v 0.208601 q 0.1024915,-0.127813 0.2073944,-0.182073 0.104903,-0.05547 0.2556256,-0.05547 0.2037771,0 0.3183263,0.121784 0.115755,0.120578 0.115755,0.373792 v 0.813902 H 6.0193185 v -0.704176 q 0,-0.120578 -0.044614,-0.170015 -0.044614,-0.05064 -0.1254013,-0.05064 -0.089228,0 -0.1446937,0.06752 -0.055466,0.06752 -0.055466,0.242362 v 0.614948 H 5.1583907 Z" />
      <path
         id="path525"
         style="font-style:normal;font-variant:normal;font-weight:normal;font-stretch:normal;font-size:2.46944px;font-family:'Arial Black';-inkscape-font-specification:'Arial Black, Normal';font-variant-ligatures:normal;font-variant-caps:normal;font-variant-numeric:normal;font-variant-east-asian:normal;stroke-width:0.264583"
         d="m 6.810311,30.196065 v -1.767676 h 0.4594026 v 0.189308 q 0.095257,-0.119372 0.1748383,-0.161575 0.1073146,-0.05667 0.2375389,-0.05667 0.2568314,0 0.3967021,0.196542 0.1410764,0.196542 0.1410764,0.48593 0,0.319532 -0.1531343,0.488341 -0.1531342,0.167604 -0.3870557,0.167604 -0.1133435,0 -0.2073944,-0.03858 -0.092845,-0.03859 -0.1663978,-0.114549 v 0.611331 z m 0.4919587,-1.123788 q 0,0.151928 0.063906,0.225481 0.063907,0.07355 0.1615747,0.07355 0.085611,0 0.143488,-0.06994 0.057878,-0.07114 0.057878,-0.23995 0,-0.155546 -0.060289,-0.227893 -0.060289,-0.07355 -0.1471053,-0.07355 -0.094051,0 -0.1567515,0.07355 -0.062701,0.07355 -0.062701,0.238745 z" />
      <path
         id="path527"
         style="font-style:normal;font-variant:normal;font-weight:normal;font-stretch:normal;font-size:2.46944px;font-family:'Arial Black';-inkscape-font-specification:'Arial Black, Normal';font-variant-ligatures:normal;font-variant-caps:normal;font-variant-numeric:normal;font-variant-east-asian:normal;stroke-width:0.264583"
         d="M 9.8066771,29.708929 H 9.3484802 v -0.207394 q -0.1024914,0.127812 -0.2073943,0.182073 -0.1036972,0.05426 -0.2556257,0.05426 -0.2025712,0 -0.3183262,-0.120578 -0.1145492,-0.121784 -0.1145492,-0.373792 v -0.815109 h 0.4931645 v 0.704177 q 0,0.120578 0.044614,0.171221 0.044614,0.05064 0.1254013,0.05064 0.088022,0 0.1434879,-0.06752 0.056672,-0.06752 0.056672,-0.242362 v -0.616155 h 0.4907529 z" />
      <path
         id="path529"
         style="font-style:normal;font-variant:normal;font-weight:normal;font-stretch:normal;font-size:2.46944px;font-family:'Arial Black';-inkscape-font-specification:'Arial Black, Normal';font-variant-ligatures:normal;font-variant-caps:normal;font-variant-numeric:normal;font-variant-east-asian:normal;stroke-width:0.264583"
         d="m 10.698955,27.941254 v 0.487135 h 0.270095 v 0.358117 h -0.270095 v 0.45458 q 0,0.08199 0.01568,0.10852 0.02412,0.041 0.0844,0.041 0.05426,0 0.151929,-0.03135 l 0.03617,0.338824 q -0.182073,0.03979 -0.34003,0.03979 -0.183279,0 -0.270095,-0.04703 -0.08682,-0.04703 -0.129019,-0.142282 -0.041,-0.09646 -0.041,-0.311091 V 28.786506 H 10.02613 v -0.358117 h 0.180867 v -0.235127 z" />
    </g>
    <g
       style="font-style:normal;font-variant:normal;font-weight:normal;font-stretch:normal;font-size:2.46944px;line-height:1.25;font-family:'Arial Black';-inkscape-font-specification:'Arial Black, Normal';font-variant-ligatures:normal;font-variant-caps:normal;font-variant-numeric:normal;font-variant-east-asian:normal;display:inline;stroke-width:0.264583"
       id="text341"
       aria-label="real">
      <path
         id="path532"
         style="font-style:normal;font-variant:normal;font-weight:normal;font-stretch:normal;font-size:2.46944px;font-family:'Arial Black';-inkscape-font-specification:'Arial Black, Normal';font-variant-ligatures:normal;font-variant-caps:normal;font-variant-numeric:normal;font-variant-east-asian:normal;stroke-width:0.264583"
         d="m 5.1710533,47.101003 h 0.4594026 v 0.209805 q 0.066318,-0.136253 0.1362533,-0.186896 0.071141,-0.05185 0.1748383,-0.05185 0.1085203,0 0.2375389,0.06752 L 6.027158,47.489264 q -0.086816,-0.03617 -0.1374591,-0.03617 -0.096463,0 -0.1495169,0.07958 -0.075964,0.112138 -0.075964,0.419612 v 0.429258 H 5.1710533 Z" />
      <path
         id="path534"
         style="font-style:normal;font-variant:normal;font-weight:normal;font-stretch:normal;font-size:2.46944px;font-family:'Arial Black';-inkscape-font-specification:'Arial Black, Normal';font-variant-ligatures:normal;font-variant-caps:normal;font-variant-numeric:normal;font-variant-east-asian:normal;stroke-width:0.264583"
         d="M 7.6826956,47.863056 H 6.6987781 q 0.013264,0.118167 0.063906,0.176044 0.071141,0.0832 0.1856903,0.0832 0.072347,0 0.1374591,-0.03617 0.039791,-0.02291 0.08561,-0.08079 l 0.4835183,0.04461 q -0.1109319,0.192925 -0.2676834,0.27733 -0.1567516,0.0832 -0.4497564,0.0832 -0.2544199,0 -0.4003194,-0.07114 -0.1458995,-0.07235 -0.242362,-0.227893 -0.095257,-0.156751 -0.095257,-0.367763 0,-0.30024 0.1917192,-0.48593 0.192925,-0.18569 0.5317495,-0.18569 0.2749181,0 0.4340813,0.0832 0.1591631,0.0832 0.242362,0.241156 0.083199,0.157957 0.083199,0.411171 z M 7.1835022,47.627929 q -0.014469,-0.142282 -0.07717,-0.203777 -0.061495,-0.0615 -0.1627805,-0.0615 -0.1169608,0 -0.1868961,0.09285 -0.044614,0.05788 -0.056672,0.172427 z" />
      <path
         id="path536"
         style="font-style:normal;font-variant:normal;font-weight:normal;font-stretch:normal;font-size:2.46944px;font-family:'Arial Black';-inkscape-font-specification:'Arial Black, Normal';font-variant-ligatures:normal;font-variant-caps:normal;font-variant-numeric:normal;font-variant-east-asian:normal;stroke-width:0.264583"
         d="m 8.3579331,47.515791 -0.4690489,-0.04944 q 0.026527,-0.122989 0.075964,-0.192925 0.050643,-0.07114 0.1446937,-0.122989 0.067524,-0.03738 0.1856903,-0.05788 0.1181666,-0.0205 0.2556257,-0.0205 0.2206579,0 0.3544996,0.02532 0.1338418,0.02412 0.2230696,0.102492 0.062701,0.05426 0.098874,0.15434 0.036173,0.09887 0.036173,0.189307 v 0.565512 q 0,0.09043 0.010852,0.142282 0.012058,0.05064 0.050643,0.130224 H 8.8643612 q -0.027733,-0.04944 -0.036173,-0.07476 -0.00844,-0.02653 -0.016881,-0.08199 -0.096463,0.09284 -0.1917192,0.132636 -0.1302244,0.05305 -0.3026511,0.05305 -0.2290984,0 -0.3484708,-0.106109 -0.1181665,-0.106109 -0.1181665,-0.261654 0,-0.1459 0.08561,-0.239951 0.085611,-0.09405 0.3159147,-0.13987 0.2761239,-0.05547 0.358117,-0.07717 0.081993,-0.02291 0.1736325,-0.05908 0,-0.09043 -0.037379,-0.126607 -0.037379,-0.03617 -0.1314301,-0.03617 -0.1205782,0 -0.1808672,0.03858 -0.047026,0.03014 -0.075964,0.113343 z m 0.4256407,0.258037 q -0.1012856,0.03617 -0.2110117,0.06391 -0.1495169,0.03979 -0.1893076,0.07838 -0.040997,0.03979 -0.040997,0.09043 0,0.05788 0.039791,0.09526 0.040997,0.03617 0.1193723,0.03617 0.081993,0 0.1519285,-0.03979 0.071141,-0.03979 0.1000798,-0.09646 0.030144,-0.05788 0.030144,-0.149517 z" />
      <path
         id="path538"
         style="font-style:normal;font-variant:normal;font-weight:normal;font-stretch:normal;font-size:2.46944px;font-family:'Arial Black';-inkscape-font-specification:'Arial Black, Normal';font-variant-ligatures:normal;font-variant-caps:normal;font-variant-numeric:normal;font-variant-east-asian:normal;stroke-width:0.264583"
         d="m 9.5769776,46.613867 h 0.4919584 v 1.767675 H 9.5769776 Z" />
    </g>
    <g
       style="font-style:normal;font-variant:normal;font-weight:normal;font-stretch:normal;font-size:2.46944px;line-height:1.25;font-family:'Arial Black';-inkscape-font-specification:'Arial Black, Normal';font-variant-ligatures:normal;font-variant-caps:normal;font-variant-numeric:normal;font-variant-east-asian:normal;display:inline;stroke-width:0.264583"
       id="text345"
       aria-label="imaginary">
      <path
         id="path541"
         style="font-style:normal;font-variant:normal;font-weight:normal;font-stretch:normal;font-size:2.46944px;font-family:'Arial Black';-inkscape-font-specification:'Arial Black, Normal';font-variant-ligatures:normal;font-variant-caps:normal;font-variant-numeric:normal;font-variant-east-asian:normal;stroke-width:0.264583"
         d="M 1.038834,61.543928 H 1.5295869 V 61.87793 H 1.038834 Z m 0,0.487136 h 0.4907529 v 1.28054 H 1.038834 Z" />
      <path
         id="path543"
         style="font-style:normal;font-variant:normal;font-weight:normal;font-stretch:normal;font-size:2.46944px;font-family:'Arial Black';-inkscape-font-specification:'Arial Black, Normal';font-variant-ligatures:normal;font-variant-caps:normal;font-variant-numeric:normal;font-variant-east-asian:normal;stroke-width:0.264583"
         d="m 1.849119,62.031064 h 0.4581968 v 0.186896 q 0.098874,-0.116961 0.1989539,-0.166398 0.1012857,-0.04944 0.2435678,-0.04944 0.1531343,0 0.2423621,0.05426 0.089228,0.05426 0.1458995,0.161575 0.115755,-0.125401 0.2110117,-0.170015 0.095257,-0.04582 0.2351274,-0.04582 0.2061886,0 0.3219436,0.12299 0.115755,0.121784 0.115755,0.382232 v 0.804257 H 3.529978 v -0.729498 q 0,-0.08682 -0.033762,-0.129019 -0.049437,-0.06632 -0.1229897,-0.06632 -0.086816,0 -0.1398706,0.0627 -0.053054,0.0627 -0.053054,0.201365 v 0.660769 H 2.6883427 v -0.705382 q 0,-0.08441 -0.00965,-0.11455 -0.015675,-0.04823 -0.05426,-0.07717 -0.038585,-0.03014 -0.090434,-0.03014 -0.084405,0 -0.1386648,0.06391 -0.05426,0.06391 -0.05426,0.209806 v 0.653534 H 1.849119 Z" />
      <path
         id="path545"
         style="font-style:normal;font-variant:normal;font-weight:normal;font-stretch:normal;font-size:2.46944px;font-family:'Arial Black';-inkscape-font-specification:'Arial Black, Normal';font-variant-ligatures:normal;font-variant-caps:normal;font-variant-numeric:normal;font-variant-east-asian:normal;stroke-width:0.264583"
         d="m 4.7622863,62.445853 -0.4690489,-0.04944 q 0.026527,-0.12299 0.075964,-0.192925 0.050643,-0.07114 0.1446938,-0.12299 0.067524,-0.03738 0.1856903,-0.05788 0.1181666,-0.0205 0.2556256,-0.0205 0.220658,0 0.3544997,0.02532 0.1338417,0.02411 0.2230695,0.102491 0.062701,0.05426 0.098874,0.15434 0.036173,0.09887 0.036173,0.189308 v 0.565511 q 0,0.09043 0.010852,0.142282 0.012058,0.05064 0.050643,0.130225 H 5.2687144 q -0.027733,-0.04944 -0.036173,-0.07476 -0.00844,-0.02653 -0.016881,-0.08199 -0.096463,0.09285 -0.1917192,0.132636 -0.1302244,0.05305 -0.3026511,0.05305 -0.2290985,0 -0.3484708,-0.106108 -0.1181666,-0.106109 -0.1181666,-0.261655 0,-0.1459 0.08561,-0.23995 0.085611,-0.09405 0.3159147,-0.139871 0.2761239,-0.05547 0.358117,-0.07717 0.081993,-0.02291 0.1736325,-0.05908 0,-0.09043 -0.037379,-0.126607 -0.037379,-0.03617 -0.1314302,-0.03617 -0.1205781,0 -0.1808672,0.03859 -0.047025,0.03014 -0.075964,0.113344 z m 0.4256408,0.258037 q -0.1012856,0.03617 -0.2110117,0.06391 -0.1495169,0.03979 -0.1893077,0.07838 -0.040996,0.03979 -0.040996,0.09043 0,0.05788 0.039791,0.09526 0.040997,0.03617 0.1193724,0.03617 0.081993,0 0.1519284,-0.03979 0.071141,-0.03979 0.1000799,-0.09646 0.030144,-0.05788 0.030144,-0.149516 z" />
      <path
         id="path547"
         style="font-style:normal;font-variant:normal;font-weight:normal;font-stretch:normal;font-size:2.46944px;font-family:'Arial Black';-inkscape-font-specification:'Arial Black, Normal';font-variant-ligatures:normal;font-variant-caps:normal;font-variant-numeric:normal;font-variant-east-asian:normal;stroke-width:0.264583"
         d="m 6.8555228,62.031064 h 0.4594026 v 1.209398 l 0.00121,0.05667 q 0,0.120578 -0.051849,0.229099 -0.050643,0.109726 -0.1362533,0.177249 -0.084405,0.06752 -0.2158348,0.09767 -0.1302244,0.03014 -0.2990338,0.03014 -0.38585,0 -0.5305437,-0.115755 -0.143488,-0.115755 -0.143488,-0.309886 0,-0.02412 0.00241,-0.06511 l 0.4762836,0.05426 q 0.018087,0.06632 0.055466,0.09164 0.05426,0.03738 0.1362533,0.03738 0.1061087,0 0.1579573,-0.05667 0.053054,-0.05667 0.053054,-0.197748 V 63.07527 q -0.072347,0.08561 -0.1446937,0.124196 -0.1133435,0.06029 -0.2447736,0.06029 -0.2568314,0 -0.4147888,-0.224275 -0.1121376,-0.159163 -0.1121376,-0.420818 0,-0.299034 0.1446937,-0.455785 0.1446938,-0.156752 0.3786153,-0.156752 0.1495169,0 0.2459794,0.05064 0.097668,0.05064 0.182073,0.167604 z m -0.4618142,0.620977 q 0,0.138665 0.059083,0.206189 0.059083,0.06632 0.1555458,0.06632 0.091639,0 0.1531342,-0.06873 0.062701,-0.06994 0.062701,-0.209806 0,-0.13987 -0.065112,-0.213423 -0.065112,-0.07476 -0.1591632,-0.07476 -0.094051,0 -0.1507226,0.06873 -0.055466,0.06752 -0.055466,0.225481 z" />
      <path
         id="path549"
         style="font-style:normal;font-variant:normal;font-weight:normal;font-stretch:normal;font-size:2.46944px;font-family:'Arial Black';-inkscape-font-specification:'Arial Black, Normal';font-variant-ligatures:normal;font-variant-caps:normal;font-variant-numeric:normal;font-variant-east-asian:normal;stroke-width:0.264583"
         d="m 7.6320456,61.543928 h 0.490753 v 0.334002 h -0.490753 z m 0,0.487136 h 0.490753 v 1.28054 h -0.490753 z" />
      <path
         id="path551"
         style="font-style:normal;font-variant:normal;font-weight:normal;font-stretch:normal;font-size:2.46944px;font-family:'Arial Black';-inkscape-font-specification:'Arial Black, Normal';font-variant-ligatures:normal;font-variant-caps:normal;font-variant-numeric:normal;font-variant-east-asian:normal;stroke-width:0.264583"
         d="m 8.4387131,62.031064 h 0.4569911 v 0.2086 q 0.1024914,-0.127813 0.2073944,-0.182073 0.104903,-0.05547 0.2556256,-0.05547 0.2037771,0 0.3183263,0.121784 0.115755,0.120578 0.115755,0.373792 v 0.813903 H 9.299641 v -0.704177 q 0,-0.120578 -0.044614,-0.170015 -0.044614,-0.05064 -0.1254012,-0.05064 -0.089228,0 -0.1446937,0.06752 -0.055466,0.06752 -0.055466,0.242362 v 0.614949 h -0.490753 z" />
      <path
         id="path553"
         style="font-style:normal;font-variant:normal;font-weight:normal;font-stretch:normal;font-size:2.46944px;font-family:'Arial Black';-inkscape-font-specification:'Arial Black, Normal';font-variant-ligatures:normal;font-variant-caps:normal;font-variant-numeric:normal;font-variant-east-asian:normal;stroke-width:0.264583"
         d="m 10.535566,62.445853 -0.469048,-0.04944 q 0.02653,-0.12299 0.07596,-0.192925 0.05064,-0.07114 0.144694,-0.12299 0.06752,-0.03738 0.18569,-0.05788 0.118166,-0.0205 0.255625,-0.0205 0.220658,0 0.3545,0.02532 0.133842,0.02411 0.22307,0.102491 0.0627,0.05426 0.09887,0.15434 0.03617,0.09887 0.03617,0.189308 v 0.565511 q 0,0.09043 0.01085,0.142282 0.01206,0.05064 0.05064,0.130225 h -0.460608 q -0.02773,-0.04944 -0.03617,-0.07476 -0.0084,-0.02653 -0.01688,-0.08199 -0.09646,0.09285 -0.191719,0.132636 -0.130224,0.05305 -0.302651,0.05305 -0.229099,0 -0.348471,-0.106108 -0.118166,-0.106109 -0.118166,-0.261655 0,-0.1459 0.08561,-0.23995 0.08561,-0.09405 0.315915,-0.139871 0.276124,-0.05547 0.358117,-0.07717 0.08199,-0.02291 0.173632,-0.05908 0,-0.09043 -0.03738,-0.126607 -0.03738,-0.03617 -0.13143,-0.03617 -0.120578,0 -0.180867,0.03859 -0.04703,0.03014 -0.07597,0.113344 z m 0.425641,0.258037 q -0.101285,0.03617 -0.211011,0.06391 -0.149517,0.03979 -0.189308,0.07838 -0.041,0.03979 -0.041,0.09043 0,0.05788 0.03979,0.09526 0.041,0.03617 0.119372,0.03617 0.08199,0 0.151929,-0.03979 0.07114,-0.03979 0.10008,-0.09646 0.03014,-0.05788 0.03014,-0.149516 z" />
      <path
         id="path555"
         style="font-style:normal;font-variant:normal;font-weight:normal;font-stretch:normal;font-size:2.46944px;font-family:'Arial Black';-inkscape-font-specification:'Arial Black, Normal';font-variant-ligatures:normal;font-variant-caps:normal;font-variant-numeric:normal;font-variant-east-asian:normal;stroke-width:0.264583"
         d="m 11.742554,62.031064 h 0.459403 v 0.209806 q 0.06632,-0.136253 0.136253,-0.186896 0.07114,-0.05185 0.174838,-0.05185 0.108521,0 0.237539,0.06752 l -0.151928,0.349676 q -0.08682,-0.03617 -0.137459,-0.03617 -0.09646,0 -0.149517,0.07958 -0.07596,0.112137 -0.07596,0.419611 v 0.429259 h -0.493165 z" />
      <path
         id="path557"
         style="font-style:normal;font-variant:normal;font-weight:normal;font-stretch:normal;font-size:2.46944px;font-family:'Arial Black';-inkscape-font-specification:'Arial Black, Normal';font-variant-ligatures:normal;font-variant-caps:normal;font-variant-numeric:normal;font-variant-east-asian:normal;stroke-width:0.264583"
         d="m 12.690297,62.031064 h 0.518486 l 0.264067,0.852487 0.244773,-0.852487 h 0.483518 l -0.507634,1.368562 q -0.08682,0.233921 -0.177249,0.315914 -0.127813,0.115755 -0.389468,0.115755 -0.106108,0 -0.327972,-0.02894 l -0.03859,-0.342442 q 0.106109,0.03376 0.236333,0.03376 0.08682,0 0.139871,-0.03979 0.05426,-0.03979 0.09164,-0.142282 z" />
    </g>
    <g
       style="font-style:normal;font-variant:normal;font-weight:normal;font-stretch:normal;font-size:2.46944px;line-height:1.25;font-family:'Arial Black';-inkscape-font-specification:'Arial Black, Normal';font-variant-ligatures:normal;font-variant-caps:normal;font-variant-numeric:normal;font-variant-east-asian:normal;display:inline;stroke-width:0.264583"
       id="text402"
       aria-label="modulus">
      <path
         id="path560"
         style="font-style:normal;font-variant:normal;font-weight:normal;font-stretch:normal;font-size:2.46944px;font-family:'Arial Black';-inkscape-font-specification:'Arial Black, Normal';font-variant-ligatures:normal;font-variant-caps:normal;font-variant-numeric:normal;font-variant-east-asian:normal;stroke-width:0.264583"
         d="m 2.0384269,83.008744 h 0.4581969 v 0.186896 q 0.098874,-0.116961 0.1989539,-0.166398 0.1012856,-0.04944 0.2435678,-0.04944 0.1531342,0 0.242362,0.05426 0.089228,0.05426 0.1458995,0.161575 0.115755,-0.125401 0.2110118,-0.170015 0.095257,-0.04582 0.2351273,-0.04582 0.2061886,0 0.3219436,0.12299 0.115755,0.121784 0.115755,0.382233 v 0.804256 H 3.7192859 v -0.729498 q 0,-0.08682 -0.033762,-0.129018 -0.049437,-0.06632 -0.1229897,-0.06632 -0.086816,0 -0.1398706,0.0627 -0.053054,0.0627 -0.053054,0.201366 v 0.660768 H 2.8776506 v -0.705382 q 0,-0.0844 -0.00965,-0.114549 -0.015675,-0.04823 -0.05426,-0.07717 -0.038585,-0.03015 -0.090434,-0.03015 -0.084405,0 -0.1386648,0.06391 -0.05426,0.06391 -0.05426,0.209806 v 0.653534 H 2.0384269 Z" />
      <path
         id="path562"
         style="font-style:normal;font-variant:normal;font-weight:normal;font-stretch:normal;font-size:2.46944px;font-family:'Arial Black';-inkscape-font-specification:'Arial Black, Normal';font-variant-ligatures:normal;font-variant-caps:normal;font-variant-numeric:normal;font-variant-east-asian:normal;stroke-width:0.264583"
         d="m 4.4439605,83.652631 q 0,-0.293005 0.1977481,-0.482312 0.1977481,-0.190514 0.5341611,-0.190514 0.3846442,0 0.5811865,0.22307 0.1579574,0.179661 0.1579574,0.442522 0,0.295416 -0.1965424,0.484724 -0.1953365,0.188102 -0.5413957,0.188102 -0.30868,0 -0.4991935,-0.156752 -0.2339215,-0.194131 -0.2339215,-0.50884 z m 0.4919587,-0.0012 q 0,0.171221 0.068729,0.253215 0.069935,0.08199 0.1748383,0.08199 0.1061088,0 0.1736325,-0.08079 0.06873,-0.08079 0.06873,-0.259243 0,-0.166397 -0.06873,-0.247185 -0.068729,-0.08199 -0.1700151,-0.08199 -0.1073146,0 -0.1772499,0.0832 -0.069935,0.08199 -0.069935,0.250802 z" />
      <path
         id="path564"
         style="font-style:normal;font-variant:normal;font-weight:normal;font-stretch:normal;font-size:2.46944px;font-family:'Arial Black';-inkscape-font-specification:'Arial Black, Normal';font-variant-ligatures:normal;font-variant-caps:normal;font-variant-numeric:normal;font-variant-east-asian:normal;stroke-width:0.264583"
         d="m 7.5018219,82.521608 v 1.767676 H 7.0424193 v -0.189308 q -0.096462,0.120578 -0.1760441,0.162781 -0.1061088,0.05547 -0.2363331,0.05547 -0.2616546,0 -0.4003194,-0.198954 -0.1374591,-0.198954 -0.1374591,-0.483519 0,-0.318326 0.1519285,-0.487135 0.1531342,-0.16881 0.3882615,-0.16881 0.1145493,0 0.2073944,0.03858 0.094051,0.03858 0.1663978,0.115755 v -0.612537 z m -0.4919587,1.123789 q 0,-0.150723 -0.063906,-0.224276 -0.063906,-0.07476 -0.1615747,-0.07476 -0.085611,0 -0.143488,0.07114 -0.057878,0.07114 -0.057878,0.238745 0,0.156751 0.059083,0.230304 0.060289,0.07235 0.1483111,0.07235 0.094051,0 0.1567515,-0.07355 0.062701,-0.07355 0.062701,-0.23995 z" />
      <path
         id="path566"
         style="font-style:normal;font-variant:normal;font-weight:normal;font-stretch:normal;font-size:2.46944px;font-family:'Arial Black';-inkscape-font-specification:'Arial Black, Normal';font-variant-ligatures:normal;font-variant-caps:normal;font-variant-numeric:normal;font-variant-east-asian:normal;stroke-width:0.264583"
         d="M 9.1525362,84.289284 H 8.6943393 v -0.207395 q -0.1024914,0.127813 -0.2073944,0.182073 -0.1036972,0.05426 -0.2556256,0.05426 -0.2025713,0 -0.3183263,-0.120579 Q 7.7984438,84.07586 7.7984438,83.823852 v -0.815108 h 0.4931646 v 0.704176 q 0,0.120578 0.044614,0.171221 0.044614,0.05064 0.1254012,0.05064 0.088022,0 0.143488,-0.06752 0.056672,-0.06752 0.056672,-0.242362 v -0.616154 h 0.490753 z" />
      <path
         id="path568"
         style="font-style:normal;font-variant:normal;font-weight:normal;font-stretch:normal;font-size:2.46944px;font-family:'Arial Black';-inkscape-font-specification:'Arial Black, Normal';font-variant-ligatures:normal;font-variant-caps:normal;font-variant-numeric:normal;font-variant-east-asian:normal;stroke-width:0.264583"
         d="m 9.4696564,82.521608 h 0.4919587 v 1.767676 H 9.4696564 Z" />
      <path
         id="path570"
         style="font-style:normal;font-variant:normal;font-weight:normal;font-stretch:normal;font-size:2.46944px;font-family:'Arial Black';-inkscape-font-specification:'Arial Black, Normal';font-variant-ligatures:normal;font-variant-caps:normal;font-variant-numeric:normal;font-variant-east-asian:normal;stroke-width:0.264583"
         d="m 11.626799,84.289284 h -0.458197 v -0.207395 q -0.102491,0.127813 -0.207394,0.182073 -0.103697,0.05426 -0.255626,0.05426 -0.202571,0 -0.318326,-0.120579 -0.114549,-0.121784 -0.114549,-0.373792 v -0.815108 h 0.493165 v 0.704176 q 0,0.120578 0.04461,0.171221 0.04461,0.05064 0.125402,0.05064 0.08802,0 0.143488,-0.06752 0.05667,-0.06752 0.05667,-0.242362 v -0.616154 h 0.490753 z" />
      <path
         id="path572"
         style="font-style:normal;font-variant:normal;font-weight:normal;font-stretch:normal;font-size:2.46944px;font-family:'Arial Black';-inkscape-font-specification:'Arial Black, Normal';font-variant-ligatures:normal;font-variant-caps:normal;font-variant-numeric:normal;font-variant-east-asian:normal;stroke-width:0.264583"
         d="m 11.840222,83.934784 0.487136,-0.04582 q 0.03014,0.08682 0.08441,0.124196 0.05426,0.03738 0.144693,0.03738 0.09887,0 0.153135,-0.0422 0.0422,-0.03135 0.0422,-0.07838 0,-0.05305 -0.05547,-0.08199 -0.03979,-0.0205 -0.211012,-0.05064 -0.255625,-0.04461 -0.355705,-0.08199 -0.09887,-0.03858 -0.167604,-0.129019 -0.06752,-0.09043 -0.06752,-0.206188 0,-0.126607 0.07355,-0.218247 0.07355,-0.09164 0.202571,-0.136253 0.129019,-0.04582 0.34606,-0.04582 0.229098,0 0.337618,0.03497 0.109726,0.03497 0.182073,0.10852 0.07355,0.07355 0.121784,0.198954 l -0.465431,0.04582 q -0.01809,-0.06149 -0.06029,-0.09043 -0.05788,-0.03858 -0.139871,-0.03858 -0.0832,0 -0.121784,0.03015 -0.03738,0.02894 -0.03738,0.07114 0,0.04703 0.04823,0.07114 0.04823,0.02412 0.209806,0.04341 0.244774,0.02773 0.364146,0.07717 0.119372,0.04944 0.182073,0.141077 0.06391,0.09164 0.06391,0.201365 0,0.110932 -0.06752,0.215835 -0.06632,0.104903 -0.211012,0.167603 -0.143488,0.0615 -0.391879,0.0615 -0.350882,0 -0.500399,-0.10008 -0.148311,-0.100079 -0.190514,-0.284564 z" />
    </g>
    <g
       style="font-style:normal;font-variant:normal;font-weight:normal;font-stretch:normal;font-size:2.82222px;line-height:1.25;font-family:'Arial Black';-inkscape-font-specification:'Arial Black, Normal';font-variant-ligatures:normal;font-variant-caps:normal;font-variant-numeric:normal;font-variant-east-asian:normal;display:inline;stroke-width:0.264583"
       id="text406"
       aria-label="phase">
      <path
         id="path575"
         style="font-style:normal;font-variant:normal;font-weight:normal;font-stretch:normal;font-size:2.46944px;font-family:'Arial Black';-inkscape-font-specification:'Arial Black, Normal';font-variant-ligatures:normal;font-variant-caps:normal;font-variant-numeric:normal;font-variant-east-asian:normal;stroke-width:0.264583"
         d="M 3.6813153,100.46243 V 98.694756 H 4.140718 v 0.189308 q 0.095257,-0.119372 0.1748383,-0.161575 0.1073145,-0.05667 0.2375389,-0.05667 0.2568314,0 0.396702,0.196542 0.1410764,0.196542 0.1410764,0.48593 0,0.319532 -0.1531342,0.488341 -0.1531342,0.167599 -0.3870558,0.167599 -0.1133434,0 -0.2073944,-0.03858 -0.092845,-0.03858 -0.1663978,-0.114549 v 0.611329 z m 0.4919588,-1.123786 q 0,0.151928 0.063906,0.225481 0.063906,0.07355 0.1615747,0.07355 0.08561,0 0.1434879,-0.06994 0.057878,-0.07114 0.057878,-0.239951 0,-0.155545 -0.060289,-0.227892 -0.060289,-0.07355 -0.1471053,-0.07355 -0.094051,0 -0.1567516,0.07355 -0.062701,0.07355 -0.062701,0.238745 z" />
      <path
         id="path577"
         style="font-style:normal;font-variant:normal;font-weight:normal;font-stretch:normal;font-size:2.46944px;font-family:'Arial Black';-inkscape-font-specification:'Arial Black, Normal';font-variant-ligatures:normal;font-variant-caps:normal;font-variant-numeric:normal;font-variant-east-asian:normal;stroke-width:0.264583"
         d="m 5.3284125,98.207621 h 0.490753 v 0.651122 q 0.1000798,-0.103698 0.1989539,-0.148312 0.098874,-0.04461 0.2339215,-0.04461 0.2001597,0 0.3147089,0.121783 0.115755,0.121784 0.115755,0.373793 v 0.813902 H 6.1893403 V 99.27112 q 0,-0.120578 -0.044614,-0.170015 -0.044614,-0.05064 -0.1254013,-0.05064 -0.089228,0 -0.1446937,0.06752 -0.055466,0.06752 -0.055466,0.242362 v 0.614948 h -0.490753 z" />
      <path
         id="path579"
         style="font-style:normal;font-variant:normal;font-weight:normal;font-stretch:normal;font-size:2.46944px;font-family:'Arial Black';-inkscape-font-specification:'Arial Black, Normal';font-variant-ligatures:normal;font-variant-caps:normal;font-variant-numeric:normal;font-variant-east-asian:normal;stroke-width:0.264583"
         d="m 7.425266,99.109545 -0.4690489,-0.04944 q 0.026527,-0.12299 0.075964,-0.192925 0.050643,-0.07114 0.1446937,-0.12299 0.067524,-0.03738 0.1856903,-0.05788 0.1181666,-0.0205 0.2556256,-0.0205 0.220658,0 0.3544997,0.02532 0.1338417,0.02412 0.2230696,0.102491 0.062701,0.05426 0.098874,0.15434 0.036174,0.09887 0.036174,0.189308 v 0.565511 q 0,0.09043 0.010852,0.142283 0.012058,0.05064 0.050643,0.130224 H 7.9316942 q -0.027733,-0.04944 -0.036174,-0.07476 -0.00844,-0.02653 -0.016881,-0.08199 -0.096463,0.09285 -0.1917192,0.132636 -0.1302244,0.05305 -0.3026511,0.05305 -0.2290985,0 -0.3484708,-0.106104 -0.1181666,-0.106109 -0.1181666,-0.261655 0,-0.145899 0.085611,-0.23995 0.08561,-0.09405 0.3159147,-0.139871 0.2761239,-0.05547 0.358117,-0.07717 0.081993,-0.02291 0.1736325,-0.05908 0,-0.09043 -0.037379,-0.126607 -0.037379,-0.03617 -0.1314302,-0.03617 -0.1205781,0 -0.1808671,0.03858 -0.047025,0.03014 -0.075964,0.113343 z m 0.4256408,0.258037 q -0.1012856,0.03617 -0.2110117,0.06391 -0.1495169,0.03979 -0.1893077,0.07837 -0.040996,0.03979 -0.040996,0.09043 0,0.05788 0.039791,0.09526 0.040997,0.03617 0.1193723,0.03617 0.081993,0 0.1519284,-0.03979 0.071141,-0.03979 0.1000799,-0.09646 0.030144,-0.05788 0.030144,-0.149517 z" />
      <path
         id="path581"
         style="font-style:normal;font-variant:normal;font-weight:normal;font-stretch:normal;font-size:2.46944px;font-family:'Arial Black';-inkscape-font-specification:'Arial Black, Normal';font-variant-ligatures:normal;font-variant-caps:normal;font-variant-numeric:normal;font-variant-east-asian:normal;stroke-width:0.264583"
         d="m 8.5406139,99.620796 0.4871356,-0.04582 q 0.030145,0.08682 0.084405,0.124195 0.05426,0.03738 0.1446938,0.03738 0.098874,0 0.1531342,-0.0422 0.042202,-0.03135 0.042202,-0.07838 0,-0.05305 -0.055466,-0.08199 -0.039791,-0.0205 -0.2110117,-0.05064 -0.2556257,-0.04461 -0.3557055,-0.08199 -0.098874,-0.03858 -0.1676036,-0.129018 -0.067524,-0.09043 -0.067524,-0.206189 0,-0.126607 0.073553,-0.218246 0.073553,-0.09164 0.2025713,-0.136254 0.1290186,-0.04582 0.3460592,-0.04582 0.2290984,0 0.3376187,0.03497 0.1097261,0.03497 0.182073,0.108521 0.073553,0.07355 0.1217839,0.198953 l -0.4654316,0.04582 q -0.018087,-0.0615 -0.060289,-0.09043 -0.057878,-0.03858 -0.1398706,-0.03858 -0.083199,0 -0.1217839,0.03014 -0.037379,0.02894 -0.037379,0.07114 0,0.04703 0.048231,0.07114 0.048231,0.02412 0.2098059,0.04341 0.2447736,0.02773 0.364146,0.07717 0.1193723,0.04944 0.1820729,0.141077 0.063906,0.09164 0.063906,0.201365 0,0.110932 -0.067524,0.215835 -0.066318,0.104903 -0.2110117,0.167604 -0.143488,0.06149 -0.3918789,0.06149 -0.3508824,0 -0.5003993,-0.100079 -0.1483111,-0.10008 -0.1905134,-0.284565 z" />
      <path
         id="path583"
         style="font-style:normal;font-variant:normal;font-weight:normal;font-stretch:normal;font-size:2.46944px;font-family:'Arial Black';-inkscape-font-specification:'Arial Black, Normal';font-variant-ligatures:normal;font-variant-caps:normal;font-variant-numeric:normal;font-variant-east-asian:normal;stroke-width:0.264583"
         d="m 11.558684,99.45681 h -0.983917 q 0.01326,0.118167 0.06391,0.176044 0.07114,0.0832 0.18569,0.0832 0.07235,0 0.137459,-0.03617 0.03979,-0.02291 0.08561,-0.08079 l 0.483518,0.04461 q -0.110932,0.192925 -0.267683,0.27733 -0.156752,0.08319 -0.449757,0.08319 -0.25442,0 -0.400319,-0.07114 -0.1459,-0.07235 -0.242362,-0.227893 -0.09526,-0.156752 -0.09526,-0.367763 0,-0.30024 0.191719,-0.48593 0.192925,-0.18569 0.53175,-0.18569 0.274918,0 0.434081,0.0832 0.159163,0.0832 0.242362,0.241157 0.0832,0.157957 0.0832,0.411171 z m -0.499193,-0.235127 q -0.01447,-0.142282 -0.07717,-0.203777 -0.0615,-0.06149 -0.162781,-0.06149 -0.116961,0 -0.186896,0.09284 -0.04461,0.05788 -0.05667,0.172427 z" />
    </g>
    <path
       id="path438"
       d="m -0.18898809,33.828868 c 15.49702409,0 15.49702409,0 15.49702409,0"
       style="display:inline;fill:none;stroke:#000000;stroke-width:0.26458300000000001px;stroke-linecap:butt;stroke-linejoin:miter;stroke-opacity:1" />
    <path
       style="display:inline;fill:none;stroke:#000000;stroke-width:0.26458300000000001px;stroke-linecap:butt;stroke-linejoin:miter;stroke-opacity:1"
       d="m -0.12851188,69.547619 c 15.49702388,0 15.49702388,0 15.49702388,0"
       id="path438-6" />
  </g>
  <g
     style="display:none"
     inkscape:label="components"
     id="layer2"
     inkscape:groupmode="layer">
    <circle
       label="input"
       cy="22.111605"
       cx="7.6199999"
       id="path11"
       style="fill:#00ff00;fill-rule:evenodd;stroke-width:0.264583"
       r="4" />
    <circle
       r="4"
       label="real"
       cy="40.821426"
       cx="7.6200004"
       id="path21"
       style="fill:#0000ff;fill-rule:evenodd;stroke-width:0.264583" />
    <circle
       r="4"
       label="imaginary"
       cy="55.751484"
       cx="7.6199985"
       id="path23"
       style="fill:#0000ff;fill-rule:evenodd;stroke-width:0.264583" />
    <circle
       style="display:inline;fill:#0000ff;fill-rule:evenodd;stroke-width:0.264583"
       id="path23-2"
       cx="7.6199999"
       cy="76.729164"
       label="modulus"
       r="4" />
    <circle
       r="4"
       label="phase"
       cy="92.415176"
       cx="7.6200018"
       id="path23-2-9"
       style="display:inline;fill:#0000ff;fill-rule:evenodd;stroke-width:0.264583" />
  </g>
</svg>
