<?xml version="1.0" encoding="UTF-8" standalone="no"?>
<svg
   xmlns:dc="http://purl.org/dc/elements/1.1/"
   xmlns:cc="http://creativecommons.org/ns#"
   xmlns:rdf="http://www.w3.org/1999/02/22-rdf-syntax-ns#"
   xmlns:svg="http://www.w3.org/2000/svg"
   xmlns="http://www.w3.org/2000/svg"
   xmlns:sodipodi="http://sodipodi.sourceforge.net/DTD/sodipodi-0.dtd"
   xmlns:inkscape="http://www.inkscape.org/namespaces/inkscape"
   sodipodi:docname="Wavelet.svg"
   inkscape:version="1.0 (4035a4f, 2020-05-01)"
   id="svg8"
   version="1.1"
   viewBox="0 0 30.48 128.5"
   height="128.5mm"
   width="30.48mm">
  <defs
     id="defs2" />
  <sodipodi:namedview
     inkscape:window-maximized="0"
     inkscape:window-y="143"
     inkscape:window-x="2801"
     inkscape:window-height="1137"
     inkscape:window-width="1434"
     inkscape:showpageshadow="false"
     showgrid="false"
     inkscape:document-rotation="0"
     inkscape:current-layer="layer1"
     inkscape:document-units="mm"
     inkscape:cy="292.85715"
     inkscape:cx="151.42857"
     inkscape:zoom="1.4"
     inkscape:pageshadow="2"
     inkscape:pageopacity="0"
     borderopacity="1"
     bordercolor="#000000"
     pagecolor="#d7d7d7"
     id="base" />
  <metadata
     id="metadata5">
    <rdf:RDF>
      <cc:Work
         rdf:about="">
        <dc:format>image/svg+xml</dc:format>
        <dc:type
           rdf:resource="http://purl.org/dc/dcmitype/StillImage" />
        <dc:title />
      </cc:Work>
    </rdf:RDF>
  </metadata>
  <g
     inkscape:groupmode="layer"
     id="layer3"
     inkscape:label="bg"
     style="display:inline">
    <rect
       style="fill:#a0d4fd;fill-opacity:1;stroke-width:0.266305"
       id="rect45"
       width="30.668987"
       height="128.87186"
       x="0"
       y="-0.24388753" />
    <rect
       ry="2.9261911"
       y="23.090914"
       x="0.47148851"
       height="64.376205"
       width="29.537022"
       id="rect184"
       style="display:inline;fill:none;stroke:#000080;stroke-width:0.338324" />
  </g>
  <g
     id="layer1"
     inkscape:groupmode="layer"
     inkscape:label="details"
     style="display:inline">
    <g
       style="font-style:normal;font-variant:normal;font-weight:bold;font-stretch:normal;font-size:2.82222px;line-height:1.25;font-family:Arial;-inkscape-font-specification:'Arial, Bold';font-variant-ligatures:normal;font-variant-caps:normal;font-variant-numeric:normal;font-variant-east-asian:normal;display:inline;stroke-width:0.264583"
       id="text192"
       aria-label="2">
      <path
         id="path1168"
         style="font-style:normal;font-variant:normal;font-weight:bold;font-stretch:normal;font-size:2.82222px;font-family:Arial;-inkscape-font-specification:'Arial, Bold';font-variant-ligatures:normal;font-variant-caps:normal;font-variant-numeric:normal;font-variant-east-asian:normal;stroke-width:0.264583"
         d="m 28.641931,29.380757 v 0.359668 h -1.357366 q 0.02205,-0.203949 0.132291,-0.38585 0.110243,-0.183279 0.43546,-0.485069 0.261827,-0.243913 0.321083,-0.330729 0.07993,-0.11989 0.07993,-0.237023 0,-0.129535 -0.07028,-0.198437 -0.0689,-0.07028 -0.191547,-0.07028 -0.121267,0 -0.192925,0.07304 -0.07166,0.07304 -0.08268,0.242535 l -0.38585,-0.03858 q 0.03445,-0.319705 0.216352,-0.458887 0.181901,-0.139182 0.454752,-0.139182 0.299034,0 0.469911,0.161231 0.170876,0.16123 0.170876,0.401009 0,0.136425 -0.04961,0.260449 -0.04823,0.122645 -0.15434,0.257693 -0.07028,0.08957 -0.253559,0.257692 -0.183279,0.168121 -0.232888,0.223243 -0.04823,0.05512 -0.07855,0.107486 z" />
    </g>
    <g
       style="font-style:normal;font-variant:normal;font-weight:bold;font-stretch:normal;font-size:2.82222px;line-height:1.25;font-family:Arial;-inkscape-font-specification:'Arial, Bold';font-variant-ligatures:normal;font-variant-caps:normal;font-variant-numeric:normal;font-variant-east-asian:normal;display:inline;stroke-width:0.264583"
       id="text196"
       aria-label="3">
      <path
         id="path1174"
         style="font-style:normal;font-variant:normal;font-weight:bold;font-stretch:normal;font-size:2.82222px;font-family:Arial;-inkscape-font-specification:'Arial, Bold';font-variant-ligatures:normal;font-variant-caps:normal;font-variant-numeric:normal;font-variant-east-asian:normal;stroke-width:0.264583"
         d="m 13.713251,43.172264 0.374826,-0.04547 q 0.01792,0.143316 0.09646,0.219108 0.07855,0.07579 0.190169,0.07579 0.119889,0 0.201194,-0.09095 0.08268,-0.09095 0.08268,-0.24529 0,-0.146072 -0.07855,-0.23151 -0.07855,-0.08544 -0.191547,-0.08544 -0.07441,0 -0.177767,0.02894 l 0.04272,-0.31557 q 0.157096,0.0041 0.239778,-0.06752 0.08268,-0.07304 0.08268,-0.192925 0,-0.101975 -0.06063,-0.162609 -0.06063,-0.06063 -0.16123,-0.06063 -0.09922,0 -0.169499,0.0689 -0.07028,0.0689 -0.08544,0.201194 l -0.356912,-0.06063 q 0.03721,-0.183279 0.111621,-0.292144 0.07579,-0.110243 0.209462,-0.172254 0.135047,-0.06339 0.30179,-0.06339 0.285254,0 0.457508,0.181901 0.141938,0.148828 0.141938,0.336241 0,0.265961 -0.290766,0.424435 0.173633,0.03721 0.276986,0.166743 0.10473,0.129535 0.10473,0.312814 0,0.265961 -0.194303,0.453374 -0.194303,0.187414 -0.483691,0.187414 -0.274229,0 -0.454752,-0.157097 -0.180523,-0.158474 -0.209462,-0.413411 z" />
    </g>
    <g
       style="font-style:normal;font-variant:normal;font-weight:bold;font-stretch:normal;font-size:2.82222px;line-height:1.25;font-family:Arial;-inkscape-font-specification:'Arial, Bold';font-variant-ligatures:normal;font-variant-caps:normal;font-variant-numeric:normal;font-variant-east-asian:normal;display:inline;stroke-width:0.264583"
       id="text200"
       aria-label="4">
      <path
         id="path1171"
         style="font-style:normal;font-variant:normal;font-weight:bold;font-stretch:normal;font-size:2.82222px;font-family:Arial;-inkscape-font-specification:'Arial, Bold';font-variant-ligatures:normal;font-variant-caps:normal;font-variant-numeric:normal;font-variant-east-asian:normal;stroke-width:0.264583"
         d="M 28.471448,43.725548 V 43.319027 H 27.644626 V 42.98003 l 0.876431,-1.282953 h 0.325217 v 1.281575 h 0.250803 v 0.340375 h -0.250803 v 0.406521 z m 0,-0.746896 v -0.690397 l -0.464398,0.690397 z" />
    </g>
    <g
       style="font-style:normal;font-variant:normal;font-weight:bold;font-stretch:normal;font-size:2.82222px;line-height:1.25;font-family:Arial;-inkscape-font-specification:'Arial, Bold';font-variant-ligatures:normal;font-variant-caps:normal;font-variant-numeric:normal;font-variant-east-asian:normal;display:inline;stroke-width:0.264583"
       id="text204"
       aria-label="approx">
      <path
         id="path1177"
         style="font-style:normal;font-variant:normal;font-weight:bold;font-stretch:normal;font-size:2.82222px;font-family:Arial;-inkscape-font-specification:'Arial, Bold';font-variant-ligatures:normal;font-variant-caps:normal;font-variant-numeric:normal;font-variant-east-asian:normal;stroke-width:0.264583"
         d="m 13.532138,56.149348 -0.3514,-0.06339 q 0.05926,-0.212218 0.20395,-0.314193 0.144693,-0.101974 0.429947,-0.101974 0.259071,0 0.385851,0.06201 0.126779,0.06063 0.177766,0.155718 0.05237,0.09371 0.05237,0.345888 l -0.0041,0.451996 q 0,0.192925 0.01791,0.285254 0.01929,0.09095 0.07028,0.195681 h -0.383094 q -0.01516,-0.03858 -0.03721,-0.114377 -0.0096,-0.03445 -0.01378,-0.04548 -0.09922,0.09646 -0.212217,0.144693 -0.112999,0.04823 -0.241157,0.04823 -0.225998,0 -0.356911,-0.122646 -0.129536,-0.122645 -0.129536,-0.310058 0,-0.124023 0.05926,-0.220486 0.05926,-0.09784 0.165364,-0.148828 0.107487,-0.05237 0.30868,-0.09095 0.271474,-0.05099 0.376205,-0.09508 v -0.03858 q 0,-0.111621 -0.05512,-0.158474 -0.05512,-0.04823 -0.208084,-0.04823 -0.103352,0 -0.16123,0.04134 -0.05788,0.03996 -0.09371,0.141937 z m 0.518142,0.314193 q -0.07441,0.02481 -0.235645,0.05926 -0.16123,0.03445 -0.21084,0.06752 -0.07579,0.05374 -0.07579,0.136426 0,0.0813 0.06063,0.14056 0.06063,0.05926 0.15434,0.05926 0.104731,0 0.199816,-0.0689 0.07028,-0.05237 0.09233,-0.128158 0.01516,-0.04961 0.01516,-0.188791 z" />
      <path
         id="path1179"
         style="font-style:normal;font-variant:normal;font-weight:bold;font-stretch:normal;font-size:2.82222px;font-family:Arial;-inkscape-font-specification:'Arial, Bold';font-variant-ligatures:normal;font-variant-caps:normal;font-variant-numeric:normal;font-variant-east-asian:normal;stroke-width:0.264583"
         d="m 14.802688,55.702864 h 0.361046 v 0.214974 q 0.07028,-0.110243 0.190169,-0.179145 0.119889,-0.0689 0.265961,-0.0689 0.254937,0 0.432703,0.199815 0.177767,0.199815 0.177767,0.556727 0,0.366558 -0.179145,0.570507 -0.179144,0.202572 -0.434081,0.202572 -0.121268,0 -0.220486,-0.04823 -0.09784,-0.04823 -0.206706,-0.165364 v 0.73725 h -0.387228 z m 0.383094,0.706933 q 0,0.246669 0.09784,0.36518 0.09784,0.117133 0.2384,0.117133 0.135048,0 0.22462,-0.107486 0.08957,-0.108865 0.08957,-0.355534 0,-0.230132 -0.09233,-0.341753 -0.09233,-0.111621 -0.228754,-0.111621 -0.141938,0 -0.235644,0.110243 -0.09371,0.108865 -0.09371,0.323838 z" />
      <path
         id="path1181"
         style="font-style:normal;font-variant:normal;font-weight:bold;font-stretch:normal;font-size:2.82222px;font-family:Arial;-inkscape-font-specification:'Arial, Bold';font-variant-ligatures:normal;font-variant-caps:normal;font-variant-numeric:normal;font-variant-east-asian:normal;stroke-width:0.264583"
         d="m 16.52799,55.702864 h 0.361046 v 0.214974 q 0.07028,-0.110243 0.190169,-0.179145 0.119889,-0.0689 0.265961,-0.0689 0.254937,0 0.432704,0.199815 0.177767,0.199815 0.177767,0.556727 0,0.366558 -0.179145,0.570507 -0.179145,0.202572 -0.434082,0.202572 -0.121267,0 -0.220486,-0.04823 -0.09784,-0.04823 -0.206705,-0.165364 v 0.73725 H 16.52799 Z m 0.383094,0.706933 q 0,0.246669 0.09784,0.36518 0.09784,0.117133 0.238401,0.117133 0.135047,0 0.22462,-0.107486 0.08957,-0.108865 0.08957,-0.355534 0,-0.230132 -0.09233,-0.341753 -0.09233,-0.111621 -0.228754,-0.111621 -0.141938,0 -0.235644,0.110243 -0.09371,0.108865 -0.09371,0.323838 z" />
      <path
         id="path1183"
         style="font-style:normal;font-variant:normal;font-weight:bold;font-stretch:normal;font-size:2.82222px;font-family:Arial;-inkscape-font-specification:'Arial, Bold';font-variant-ligatures:normal;font-variant-caps:normal;font-variant-numeric:normal;font-variant-east-asian:normal;stroke-width:0.264583"
         d="m 18.635009,57.16634 h -0.387228 v -1.463476 h 0.359667 v 0.208084 q 0.09233,-0.14745 0.165365,-0.194303 0.07441,-0.04685 0.16812,-0.04685 0.132292,0 0.254937,0.07303 l -0.119889,0.33762 q -0.09784,-0.06339 -0.181901,-0.06339 -0.0813,0 -0.137804,0.04547 -0.0565,0.0441 -0.08957,0.16123 -0.03169,0.117134 -0.03169,0.490582 z" />
      <path
         id="path1185"
         style="font-style:normal;font-variant:normal;font-weight:bold;font-stretch:normal;font-size:2.82222px;font-family:Arial;-inkscape-font-specification:'Arial, Bold';font-variant-ligatures:normal;font-variant-caps:normal;font-variant-numeric:normal;font-variant-east-asian:normal;stroke-width:0.264583"
         d="m 19.271662,56.413932 q 0,-0.192926 0.09509,-0.373448 0.09508,-0.180523 0.268717,-0.275608 0.175011,-0.09508 0.389985,-0.09508 0.332107,0 0.544324,0.216351 0.212218,0.214974 0.212218,0.544325 0,0.332107 -0.214974,0.551215 -0.213596,0.21773 -0.538812,0.21773 -0.201194,0 -0.384473,-0.09095 -0.181901,-0.09095 -0.276985,-0.265961 -0.09509,-0.176389 -0.09509,-0.428569 z m 0.396875,0.02067 q 0,0.21773 0.103353,0.333485 0.103353,0.115755 0.254937,0.115755 0.151584,0 0.253559,-0.115755 0.103352,-0.115755 0.103352,-0.336241 0,-0.214974 -0.103352,-0.330729 -0.101975,-0.115755 -0.253559,-0.115755 -0.151584,0 -0.254937,0.115755 -0.103353,0.115755 -0.103353,0.333485 z" />
      <path
         id="path1187"
         style="font-style:normal;font-variant:normal;font-weight:bold;font-stretch:normal;font-size:2.82222px;font-family:Arial;-inkscape-font-specification:'Arial, Bold';font-variant-ligatures:normal;font-variant-caps:normal;font-variant-numeric:normal;font-variant-east-asian:normal;stroke-width:0.264583"
         d="m 20.900502,57.16634 0.527788,-0.753786 -0.505739,-0.70969 h 0.472666 l 0.259071,0.402387 0.272852,-0.402387 h 0.454752 l -0.496093,0.693153 0.541568,0.770323 h -0.475423 l -0.297656,-0.453374 -0.300412,0.453374 z" />
    </g>
    <g
       style="font-style:normal;font-variant:normal;font-weight:bold;font-stretch:normal;font-size:2.82222px;line-height:1.25;font-family:Arial;-inkscape-font-specification:'Arial, Bold';font-variant-ligatures:normal;font-variant-caps:normal;font-variant-numeric:normal;font-variant-east-asian:normal;display:inline;stroke-width:0.264583"
       id="text208"
       aria-label="scale">
      <path
         id="path1209"
         style="font-style:normal;font-variant:normal;font-weight:bold;font-stretch:normal;font-size:2.82222px;font-family:Arial;-inkscape-font-specification:'Arial, Bold';font-variant-ligatures:normal;font-variant-caps:normal;font-variant-numeric:normal;font-variant-east-asian:normal;stroke-width:0.264583"
         d="m 12.917335,74.136288 0.388607,-0.05926 q 0.02481,0.112999 0.100597,0.172255 0.07579,0.05788 0.212217,0.05788 0.150206,0 0.225998,-0.05512 0.05099,-0.03858 0.05099,-0.103353 0,-0.0441 -0.02756,-0.07304 -0.02894,-0.02756 -0.129535,-0.05099 -0.468533,-0.103353 -0.593934,-0.188791 -0.173633,-0.118512 -0.173633,-0.329351 0,-0.190169 0.150206,-0.319705 0.150206,-0.129535 0.465776,-0.129535 0.300413,0 0.446484,0.09784 0.146072,0.09784 0.201194,0.289388 l -0.36518,0.06752 q -0.02343,-0.08544 -0.08957,-0.130914 -0.06477,-0.04547 -0.186035,-0.04547 -0.152962,0 -0.219108,0.04272 -0.0441,0.03032 -0.0441,0.07855 0,0.04134 0.03858,0.07028 0.05236,0.03858 0.361045,0.108865 0.310059,0.07028 0.432704,0.172255 0.121267,0.103353 0.121267,0.28801 0,0.201193 -0.16812,0.345887 -0.168121,0.144694 -0.497472,0.144694 -0.299034,0 -0.474044,-0.121267 -0.173633,-0.121268 -0.227377,-0.329351 z" />
      <path
         id="path1211"
         style="font-style:normal;font-variant:normal;font-weight:bold;font-stretch:normal;font-size:2.82222px;font-family:Arial;-inkscape-font-specification:'Arial, Bold';font-variant-ligatures:normal;font-variant-caps:normal;font-variant-numeric:normal;font-variant-east-asian:normal;stroke-width:0.264583"
         d="m 15.900786,73.523061 -0.381717,0.0689 q -0.01929,-0.114377 -0.08819,-0.172255 -0.06752,-0.05788 -0.176389,-0.05788 -0.144694,0 -0.23151,0.100597 -0.08544,0.09922 -0.08544,0.333485 0,0.260449 0.08682,0.367935 0.08819,0.107487 0.235645,0.107487 0.110242,0 0.180522,-0.06201 0.07028,-0.06339 0.09922,-0.216352 l 0.380338,0.06477 q -0.05926,0.261827 -0.227376,0.395496 -0.16812,0.13367 -0.450618,0.13367 -0.321083,0 -0.51263,-0.202572 -0.190169,-0.202571 -0.190169,-0.560861 0,-0.362423 0.191547,-0.563617 0.191547,-0.202571 0.518142,-0.202571 0.267339,0 0.424436,0.115755 0.158474,0.114377 0.227376,0.350021 z" />
      <path
         id="path1213"
         style="font-style:normal;font-variant:normal;font-weight:bold;font-stretch:normal;font-size:2.82222px;font-family:Arial;-inkscape-font-specification:'Arial, Bold';font-variant-ligatures:normal;font-variant-caps:normal;font-variant-numeric:normal;font-variant-east-asian:normal;stroke-width:0.264583"
         d="m 16.485073,73.536842 -0.351399,-0.06339 q 0.05926,-0.212218 0.20395,-0.314193 0.144693,-0.101974 0.429947,-0.101974 0.259071,0 0.385851,0.06201 0.126779,0.06063 0.177766,0.155719 0.05237,0.09371 0.05237,0.345887 l -0.0041,0.451996 q 0,0.192925 0.01791,0.285254 0.01929,0.09095 0.07028,0.195681 H 17.08452 q -0.01516,-0.03858 -0.03721,-0.114377 -0.0096,-0.03445 -0.01378,-0.04548 -0.09922,0.09646 -0.212217,0.144694 -0.112999,0.04823 -0.241157,0.04823 -0.225998,0 -0.356912,-0.122645 -0.129535,-0.122646 -0.129535,-0.310059 0,-0.124023 0.05926,-0.220486 0.05926,-0.09784 0.165364,-0.148828 0.107487,-0.05236 0.30868,-0.09095 0.271474,-0.05099 0.376204,-0.09508 v -0.03859 q 0,-0.111621 -0.05512,-0.158474 -0.05512,-0.04823 -0.208084,-0.04823 -0.103352,0 -0.16123,0.04134 -0.05788,0.03996 -0.09371,0.141938 z m 0.518142,0.314192 q -0.07441,0.02481 -0.235644,0.05926 -0.16123,0.03445 -0.21084,0.06752 -0.07579,0.05374 -0.07579,0.136426 0,0.0813 0.06063,0.14056 0.06063,0.05926 0.15434,0.05926 0.104731,0 0.199816,-0.0689 0.07028,-0.05237 0.09233,-0.128158 0.01516,-0.04961 0.01516,-0.188791 z" />
      <path
         id="path1215"
         style="font-style:normal;font-variant:normal;font-weight:bold;font-stretch:normal;font-size:2.82222px;font-family:Arial;-inkscape-font-specification:'Arial, Bold';font-variant-ligatures:normal;font-variant-caps:normal;font-variant-numeric:normal;font-variant-east-asian:normal;stroke-width:0.264583"
         d="m 17.766648,74.553833 v -2.020202 h 0.387228 v 2.020202 z" />
      <path
         id="path1217"
         style="font-style:normal;font-variant:normal;font-weight:bold;font-stretch:normal;font-size:2.82222px;font-family:Arial;-inkscape-font-specification:'Arial, Bold';font-variant-ligatures:normal;font-variant-caps:normal;font-variant-numeric:normal;font-variant-east-asian:normal;stroke-width:0.264583"
         d="m 19.396866,74.088056 0.38585,0.06477 q -0.07441,0.212218 -0.235644,0.323839 -0.159852,0.110243 -0.401009,0.110243 -0.381716,0 -0.564995,-0.249425 -0.144694,-0.199815 -0.144694,-0.504361 0,-0.363802 0.190169,-0.56913 0.190169,-0.206705 0.480935,-0.206705 0.326595,0 0.515386,0.216351 0.188791,0.214974 0.180523,0.66008 h -0.970138 q 0.0041,0.172255 0.09371,0.268718 0.08957,0.09508 0.223242,0.09508 0.09095,0 0.152963,-0.04961 0.06201,-0.04961 0.09371,-0.159853 z m 0.02205,-0.391362 q -0.0041,-0.168121 -0.08682,-0.254937 -0.08268,-0.08819 -0.201193,-0.08819 -0.12678,0 -0.209462,0.09233 -0.08268,0.09233 -0.0813,0.250803 z" />
    </g>
    <g
       style="font-style:normal;font-variant:normal;font-weight:bold;font-stretch:normal;font-size:2.82222px;line-height:1.25;font-family:Arial;-inkscape-font-specification:'Arial, Bold';font-variant-ligatures:normal;font-variant-caps:normal;font-variant-numeric:normal;font-variant-east-asian:normal;display:inline;stroke-width:0.264583"
       id="text188"
       aria-label="1">
      <path
         id="path1165"
         style="font-style:normal;font-variant:normal;font-weight:bold;font-stretch:normal;font-size:2.82222px;font-family:Arial;-inkscape-font-specification:'Arial, Bold';font-variant-ligatures:normal;font-variant-caps:normal;font-variant-numeric:normal;font-variant-east-asian:normal;stroke-width:0.264583"
         d="m 14.339864,29.740425 h -0.387228 v -1.459341 q -0.212218,0.198437 -0.500228,0.293522 v -0.3514 q 0.151584,-0.04961 0.329351,-0.187413 0.177767,-0.139182 0.243913,-0.323839 h 0.314192 z" />
    </g>
    <g
       style="font-style:normal;font-variant:normal;font-weight:bold;font-stretch:normal;font-size:2.82222px;line-height:1.25;font-family:Arial;-inkscape-font-specification:'Arial, Bold';font-variant-ligatures:normal;font-variant-caps:normal;font-variant-numeric:normal;font-variant-east-asian:normal;display:inline;stroke-width:0.264583"
       id="text212"
       aria-label="bypass">
      <path
         id="path1220"
         style="font-style:normal;font-variant:normal;font-weight:bold;font-stretch:normal;font-size:2.82222px;font-family:Arial;-inkscape-font-specification:'Arial, Bold';font-variant-ligatures:normal;font-variant-caps:normal;font-variant-numeric:normal;font-variant-east-asian:normal;stroke-width:0.264583"
         d="m 12.917335,78.246765 v -2.020202 h 0.387229 v 0.727603 q 0.179145,-0.203949 0.424435,-0.203949 0.267339,0 0.44235,0.194303 0.175011,0.192925 0.175011,0.555349 0,0.374826 -0.179145,0.577398 -0.177767,0.202571 -0.432704,0.202571 -0.125401,0 -0.248046,-0.06201 -0.121268,-0.06339 -0.209462,-0.186035 v 0.214974 z m 0.384473,-0.763432 q 0,0.227376 0.07166,0.336241 0.100596,0.15434 0.267339,0.15434 0.128157,0 0.21773,-0.108865 0.09095,-0.110243 0.09095,-0.345887 0,-0.250803 -0.09095,-0.361046 -0.09095,-0.111621 -0.232889,-0.111621 -0.139181,0 -0.23151,0.108865 -0.09233,0.107487 -0.09233,0.327973 z" />
      <path
         id="path1222"
         style="font-style:normal;font-variant:normal;font-weight:bold;font-stretch:normal;font-size:2.82222px;font-family:Arial;-inkscape-font-specification:'Arial, Bold';font-variant-ligatures:normal;font-variant-caps:normal;font-variant-numeric:normal;font-variant-east-asian:normal;stroke-width:0.264583"
         d="m 14.475895,76.78329 h 0.412033 l 0.350022,1.03904 0.341753,-1.03904 h 0.401009 l -0.516764,1.408354 -0.09233,0.254937 q -0.05099,0.128157 -0.09784,0.195681 -0.04547,0.06752 -0.106109,0.108865 -0.05926,0.04272 -0.14745,0.06615 -0.08682,0.02343 -0.197059,0.02343 -0.111621,0 -0.219108,-0.02343 l -0.03445,-0.303169 q 0.09095,0.01792 0.163986,0.01792 0.135048,0 0.199816,-0.07993 0.06477,-0.07855 0.09922,-0.201194 z" />
      <path
         id="path1224"
         style="font-style:normal;font-variant:normal;font-weight:bold;font-stretch:normal;font-size:2.82222px;font-family:Arial;-inkscape-font-specification:'Arial, Bold';font-variant-ligatures:normal;font-variant-caps:normal;font-variant-numeric:normal;font-variant-east-asian:normal;stroke-width:0.264583"
         d="m 16.219112,76.78329 h 0.361046 v 0.214973 q 0.07028,-0.110242 0.190169,-0.179144 0.119889,-0.0689 0.265961,-0.0689 0.254937,0 0.432704,0.199815 0.177767,0.199816 0.177767,0.556727 0,0.366558 -0.179145,0.570508 -0.179145,0.202571 -0.434082,0.202571 -0.121267,0 -0.220486,-0.04823 -0.09784,-0.04823 -0.206705,-0.165365 v 0.73725 h -0.387229 z m 0.383094,0.706933 q 0,0.246668 0.09784,0.36518 0.09784,0.117133 0.238401,0.117133 0.135047,0 0.22462,-0.107487 0.08957,-0.108865 0.08957,-0.355534 0,-0.230132 -0.09233,-0.341753 -0.09233,-0.111621 -0.228755,-0.111621 -0.141937,0 -0.235644,0.110243 -0.09371,0.108865 -0.09371,0.323839 z" />
      <path
         id="path1226"
         style="font-style:normal;font-variant:normal;font-weight:bold;font-stretch:normal;font-size:2.82222px;font-family:Arial;-inkscape-font-specification:'Arial, Bold';font-variant-ligatures:normal;font-variant-caps:normal;font-variant-numeric:normal;font-variant-east-asian:normal;stroke-width:0.264583"
         d="m 18.244827,77.229774 -0.3514,-0.06339 q 0.05926,-0.212218 0.20395,-0.314192 0.144694,-0.101975 0.429948,-0.101975 0.259071,0 0.38585,0.06201 0.126779,0.06063 0.177767,0.155719 0.05237,0.09371 0.05237,0.345887 l -0.0041,0.451996 q 0,0.192925 0.01792,0.285254 0.01929,0.09095 0.07028,0.195681 h -0.383094 q -0.01516,-0.03858 -0.03721,-0.114377 -0.0096,-0.03445 -0.01378,-0.04548 -0.09922,0.09646 -0.212218,0.144694 -0.112999,0.04823 -0.241156,0.04823 -0.225999,0 -0.356912,-0.122645 -0.129536,-0.122646 -0.129536,-0.310059 0,-0.124023 0.05926,-0.220486 0.05926,-0.09784 0.165364,-0.148828 0.107487,-0.05236 0.308681,-0.09095 0.271473,-0.05099 0.376204,-0.09508 V 77.2532 q 0,-0.111621 -0.05512,-0.158474 -0.05512,-0.04823 -0.208083,-0.04823 -0.103353,0 -0.161231,0.04134 -0.05788,0.03996 -0.09371,0.141938 z m 0.518142,0.314192 q -0.07441,0.02481 -0.235644,0.05926 -0.161231,0.03445 -0.21084,0.06752 -0.07579,0.05374 -0.07579,0.136425 0,0.0813 0.06063,0.14056 0.06063,0.05926 0.154341,0.05926 0.10473,0 0.199815,-0.0689 0.07028,-0.05237 0.09233,-0.128158 0.01516,-0.04961 0.01516,-0.188791 z" />
      <path
         id="path1228"
         style="font-style:normal;font-variant:normal;font-weight:bold;font-stretch:normal;font-size:2.82222px;font-family:Arial;-inkscape-font-specification:'Arial, Bold';font-variant-ligatures:normal;font-variant-caps:normal;font-variant-numeric:normal;font-variant-east-asian:normal;stroke-width:0.264583"
         d="m 19.389975,77.82922 0.388607,-0.05926 q 0.02481,0.112999 0.100597,0.172255 0.07579,0.05788 0.212217,0.05788 0.150206,0 0.225998,-0.05512 0.05099,-0.03858 0.05099,-0.103353 0,-0.0441 -0.02756,-0.07304 -0.02894,-0.02756 -0.129535,-0.05099 -0.468533,-0.103353 -0.593934,-0.188791 -0.173633,-0.118511 -0.173633,-0.329351 0,-0.190169 0.150206,-0.319705 0.150206,-0.129535 0.465776,-0.129535 0.300413,0 0.446485,0.09784 0.146071,0.09784 0.201193,0.289388 l -0.36518,0.06752 q -0.02343,-0.08544 -0.08957,-0.130913 -0.06477,-0.04548 -0.186035,-0.04548 -0.152962,0 -0.219108,0.04272 -0.0441,0.03032 -0.0441,0.07855 0,0.04134 0.03858,0.07028 0.05237,0.03858 0.361045,0.108865 0.310059,0.07028 0.432704,0.172255 0.121267,0.103353 0.121267,0.28801 0,0.201193 -0.16812,0.345887 -0.168121,0.144694 -0.497472,0.144694 -0.299034,0 -0.474044,-0.121267 -0.173633,-0.121268 -0.227377,-0.329351 z" />
      <path
         id="path1230"
         style="font-style:normal;font-variant:normal;font-weight:bold;font-stretch:normal;font-size:2.82222px;font-family:Arial;-inkscape-font-specification:'Arial, Bold';font-variant-ligatures:normal;font-variant-caps:normal;font-variant-numeric:normal;font-variant-east-asian:normal;stroke-width:0.264583"
         d="m 20.960938,77.82922 0.388607,-0.05926 q 0.0248,0.112999 0.100597,0.172255 0.07579,0.05788 0.212217,0.05788 0.150206,0 0.225998,-0.05512 0.05099,-0.03858 0.05099,-0.103353 0,-0.0441 -0.02756,-0.07304 -0.02894,-0.02756 -0.129536,-0.05099 -0.468532,-0.103353 -0.593934,-0.188791 -0.173632,-0.118511 -0.173632,-0.329351 0,-0.190169 0.150206,-0.319705 0.150206,-0.129535 0.465776,-0.129535 0.300412,0 0.446484,0.09784 0.146072,0.09784 0.201194,0.289388 l -0.36518,0.06752 q -0.02343,-0.08544 -0.08957,-0.130913 -0.06477,-0.04548 -0.186035,-0.04548 -0.152963,0 -0.219108,0.04272 -0.0441,0.03032 -0.0441,0.07855 0,0.04134 0.03859,0.07028 0.05236,0.03858 0.361045,0.108865 0.310059,0.07028 0.432704,0.172255 0.121267,0.103353 0.121267,0.28801 0,0.201193 -0.16812,0.345887 -0.168121,0.144694 -0.497472,0.144694 -0.299034,0 -0.474045,-0.121267 -0.173632,-0.121268 -0.227376,-0.329351 z" />
    </g>
    <g
       style="font-style:normal;font-variant:normal;font-weight:bold;font-stretch:normal;font-size:2.82222px;line-height:1.25;font-family:Arial;-inkscape-font-specification:'Arial, Bold';font-variant-ligatures:normal;font-variant-caps:normal;font-variant-numeric:normal;font-variant-east-asian:normal;display:inline;stroke-width:0.264583"
       id="text216"
       aria-label="threshold">
      <path
         id="path1233"
         style="font-style:normal;font-variant:normal;font-weight:bold;font-stretch:normal;font-size:2.82222px;font-family:Arial;-inkscape-font-specification:'Arial, Bold';font-variant-ligatures:normal;font-variant-caps:normal;font-variant-numeric:normal;font-variant-east-asian:normal;stroke-width:0.264583"
         d="m 13.748292,81.037081 v 0.308681 h -0.264583 v 0.5898 q 0,0.179145 0.0069,0.209461 0.0083,0.02894 0.03445,0.04823 0.02756,0.01929 0.06615,0.01929 0.05374,0 0.155718,-0.03721 l 0.03307,0.300412 q -0.135048,0.05788 -0.305924,0.05788 -0.104731,0 -0.188791,-0.03445 -0.08406,-0.03583 -0.124024,-0.09095 -0.03859,-0.0565 -0.05374,-0.151584 -0.0124,-0.06752 -0.0124,-0.272851 v -0.638031 h -0.177767 v -0.308681 h 0.177767 v -0.290765 l 0.388606,-0.225998 v 0.516763 z" />
      <path
         id="path1235"
         style="font-style:normal;font-variant:normal;font-weight:bold;font-stretch:normal;font-size:2.82222px;font-family:Arial;-inkscape-font-specification:'Arial, Bold';font-variant-ligatures:normal;font-variant-caps:normal;font-variant-numeric:normal;font-variant-east-asian:normal;stroke-width:0.264583"
         d="m 14.405616,80.480354 v 0.742763 q 0.187413,-0.219108 0.447862,-0.219108 0.13367,0 0.241156,0.04961 0.107487,0.04961 0.161231,0.126779 0.05512,0.07717 0.07441,0.170877 0.02067,0.09371 0.02067,0.290766 v 0.858517 h -0.387228 v -0.773079 q 0,-0.230132 -0.02205,-0.292144 -0.02205,-0.06201 -0.07855,-0.09784 -0.05512,-0.03721 -0.139182,-0.03721 -0.09646,0 -0.172254,0.04685 -0.07579,0.04685 -0.111621,0.141938 -0.03445,0.09371 -0.03445,0.278363 v 0.733116 h -0.387229 v -2.020203 z" />
      <path
         id="path1237"
         style="font-style:normal;font-variant:normal;font-weight:bold;font-stretch:normal;font-size:2.82222px;font-family:Arial;-inkscape-font-specification:'Arial, Bold';font-variant-ligatures:normal;font-variant-caps:normal;font-variant-numeric:normal;font-variant-east-asian:normal;stroke-width:0.264583"
         d="m 16.11576,82.500557 h -0.387229 v -1.463476 h 0.359668 v 0.208084 q 0.09233,-0.14745 0.165365,-0.194303 0.07441,-0.04685 0.16812,-0.04685 0.132292,0 0.254937,0.07304 l -0.119889,0.337619 q -0.09784,-0.06339 -0.181901,-0.06339 -0.0813,0 -0.137804,0.04547 -0.0565,0.0441 -0.08957,0.161231 -0.03169,0.117133 -0.03169,0.490581 z" />
      <path
         id="path1239"
         style="font-style:normal;font-variant:normal;font-weight:bold;font-stretch:normal;font-size:2.82222px;font-family:Arial;-inkscape-font-specification:'Arial, Bold';font-variant-ligatures:normal;font-variant-caps:normal;font-variant-numeric:normal;font-variant-east-asian:normal;stroke-width:0.264583"
         d="m 17.689478,82.03478 0.385851,0.06477 q -0.07441,0.212218 -0.235645,0.323839 -0.159852,0.110243 -0.401008,0.110243 -0.381717,0 -0.564996,-0.249425 -0.144694,-0.199815 -0.144694,-0.504361 0,-0.363802 0.19017,-0.56913 0.190169,-0.206705 0.480935,-0.206705 0.326594,0 0.515385,0.216351 0.188792,0.214974 0.180523,0.66008 h -0.970138 q 0.0041,0.172255 0.09371,0.268717 0.08957,0.09508 0.223242,0.09508 0.09095,0 0.152962,-0.04961 0.06201,-0.04961 0.09371,-0.159853 z m 0.02205,-0.391362 q -0.0041,-0.168121 -0.08682,-0.254937 -0.08268,-0.08819 -0.201194,-0.08819 -0.126779,0 -0.209461,0.09233 -0.08268,0.09233 -0.08131,0.250803 z" />
      <path
         id="path1241"
         style="font-style:normal;font-variant:normal;font-weight:bold;font-stretch:normal;font-size:2.82222px;font-family:Arial;-inkscape-font-specification:'Arial, Bold';font-variant-ligatures:normal;font-variant-caps:normal;font-variant-numeric:normal;font-variant-east-asian:normal;stroke-width:0.264583"
         d="m 18.276522,82.083012 0.388607,-0.05926 q 0.0248,0.112999 0.100596,0.172255 0.07579,0.05788 0.212218,0.05788 0.150206,0 0.225998,-0.05512 0.05099,-0.03858 0.05099,-0.103353 0,-0.0441 -0.02756,-0.07304 -0.02894,-0.02756 -0.129536,-0.05099 -0.468532,-0.103353 -0.593934,-0.188791 -0.173633,-0.118512 -0.173633,-0.329351 0,-0.190169 0.150207,-0.319705 0.150206,-0.129535 0.465776,-0.129535 0.300412,0 0.446484,0.09784 0.146072,0.09784 0.201194,0.289388 l -0.36518,0.06752 q -0.02343,-0.08544 -0.08957,-0.130914 -0.06477,-0.04548 -0.186035,-0.04548 -0.152962,0 -0.219108,0.04272 -0.0441,0.03032 -0.0441,0.07855 0,0.04134 0.03859,0.07028 0.05237,0.03859 0.361046,0.108865 0.310058,0.07028 0.432704,0.172255 0.121267,0.103353 0.121267,0.28801 0,0.201193 -0.168121,0.345887 -0.16812,0.144694 -0.497471,0.144694 -0.299034,0 -0.474045,-0.121267 -0.173633,-0.121268 -0.227376,-0.329351 z" />
      <path
         id="path1243"
         style="font-style:normal;font-variant:normal;font-weight:bold;font-stretch:normal;font-size:2.82222px;font-family:Arial;-inkscape-font-specification:'Arial, Bold';font-variant-ligatures:normal;font-variant-caps:normal;font-variant-numeric:normal;font-variant-east-asian:normal;stroke-width:0.264583"
         d="m 20.369761,80.480354 v 0.742763 q 0.187413,-0.219108 0.447862,-0.219108 0.133669,0 0.241156,0.04961 0.107487,0.04961 0.16123,0.126779 0.05512,0.07717 0.07441,0.170877 0.02067,0.09371 0.02067,0.290766 v 0.858517 h -0.387228 v -0.773079 q 0,-0.230132 -0.02205,-0.292144 -0.02205,-0.06201 -0.07855,-0.09784 -0.05512,-0.03721 -0.139182,-0.03721 -0.09646,0 -0.172255,0.04685 -0.07579,0.04685 -0.111621,0.141938 -0.03445,0.09371 -0.03445,0.278363 v 0.733116 h -0.387229 v -2.020203 z" />
      <path
         id="path1245"
         style="font-style:normal;font-variant:normal;font-weight:bold;font-stretch:normal;font-size:2.82222px;font-family:Arial;-inkscape-font-specification:'Arial, Bold';font-variant-ligatures:normal;font-variant-caps:normal;font-variant-numeric:normal;font-variant-east-asian:normal;stroke-width:0.264583"
         d="m 21.61964,81.748149 q 0,-0.192926 0.09509,-0.373448 0.09508,-0.180523 0.268717,-0.275608 0.175011,-0.09508 0.389985,-0.09508 0.332107,0 0.544324,0.216351 0.212218,0.214974 0.212218,0.544325 0,0.332107 -0.214974,0.551215 -0.213595,0.21773 -0.538812,0.21773 -0.201194,0 -0.384473,-0.09095 -0.1819,-0.09095 -0.276985,-0.265961 -0.09509,-0.176389 -0.09509,-0.428569 z m 0.396875,0.02067 q 0,0.21773 0.103353,0.333485 0.103353,0.115755 0.254937,0.115755 0.151584,0 0.253559,-0.115755 0.103352,-0.115755 0.103352,-0.336241 0,-0.214974 -0.103352,-0.330729 -0.101975,-0.115755 -0.253559,-0.115755 -0.151584,0 -0.254937,0.115755 -0.103353,0.115755 -0.103353,0.333485 z" />
      <path
         id="path1247"
         style="font-style:normal;font-variant:normal;font-weight:bold;font-stretch:normal;font-size:2.82222px;font-family:Arial;-inkscape-font-specification:'Arial, Bold';font-variant-ligatures:normal;font-variant-caps:normal;font-variant-numeric:normal;font-variant-east-asian:normal;stroke-width:0.264583"
         d="m 23.434516,82.500557 v -2.020203 h 0.387228 v 2.020203 z" />
      <path
         id="path1249"
         style="font-style:normal;font-variant:normal;font-weight:bold;font-stretch:normal;font-size:2.82222px;font-family:Arial;-inkscape-font-specification:'Arial, Bold';font-variant-ligatures:normal;font-variant-caps:normal;font-variant-numeric:normal;font-variant-east-asian:normal;stroke-width:0.264583"
         d="M 25.559448,82.500557 H 25.19978 v -0.214974 q -0.08957,0.125402 -0.212217,0.187413 -0.121268,0.06063 -0.245291,0.06063 -0.252181,0 -0.432704,-0.202572 -0.179144,-0.203949 -0.179144,-0.567751 0,-0.37207 0.17501,-0.564995 0.175011,-0.194303 0.44235,-0.194303 0.245291,0 0.424436,0.203949 v -0.727604 h 0.387228 z M 24.52592,81.737124 q 0,0.234267 0.06477,0.338998 0.09371,0.151584 0.261827,0.151584 0.13367,0 0.227376,-0.112999 0.09371,-0.114378 0.09371,-0.340376 0,-0.25218 -0.09095,-0.362423 -0.09095,-0.111621 -0.232888,-0.111621 -0.137804,0 -0.23151,0.110243 -0.09233,0.108864 -0.09233,0.326594 z" />
    </g>
    <g
       style="font-size:3.52777px;line-height:1.25;font-family:'Arial Black';-inkscape-font-specification:'Arial Black, Normal';display:inline;stroke-width:0.264583"
       id="text220"
       aria-label="algorithm">
      <path
         id="path1190"
         style="stroke-width:0.264583"
         d="m 6.912361,68.575416 -0.6700696,-0.07062 q 0.037896,-0.1757 0.1085202,-0.275607 0.072347,-0.101631 0.2067053,-0.1757 0.096462,-0.0534 0.2652718,-0.08268 0.1688093,-0.02928 0.3651793,-0.02928 0.3152256,0 0.5064279,0.03617 0.1912024,0.03445 0.3186707,0.146416 0.089572,0.07751 0.1412486,0.220486 0.051676,0.141249 0.051676,0.270439 v 0.807874 q 0,0.12919 0.015503,0.20326 0.017225,0.07235 0.072347,0.186034 H 7.6358294 q -0.039619,-0.07062 -0.051676,-0.106797 -0.012058,-0.0379 -0.024116,-0.117133 -0.1378035,0.132636 -0.2738845,0.18948 -0.1860347,0.07579 -0.4323585,0.07579 -0.3272834,0 -0.4978152,-0.151584 Q 6.18717,69.550376 6.18717,69.328168 q 0,-0.208428 0.1223006,-0.342787 0.1223006,-0.134358 0.4513065,-0.199815 0.3944626,-0.07924 0.5115956,-0.110243 0.117133,-0.03273 0.2480463,-0.0844 0,-0.129191 -0.053399,-0.180867 -0.053399,-0.05168 -0.1877573,-0.05168 -0.1722544,0 -0.2583816,0.05512 -0.067179,0.04306 -0.1085202,0.161919 z m 0.608058,0.368624 q -0.1446937,0.05168 -0.3014452,0.0913 -0.2135955,0.05684 -0.2704394,0.111965 -0.058566,0.05684 -0.058566,0.129191 0,0.08268 0.056844,0.136081 0.058566,0.05168 0.1705318,0.05168 0.117133,0 0.2170405,-0.05684 0.1016301,-0.05684 0.1429712,-0.137804 0.043064,-0.08268 0.043064,-0.213595 z" />
      <path
         id="path1192"
         style="stroke-width:0.264583"
         d="m 8.6538528,67.286953 h 0.702798 v 2.525249 h -0.702798 z" />
      <path
         id="path1194"
         style="stroke-width:0.264583"
         d="m 11.080917,67.982861 h 0.65629 v 1.727711 l 0.0017,0.08096 q 0,0.172254 -0.07407,0.327283 -0.07235,0.156752 -0.194648,0.253214 -0.120578,0.09646 -0.308335,0.139526 -0.186035,0.04306 -0.427191,0.04306 -0.551214,0 -0.7579194,-0.165364 -0.2049828,-0.165365 -0.2049828,-0.442694 0,-0.03445 0.00345,-0.09302 l 0.6804051,0.07751 q 0.02584,0.09474 0.07924,0.130913 0.07751,0.0534 0.194647,0.0534 0.151584,0 0.225654,-0.08096 0.07579,-0.08096 0.07579,-0.282498 v -0.277329 q -0.103352,0.1223 -0.206705,0.177422 -0.161919,0.08613 -0.349676,0.08613 -0.366902,0 -0.5925553,-0.320393 -0.1601966,-0.227376 -0.1601966,-0.601168 0,-0.427191 0.2067052,-0.651122 0.2067057,-0.22393 0.5408787,-0.22393 0.213596,0 0.351399,0.07235 0.139526,0.07235 0.260104,0.239433 z m -0.659734,0.88711 q 0,0.198092 0.08441,0.294555 0.0844,0.09474 0.222208,0.09474 0.130913,0 0.218763,-0.09819 0.08957,-0.09991 0.08957,-0.299723 0,-0.199815 -0.09302,-0.30489 -0.09302,-0.106798 -0.227376,-0.106798 -0.134358,0 -0.215318,0.09819 -0.07924,0.09646 -0.07924,0.322116 z" />
      <path
         id="path1196"
         style="stroke-width:0.264583"
         d="m 12.07827,68.902699 q 0,-0.418578 0.282497,-0.689017 0.282497,-0.272162 0.763087,-0.272162 0.549492,0 0.830266,0.31867 0.225654,0.256659 0.225654,0.632174 0,0.422023 -0.280775,0.692463 -0.279052,0.268717 -0.773422,0.268717 -0.440972,0 -0.713134,-0.223931 -0.334173,-0.27733 -0.334173,-0.726914 z m 0.702798,-0.0017 q 0,0.244601 0.09819,0.361734 0.09991,0.117133 0.249769,0.117133 0.151584,0 0.248046,-0.115411 0.09819,-0.11541 0.09819,-0.370346 0,-0.237712 -0.09819,-0.353122 -0.09818,-0.117133 -0.242879,-0.117133 -0.153306,0 -0.253214,0.118856 -0.09991,0.117133 -0.09991,0.358289 z" />
      <path
         id="path1198"
         style="stroke-width:0.264583"
         d="m 14.527728,67.982861 h 0.656289 v 0.299722 q 0.09474,-0.194647 0.194648,-0.266994 0.10163,-0.07407 0.249768,-0.07407 0.155029,0 0.339342,0.09646 l -0.217041,0.499538 q -0.124023,-0.05168 -0.19637,-0.05168 -0.137804,0 -0.213595,0.113688 -0.108521,0.160196 -0.108521,0.599445 v 0.613225 h -0.70452 z" />
      <path
         id="path1200"
         style="stroke-width:0.264583"
         d="m 16.110746,67.286953 h 0.701075 v 0.477145 h -0.701075 z m 0,0.695908 h 0.701075 v 1.829341 h -0.701075 z" />
      <path
         id="path1202"
         style="stroke-width:0.264583"
         d="m 18.108896,67.286953 v 0.695908 h 0.38585 v 0.511595 h -0.38585 v 0.649399 q 0,0.117133 0.02239,0.155029 0.03445,0.05857 0.120578,0.05857 0.07751,0 0.217041,-0.04479 l 0.05168,0.484035 q -0.260104,0.05684 -0.485757,0.05684 -0.261827,0 -0.38585,-0.06718 -0.124023,-0.06718 -0.184312,-0.20326 -0.05857,-0.137803 -0.05857,-0.444416 v -0.644232 h -0.258381 v -0.511595 h 0.258381 v -0.335896 z" />
      <path
         id="path1204"
         style="stroke-width:0.264583"
         d="m 18.827197,67.286953 h 0.701075 v 0.930174 q 0.142971,-0.148139 0.28422,-0.211873 0.141249,-0.06373 0.334174,-0.06373 0.285942,0 0.449584,0.173977 0.165364,0.173977 0.165364,0.533988 v 1.162717 h -0.704521 v -1.005965 q 0,-0.172255 -0.06373,-0.242879 -0.06373,-0.07235 -0.179144,-0.07235 -0.127469,0 -0.206706,0.09646 -0.07924,0.09646 -0.07924,0.346231 v 0.878497 h -0.701075 z" />
      <path
         id="path1206"
         style="stroke-width:0.264583"
         d="m 21.188805,67.982861 h 0.654567 v 0.266994 q 0.141248,-0.167087 0.28422,-0.237711 0.144693,-0.07062 0.347953,-0.07062 0.218764,0 0.346232,0.07751 0.127468,0.07751 0.208428,0.230821 0.165364,-0.179144 0.301445,-0.242879 0.136081,-0.06546 0.335896,-0.06546 0.294555,0 0.459919,0.175699 0.165364,0.173977 0.165364,0.546047 v 1.148936 h -0.702798 v -1.042139 q 0,-0.124023 -0.04823,-0.184312 -0.07062,-0.09474 -0.175699,-0.09474 -0.124023,0 -0.199815,0.08957 -0.07579,0.08957 -0.07579,0.287664 v 0.943954 h -0.702798 v -1.007688 q 0,-0.120578 -0.01378,-0.163641 -0.02239,-0.0689 -0.07751,-0.110243 -0.05512,-0.04306 -0.129191,-0.04306 -0.120578,0 -0.198092,0.0913 -0.07752,0.0913 -0.07752,0.299723 v 0.933618 h -0.702798 z" />
    </g>
    <g
       transform="translate(0,-5.2916669)"
       aria-label="Meromorph"
       id="text123"
       style="font-style:normal;font-variant:normal;font-weight:bold;font-stretch:normal;font-size:3.52777px;line-height:1.25;font-family:Courier;-inkscape-font-specification:'Courier, Bold';font-variant-ligatures:normal;font-variant-caps:normal;font-variant-numeric:normal;font-variant-east-asian:normal;display:inline;stroke-width:0.264583">
      <path
         d="m 6.8632683,124.98413 0.3290059,-0.97668 q 0.031006,-0.0965 0.086127,-0.13953 0.055121,-0.0448 0.1464163,-0.0448 h 0.2687168 q 0.117133,0 0.1670868,0.0448 0.051676,0.0448 0.051676,0.14642 0,0.093 -0.049954,0.14125 -0.048231,0.0482 -0.1412486,0.0482 h -0.027561 l 0.048231,1.28502 h 0.029283 q 0.093017,0 0.1395261,0.0482 0.046509,0.0465 0.046509,0.1378 0,0.10163 -0.049954,0.14642 -0.048231,0.0448 -0.1653643,0.0448 H 7.3541934 q -0.117133,0 -0.1670868,-0.0431 -0.048231,-0.0448 -0.048231,-0.14814 0,-0.0913 0.046509,-0.1378 0.048231,-0.0482 0.1412487,-0.0482 h 0.027561 l -0.024116,-1.05076 -0.2514914,0.78204 q -0.027561,0.0879 -0.079237,0.12747 -0.049954,0.0379 -0.1395261,0.0379 -0.089572,0 -0.1429711,-0.0379 -0.051676,-0.0396 -0.079237,-0.12747 l -0.2497689,-0.78204 -0.024116,1.05076 h 0.027561 q 0.093017,0 0.139526,0.0482 0.048231,0.0465 0.048231,0.1378 0,0.10163 -0.049954,0.14642 -0.049954,0.0448 -0.1653642,0.0448 h -0.389295 q -0.1154104,0 -0.1653642,-0.0448 -0.049954,-0.0448 -0.049954,-0.14642 0,-0.0913 0.046509,-0.1378 0.048231,-0.0482 0.1412486,-0.0482 H 5.974436 L 6.02439,124.20377 H 5.996829 q -0.093017,0 -0.1429711,-0.0482 -0.048231,-0.0482 -0.048231,-0.14125 0,-0.10163 0.049954,-0.14642 0.051676,-0.0448 0.1688093,-0.0448 h 0.2687169 q 0.089572,0 0.1429711,0.0431 0.055121,0.0431 0.089572,0.14125 z"
         style="font-style:normal;font-variant:normal;font-weight:bold;font-stretch:normal;font-size:3.52777px;font-family:Courier;-inkscape-font-specification:'Courier, Bold';font-variant-ligatures:normal;font-variant-caps:normal;font-variant-numeric:normal;font-variant-east-asian:normal;stroke-width:0.264583"
         id="path135" />
      <path
         d="m 8.5065752,125.17189 q 0.044786,0.1912 0.1722544,0.28594 0.1291908,0.0947 0.3427863,0.0947 0.2135954,0 0.4220233,-0.10335 0.2084278,-0.10508 0.2514914,-0.10508 0.063734,0 0.1033526,0.0482 0.041341,0.0465 0.041341,0.12058 0,0.16192 -0.2394336,0.27905 -0.2394336,0.11714 -0.5925552,0.11714 -0.4168556,0 -0.6786823,-0.23427 -0.2601041,-0.23426 -0.2601041,-0.60289 0,-0.3669 0.2601041,-0.60117 0.2618267,-0.23426 0.6786823,-0.23426 0.3720695,0 0.6166708,0.22048 0.2446012,0.21877 0.2446012,0.53744 0,0.10163 -0.049954,0.13952 -0.048231,0.0379 -0.2015376,0.0379 z m 0.9284512,-0.26872 q -0.029283,-0.1602 -0.1515838,-0.24804 -0.1205781,-0.0879 -0.3152256,-0.0879 -0.1877573,0 -0.3031677,0.0844 -0.1136879,0.0827 -0.1584741,0.25149 z"
         style="font-style:normal;font-variant:normal;font-weight:bold;font-stretch:normal;font-size:3.52777px;font-family:Courier;-inkscape-font-specification:'Courier, Bold';font-variant-ligatures:normal;font-variant-caps:normal;font-variant-numeric:normal;font-variant-east-asian:normal;stroke-width:0.264583"
         id="path137" />
      <path
         d="m 11.012877,124.93073 v 0.55811 h 0.40652 q 0.117133,0 0.165364,0.0431 0.04995,0.0431 0.04995,0.14297 0,0.10163 -0.04995,0.14642 -0.04823,0.0448 -0.165364,0.0448 h -0.962902 q -0.118856,0 -0.168809,-0.0448 -0.04995,-0.0448 -0.04995,-0.14642 0,-0.0999 0.04823,-0.14297 0.04995,-0.0431 0.170532,-0.0431 h 0.130913 v -0.83716 h -0.07407 q -0.117133,0 -0.167087,-0.0431 -0.04823,-0.0448 -0.04823,-0.14642 0,-0.10163 0.04651,-0.14469 0.04823,-0.0431 0.168809,-0.0431 h 0.366902 q 0.04651,0 0.07235,0.0207 0.02584,0.019 0.02584,0.0534 v 0.25494 q 0.187757,-0.20154 0.349676,-0.28767 0.163642,-0.0861 0.351399,-0.0861 0.170532,0 0.27044,0.0775 0.09991,0.0758 0.09991,0.20498 0,0.0999 -0.0689,0.16537 -0.0689,0.0637 -0.177422,0.0637 -0.07751,0 -0.184312,-0.0568 -0.105075,-0.0568 -0.146416,-0.0568 -0.08268,0 -0.194648,0.0741 -0.111965,0.0741 -0.265271,0.2291 z"
         style="font-style:normal;font-variant:normal;font-weight:bold;font-stretch:normal;font-size:3.52777px;font-family:Courier;-inkscape-font-specification:'Courier, Bold';font-variant-ligatures:normal;font-variant-caps:normal;font-variant-numeric:normal;font-variant-east-asian:normal;stroke-width:0.264583"
         id="path139" />
      <path
         d="m 13.205675,124.6 q -0.201538,0 -0.332451,0.13264 -0.129191,0.13091 -0.129191,0.3359 0,0.2067 0.129191,0.34278 0.130913,0.13436 0.332451,0.13436 0.201538,0 0.332451,-0.13436 0.130913,-0.13608 0.130913,-0.34278 0,-0.20499 -0.130913,-0.3359 Q 13.408935,124.6 13.205675,124.6 Z m 0,-0.36345 q 0.418578,0 0.678682,0.23426 0.260105,0.23427 0.260105,0.60117 0,0.36863 -0.260105,0.60289 -0.260104,0.23427 -0.678682,0.23427 -0.416856,0 -0.67696,-0.23427 -0.260104,-0.23426 -0.260104,-0.60289 0,-0.3669 0.260104,-0.60117 0.261827,-0.23426 0.67696,-0.23426 z"
         style="font-style:normal;font-variant:normal;font-weight:bold;font-stretch:normal;font-size:3.52777px;font-family:Courier;-inkscape-font-specification:'Courier, Bold';font-variant-ligatures:normal;font-variant-caps:normal;font-variant-numeric:normal;font-variant-east-asian:normal;stroke-width:0.264583"
         id="path141" />
      <path
         d="m 15.431202,124.39158 q 0.07235,-0.0775 0.167087,-0.11714 0.09474,-0.0413 0.20326,-0.0413 0.234266,0 0.337618,0.13953 0.103353,0.1378 0.103353,0.46336 v 0.65285 h 0.02412 q 0.08096,0 0.120578,0.0482 0.04134,0.0465 0.04134,0.1378 0,0.10335 -0.04306,0.14814 -0.04134,0.0431 -0.142971,0.0431 h -0.292832 q -0.04651,0 -0.07235,-0.0189 -0.02584,-0.0207 -0.02584,-0.0551 v -0.97323 q 0,-0.11541 -0.03617,-0.17226 -0.03617,-0.0568 -0.105075,-0.0568 -0.08613,0 -0.134358,0.0775 -0.04651,0.0758 -0.04651,0.21877 v 0.60289 h 0.02584 q 0.07924,0 0.120578,0.0482 0.04134,0.0465 0.04134,0.1378 0,0.10335 -0.04306,0.14814 -0.04306,0.0431 -0.144694,0.0431 h -0.292833 q -0.04651,0 -0.07407,-0.0189 -0.02756,-0.0207 -0.02756,-0.0551 V 124.819 q 0,-0.11541 -0.03445,-0.17226 -0.03445,-0.0568 -0.103352,-0.0568 -0.08613,0 -0.136081,0.0775 -0.04823,0.0775 -0.04823,0.21877 v 0.60289 h 0.02584 q 0.08096,0 0.120578,0.0465 0.04134,0.0465 0.04134,0.13952 0,0.10335 -0.04306,0.14814 -0.04306,0.0431 -0.144693,0.0431 h -0.391018 q -0.09991,0 -0.142971,-0.0448 -0.04306,-0.0448 -0.04306,-0.14642 0,-0.0913 0.03962,-0.1378 0.04134,-0.0482 0.122301,-0.0482 h 0.02412 v -0.83716 h -0.02412 q -0.08096,0 -0.124024,-0.0482 -0.04134,-0.0499 -0.04134,-0.14125 0,-0.0999 0.04306,-0.14297 0.04479,-0.0448 0.146416,-0.0448 h 0.232544 q 0.07062,0 0.09474,0.0293 0.02584,0.0276 0.02584,0.10852 0.06373,-0.0879 0.153306,-0.13264 0.08957,-0.0465 0.199815,-0.0465 0.09991,0 0.173977,0.0396 0.07407,0.0379 0.129191,0.11886 z"
         style="font-style:normal;font-variant:normal;font-weight:bold;font-stretch:normal;font-size:3.52777px;font-family:Courier;-inkscape-font-specification:'Courier, Bold';font-variant-ligatures:normal;font-variant-caps:normal;font-variant-numeric:normal;font-variant-east-asian:normal;stroke-width:0.264583"
         id="path143" />
      <path
         d="m 17.436243,124.6 q -0.201538,0 -0.332451,0.13264 -0.129191,0.13091 -0.129191,0.3359 0,0.2067 0.129191,0.34278 0.130913,0.13436 0.332451,0.13436 0.201538,0 0.332451,-0.13436 0.130913,-0.13608 0.130913,-0.34278 0,-0.20499 -0.130913,-0.3359 Q 17.639503,124.6 17.436243,124.6 Z m 0,-0.36345 q 0.418578,0 0.678682,0.23426 0.260105,0.23427 0.260105,0.60117 0,0.36863 -0.260105,0.60289 -0.260104,0.23427 -0.678682,0.23427 -0.416856,0 -0.67696,-0.23427 -0.260104,-0.23426 -0.260104,-0.60289 0,-0.3669 0.260104,-0.60117 0.261827,-0.23426 0.67696,-0.23426 z"
         style="font-style:normal;font-variant:normal;font-weight:bold;font-stretch:normal;font-size:3.52777px;font-family:Courier;-inkscape-font-specification:'Courier, Bold';font-variant-ligatures:normal;font-variant-caps:normal;font-variant-numeric:normal;font-variant-east-asian:normal;stroke-width:0.264583"
         id="path145" />
      <path
         d="m 19.474013,124.93073 v 0.55811 h 0.40652 q 0.117133,0 0.165364,0.0431 0.04995,0.0431 0.04995,0.14297 0,0.10163 -0.04995,0.14642 -0.04823,0.0448 -0.165364,0.0448 h -0.962902 q -0.118856,0 -0.168809,-0.0448 -0.04995,-0.0448 -0.04995,-0.14642 0,-0.0999 0.04823,-0.14297 0.04995,-0.0431 0.170532,-0.0431 h 0.130913 v -0.83716 h -0.07407 q -0.117133,0 -0.167087,-0.0431 -0.04823,-0.0448 -0.04823,-0.14642 0,-0.10163 0.04651,-0.14469 0.04823,-0.0431 0.16881,-0.0431 h 0.366902 q 0.04651,0 0.07235,0.0207 0.02584,0.019 0.02584,0.0534 v 0.25494 q 0.187757,-0.20154 0.349676,-0.28767 0.163642,-0.0861 0.351399,-0.0861 0.170532,0 0.270439,0.0775 0.09991,0.0758 0.09991,0.20498 0,0.0999 -0.0689,0.16537 -0.0689,0.0637 -0.177422,0.0637 -0.07751,0 -0.184312,-0.0568 -0.105075,-0.0568 -0.146416,-0.0568 -0.08268,0 -0.194648,0.0741 -0.111965,0.0741 -0.265271,0.2291 z"
         style="font-style:normal;font-variant:normal;font-weight:bold;font-stretch:normal;font-size:3.52777px;font-family:Courier;-inkscape-font-specification:'Courier, Bold';font-variant-ligatures:normal;font-variant-caps:normal;font-variant-numeric:normal;font-variant-east-asian:normal;stroke-width:0.264583"
         id="path147" />
      <path
         d="m 21.339528,125.70415 v 0.46854 h 0.218763 q 0.117133,0 0.167086,0.0448 0.05168,0.0448 0.05168,0.14642 0,0.0999 -0.04995,0.14297 -0.04995,0.0431 -0.168809,0.0431 h -0.730359 q -0.118855,0 -0.167087,-0.0431 -0.04823,-0.0413 -0.04823,-0.14297 0,-0.10163 0.04823,-0.14642 0.04995,-0.0448 0.167087,-0.0448 h 0.10163 v -1.52101 h -0.02756 q -0.09129,0 -0.139526,-0.0482 -0.04823,-0.0482 -0.04823,-0.14125 0,-0.10163 0.04823,-0.14469 0.04823,-0.0431 0.167087,-0.0431 h 0.265272 q 0.04995,0 0.07407,0.019 0.02412,0.0172 0.02412,0.0517 v 0.12402 q 0.08785,-0.11713 0.211873,-0.1757 0.125746,-0.0603 0.282497,-0.0603 0.353122,0 0.585665,0.22566 0.232543,0.22565 0.232543,0.56843 0,0.35829 -0.225653,0.59428 -0.225653,0.23427 -0.568439,0.23427 -0.139526,0 -0.261827,-0.0379 -0.120578,-0.0396 -0.21015,-0.11369 z M 21.737435,124.6 q -0.170532,0 -0.280774,0.12575 -0.110243,0.12575 -0.110243,0.32212 0,0.19637 0.110243,0.32211 0.110242,0.12575 0.280774,0.12575 0.170532,0 0.280775,-0.12575 0.111965,-0.12747 0.111965,-0.32211 0,-0.19637 -0.110242,-0.32212 Q 21.90969,124.6 21.737435,124.6 Z"
         style="font-style:normal;font-variant:normal;font-weight:bold;font-stretch:normal;font-size:3.52777px;font-family:Courier;-inkscape-font-specification:'Courier, Bold';font-variant-ligatures:normal;font-variant-caps:normal;font-variant-numeric:normal;font-variant-east-asian:normal;stroke-width:0.264583"
         id="path149" />
      <path
         d="m 23.504765,124.44842 q 0.06029,-0.10508 0.170532,-0.1602 0.110243,-0.0551 0.263549,-0.0551 0.272162,0 0.418579,0.15848 0.148138,0.15847 0.148138,0.45475 v 0.64251 h 0.02928 q 0.0913,0 0.137803,0.0482 0.04823,0.0465 0.04823,0.1378 0,0.10163 -0.04995,0.14642 -0.04823,0.0448 -0.165365,0.0448 h -0.42719 q -0.115411,0 -0.165365,-0.0448 -0.04823,-0.0448 -0.04823,-0.14642 0,-0.093 0.04651,-0.13952 0.04651,-0.0465 0.139526,-0.0465 h 0.02756 v -0.50126 q 0,-0.22049 -0.05512,-0.30489 -0.0534,-0.0861 -0.184312,-0.0861 -0.137804,0 -0.235989,0.11196 -0.09819,0.11025 -0.09819,0.27906 v 0.50126 h 0.02756 q 0.09302,0 0.139526,0.0482 0.04823,0.0465 0.04823,0.1378 0,0.10163 -0.04995,0.14642 -0.04995,0.0448 -0.165365,0.0448 h -0.427191 q -0.118855,0 -0.167086,-0.0431 -0.04823,-0.0448 -0.04823,-0.14814 0,-0.0913 0.04651,-0.1378 0.04823,-0.0482 0.139526,-0.0482 h 0.02928 v -1.49517 h -0.02928 q -0.09129,0 -0.141248,-0.0482 -0.04823,-0.05 -0.04823,-0.14297 0,-0.10163 0.04995,-0.14642 0.04995,-0.0448 0.168809,-0.0448 h 0.323839 q 0.05857,0 0.08096,0.0241 0.02239,0.0241 0.02239,0.0896 z"
         style="font-style:normal;font-variant:normal;font-weight:bold;font-stretch:normal;font-size:3.52777px;font-family:Courier;-inkscape-font-specification:'Courier, Bold';font-variant-ligatures:normal;font-variant-caps:normal;font-variant-numeric:normal;font-variant-east-asian:normal;stroke-width:0.264583"
         id="path151" />
    </g>
    <g
       transform="translate(-0.1889881,5.669643)"
       aria-label="Wavelet"
       id="text117"
       style="font-style:normal;font-variant:normal;font-weight:normal;font-stretch:normal;font-size:5.29167px;line-height:1.25;font-family:'Arial Black';-inkscape-font-specification:'Arial Black, Normal';font-variant-ligatures:normal;font-variant-caps:normal;font-variant-numeric:normal;font-variant-east-asian:normal;display:inline;stroke-width:0.264583">
      <path
         d="m 3.6877259,2.0707459 h 1.111044 L 5.1992625,4.1868971 5.7832065,2.0707459 H 6.8916667 L 7.4781945,4.1868971 7.8786871,2.0707459 H 8.9845634 L 8.1499885,5.8586307 H 7.0027711 L 6.3387285,3.4737619 5.6772698,5.8586307 H 4.5300523 Z"
         style="font-style:normal;font-variant:normal;font-weight:normal;font-stretch:normal;font-size:5.29167px;font-family:'Arial Black';-inkscape-font-specification:'Arial Black, Normal';font-variant-ligatures:normal;font-variant-caps:normal;font-variant-numeric:normal;font-variant-east-asian:normal;stroke-width:0.264583"
         id="path53" />
      <path
         d="M 10.258388,4.0034456 9.253281,3.8975089 q 0.056844,-0.26355 0.1627809,-0.4134117 0.1085206,-0.1524456 0.3100588,-0.26355 0.1446941,-0.080099 0.3979083,-0.1240235 0.253215,-0.043925 0.547771,-0.043925 0.47284,0 0.759644,0.05426 0.286804,0.051676 0.478007,0.219625 0.134359,0.116272 0.211874,0.3307293 0.07751,0.2118735 0.07751,0.4056603 v 1.211813 q 0,0.1937868 0.02326,0.3048912 0.02584,0.1085205 0.10852,0.2790529 h -0.98702 q -0.05943,-0.1059368 -0.07752,-0.1601971 -0.01809,-0.056844 -0.03617,-0.1757 -0.206706,0.1989544 -0.410828,0.2842206 -0.279053,0.1136882 -0.64854,0.1136882 -0.4909261,0 -0.7467246,-0.2273764 Q 9.1705977,5.4658892 9.1705977,5.132576 q 0,-0.3126426 0.1834514,-0.5141808 0.1834515,-0.2015382 0.6769619,-0.2997235 0.591695,-0.1188558 0.767395,-0.1653646 0.1757,-0.049093 0.372071,-0.1266074 0,-0.1937867 -0.0801,-0.2713014 -0.0801,-0.077515 -0.281636,-0.077515 -0.258383,0 -0.387574,0.082682 -0.100769,0.064596 -0.162781,0.2428794 z m 0.91209,0.5529382 q -0.217041,0.077515 -0.452169,0.1369426 -0.320394,0.085266 -0.40566,0.1679485 -0.08785,0.085266 -0.08785,0.1937868 0,0.1240235 0.08527,0.204122 0.08785,0.077515 0.255798,0.077515 0.1757,0 0.325562,-0.085266 0.152445,-0.085266 0.214457,-0.2067058 0.0646,-0.1240236 0.0646,-0.3203941 z"
         style="font-style:normal;font-variant:normal;font-weight:normal;font-stretch:normal;font-size:5.29167px;font-family:'Arial Black';-inkscape-font-specification:'Arial Black, Normal';font-variant-ligatures:normal;font-variant-caps:normal;font-variant-numeric:normal;font-variant-east-asian:normal;stroke-width:0.264583"
         id="path55" />
      <path
         d="m 12.521817,3.1146105 h 1.095541 l 0.532268,1.7389129 0.550354,-1.7389129 h 1.061951 l -1.165304,2.7440202 h -0.93276 z"
         style="font-style:normal;font-variant:normal;font-weight:normal;font-stretch:normal;font-size:5.29167px;font-family:'Arial Black';-inkscape-font-specification:'Arial Black, Normal';font-variant-ligatures:normal;font-variant-caps:normal;font-variant-numeric:normal;font-variant-east-asian:normal;stroke-width:0.264583"
         id="path57" />
      <path
         d="m 19.115734,4.7475867 h -2.108399 q 0.02842,0.2532147 0.136942,0.3772382 0.152446,0.1782838 0.397909,0.1782838 0.15503,0 0.294556,-0.077515 0.08527,-0.049093 0.183451,-0.1731162 l 1.036114,0.095601 q -0.237712,0.4134117 -0.573609,0.5942793 -0.335897,0.1782838 -0.963766,0.1782838 -0.545187,0 -0.85783,-0.1524456 -0.312642,-0.1550293 -0.519348,-0.4883425 -0.204122,-0.335897 -0.204122,-0.7880661 0,-0.643372 0.410828,-1.0412807 0.413412,-0.3979088 1.139466,-0.3979088 0.589112,0 0.930176,0.1782838 0.341065,0.1782838 0.519349,0.5167646 0.178283,0.3384809 0.178283,0.8810837 z M 18.046032,4.2437412 Q 18.015026,3.93885 17.880667,3.8070751 q -0.131775,-0.131775 -0.348816,-0.131775 -0.250631,0 -0.400493,0.1989544 -0.0956,0.1240235 -0.121439,0.3694867 z"
         style="font-style:normal;font-variant:normal;font-weight:normal;font-stretch:normal;font-size:5.29167px;font-family:'Arial Black';-inkscape-font-specification:'Arial Black, Normal';font-variant-ligatures:normal;font-variant-caps:normal;font-variant-numeric:normal;font-variant-east-asian:normal;stroke-width:0.264583"
         id="path59" />
      <path
         d="m 19.64025,2.0707459 h 1.0542 v 3.7878848 h -1.0542 z"
         style="font-style:normal;font-variant:normal;font-weight:normal;font-stretch:normal;font-size:5.29167px;font-family:'Arial Black';-inkscape-font-specification:'Arial Black, Normal';font-variant-ligatures:normal;font-variant-caps:normal;font-variant-numeric:normal;font-variant-east-asian:normal;stroke-width:0.264583"
         id="path61" />
      <path
         d="m 24.417738,4.7475867 h -2.108399 q 0.02842,0.2532147 0.136942,0.3772382 0.152446,0.1782838 0.397909,0.1782838 0.155029,0 0.294556,-0.077515 0.08527,-0.049093 0.183451,-0.1731162 l 1.036113,0.095601 q -0.237711,0.4134117 -0.573608,0.5942793 -0.335897,0.1782838 -0.963766,0.1782838 -0.545187,0 -0.85783,-0.1524456 -0.312642,-0.1550293 -0.519348,-0.4883425 -0.204122,-0.335897 -0.204122,-0.7880661 0,-0.643372 0.410828,-1.0412807 0.413411,-0.3979088 1.139466,-0.3979088 0.589111,0 0.930176,0.1782838 0.341065,0.1782838 0.519349,0.5167646 0.178283,0.3384809 0.178283,0.8810837 z M 23.348036,4.2437412 Q 23.31703,3.93885 23.182671,3.8070751 q -0.131775,-0.131775 -0.348816,-0.131775 -0.250631,0 -0.400493,0.1989544 -0.0956,0.1240235 -0.12144,0.3694867 z"
         style="font-style:normal;font-variant:normal;font-weight:normal;font-stretch:normal;font-size:5.29167px;font-family:'Arial Black';-inkscape-font-specification:'Arial Black, Normal';font-variant-ligatures:normal;font-variant-caps:normal;font-variant-numeric:normal;font-variant-east-asian:normal;stroke-width:0.264583"
         id="path63" />
      <path
         d="m 26.17474,2.0707459 v 1.0438646 h 0.578776 V 3.8820059 H 26.17474 v 0.9741014 q 0,0.1756999 0.03359,0.2325441 0.05168,0.08785 0.180868,0.08785 0.116272,0 0.325562,-0.067179 l 0.07751,0.7260543 q -0.390157,0.085266 -0.728638,0.085266 -0.392741,0 -0.578776,-0.1007691 Q 25.298824,5.7191042 25.20839,5.5149822 25.12054,5.3082763 25.12054,4.8483558 V 3.8820059 H 24.732966 V 3.1146105 H 25.12054 V 2.6107649 Z"
         style="font-style:normal;font-variant:normal;font-weight:normal;font-stretch:normal;font-size:5.29167px;font-family:'Arial Black';-inkscape-font-specification:'Arial Black, Normal';font-variant-ligatures:normal;font-variant-caps:normal;font-variant-numeric:normal;font-variant-east-asian:normal;stroke-width:0.264583"
         id="path65" />
    </g>
    <g
       transform="translate(-0.1889881,5.669643)"
       aria-label="Shaper"
       id="text51"
       style="font-size:3.52777px;line-height:1.25;font-family:'Arial Black';-inkscape-font-specification:'Arial Black, Normal';display:inline;stroke-width:0.264583">
      <path
         d="m 5.1062458,10.653096 1.1136278,-0.06976 q 0.036174,0.271301 0.1472779,0.413411 0.1808676,0.229961 0.5167646,0.229961 0.2506309,0 0.3849897,-0.116273 0.1369426,-0.118855 0.1369426,-0.273885 0,-0.147278 -0.1291912,-0.26355 Q 7.1474661,10.456725 6.6772103,10.353372 5.907231,10.180256 5.5790854,9.8934518 5.2483561,9.6066474 5.2483561,9.1622298 q 0,-0.291972 0.1679485,-0.5503543 0.1705323,-0.2609662 0.5090131,-0.4082441 0.3410647,-0.1498617 0.9327602,-0.1498617 0.7260543,0 1.1058763,0.2713014 Q 8.34636,8.5937887 8.4187071,9.1829004 L 7.3154146,9.247496 Q 7.2714896,8.9916975 7.1293793,8.8754254 6.9898529,8.7591534 6.7418059,8.7591534 q -0.2041221,0 -0.307475,0.08785 -0.1033529,0.085266 -0.1033529,0.2092896 0,0.090434 0.085266,0.1627809 0.082682,0.074931 0.3927412,0.1395265 0.7673954,0.1653646 1.0981248,0.335897 0.3333132,0.1679485 0.4831749,0.4185796 0.1524456,0.250631 0.1524456,0.560689 0,0.364319 -0.2015382,0.671794 -0.2015382,0.307475 -0.5632735,0.467672 -0.3617352,0.157614 -0.9120895,0.157614 -0.9663499,0 -1.3384204,-0.372071 -0.3720706,-0.37207 -0.4211631,-0.945679 z"
         style="font-style:normal;font-variant:normal;font-weight:normal;font-stretch:normal;font-size:5.29167px;font-family:'Arial Black';-inkscape-font-specification:'Arial Black, Normal';font-variant-ligatures:normal;font-variant-caps:normal;font-variant-numeric:normal;font-variant-east-asian:normal;stroke-width:0.264583"
         id="path68" />
      <path
         d="m 9.0646629,8.1183652 h 1.0516161 v 1.3952645 q 0.214457,-0.2222087 0.426331,-0.3178102 0.211873,-0.095602 0.501261,-0.095602 0.428915,0 0.674378,0.2609662 0.248047,0.2609661 0.248047,0.8009853 v 1.744081 h -1.056783 v -1.508953 q 0,-0.258382 -0.0956,-0.36432 -0.0956,-0.1085199 -0.268717,-0.1085199 -0.191203,0 -0.310059,0.1446949 -0.118856,0.144694 -0.118856,0.519348 v 1.31775 H 9.0646629 Z"
         style="font-style:normal;font-variant:normal;font-weight:normal;font-stretch:normal;font-size:5.29167px;font-family:'Arial Black';-inkscape-font-specification:'Arial Black, Normal';font-variant-ligatures:normal;font-variant-caps:normal;font-variant-numeric:normal;font-variant-east-asian:normal;stroke-width:0.264583"
         id="path70" />
      <path
         d="M 13.557931,10.051065 12.552824,9.9451282 q 0.05684,-0.2635499 0.162781,-0.4134117 0.108521,-0.1524456 0.310059,-0.26355 0.144694,-0.080099 0.397909,-0.1240235 0.253214,-0.043925 0.54777,-0.043925 0.47284,0 0.759644,0.05426 0.286804,0.051677 0.478007,0.219625 0.134359,0.116272 0.211874,0.3307294 0.07752,0.2118735 0.07752,0.4056606 v 1.211813 q 0,0.193787 0.02325,0.304891 0.02584,0.108521 0.108521,0.279053 h -0.987021 q -0.05943,-0.105937 -0.07752,-0.160197 -0.01809,-0.05684 -0.03617,-0.1757 -0.206706,0.198954 -0.410828,0.284221 -0.279053,0.113688 -0.64854,0.113688 -0.490926,0 -0.746724,-0.227377 -0.253215,-0.227376 -0.253215,-0.560689 0,-0.312643 0.183451,-0.514181 0.183452,-0.201538 0.676962,-0.299724 0.591695,-0.118855 0.767395,-0.165364 0.1757,-0.04909 0.372071,-0.126608 0,-0.1937867 -0.0801,-0.2713014 -0.0801,-0.077515 -0.281636,-0.077515 -0.258383,0 -0.387574,0.082682 -0.100769,0.064596 -0.162781,0.2428794 z m 0.91209,0.552938 q -0.217041,0.07752 -0.452169,0.136943 -0.320394,0.08527 -0.40566,0.167948 -0.08785,0.08527 -0.08785,0.193787 0,0.124024 0.08527,0.204122 0.08785,0.07752 0.255798,0.07752 0.1757,0 0.325562,-0.08527 0.152446,-0.08527 0.214457,-0.206706 0.0646,-0.124024 0.0646,-0.320394 z"
         style="font-style:normal;font-variant:normal;font-weight:normal;font-stretch:normal;font-size:5.29167px;font-family:'Arial Black';-inkscape-font-specification:'Arial Black, Normal';font-variant-ligatures:normal;font-variant-caps:normal;font-variant-numeric:normal;font-variant-east-asian:normal;stroke-width:0.264583"
         id="path72" />
      <path
         d="M 16.139171,12.950115 V 9.1622298 h 0.984436 V 9.56789 q 0.204122,-0.2557985 0.374655,-0.3462323 0.22996,-0.1214397 0.509013,-0.1214397 0.550354,0 0.850077,0.4211632 0.302308,0.4211632 0.302308,1.0412808 0,0.684713 -0.328146,1.046448 -0.328145,0.359152 -0.829407,0.359152 -0.242879,0 -0.444418,-0.08268 -0.198954,-0.08268 -0.356567,-0.245463 v 1.309999 z m 1.054199,-2.408124 q 0,0.325562 0.136943,0.483175 0.136943,0.157614 0.346232,0.157614 0.183452,0 0.307475,-0.149862 0.124024,-0.152446 0.124024,-0.514181 0,-0.333313 -0.129191,-0.488343 -0.129192,-0.1576128 -0.315227,-0.1576128 -0.201538,0 -0.335897,0.1576128 -0.134359,0.157614 -0.134359,0.511597 z"
         style="font-style:normal;font-variant:normal;font-weight:normal;font-stretch:normal;font-size:5.29167px;font-family:'Arial Black';-inkscape-font-specification:'Arial Black, Normal';font-variant-ligatures:normal;font-variant-caps:normal;font-variant-numeric:normal;font-variant-east-asian:normal;stroke-width:0.264583"
         id="path74" />
      <path
         d="m 22.715,10.795206 h -2.108399 q 0.02842,0.253215 0.136942,0.377238 0.152446,0.178284 0.397909,0.178284 0.155029,0 0.294556,-0.07752 0.08527,-0.04909 0.183451,-0.173116 l 1.036113,0.0956 q -0.237711,0.413411 -0.573608,0.594279 -0.335897,0.178284 -0.963766,0.178284 -0.545187,0 -0.85783,-0.152446 -0.312642,-0.155029 -0.519348,-0.488342 -0.204122,-0.335897 -0.204122,-0.788066 0,-0.6433724 0.410828,-1.0412812 0.413411,-0.3979088 1.139466,-0.3979088 0.589111,0 0.930176,0.1782838 0.341065,0.1782838 0.519348,0.5167647 Q 22.715,10.133747 22.715,10.67635 Z m -1.069703,-0.503845 q -0.03101,-0.3048916 -0.165364,-0.4366666 -0.131775,-0.131775 -0.348816,-0.131775 -0.250631,0 -0.400493,0.1989544 -0.0956,0.1240232 -0.12144,0.3694872 z"
         style="font-style:normal;font-variant:normal;font-weight:normal;font-stretch:normal;font-size:5.29167px;font-family:'Arial Black';-inkscape-font-specification:'Arial Black, Normal';font-variant-ligatures:normal;font-variant-caps:normal;font-variant-numeric:normal;font-variant-east-asian:normal;stroke-width:0.264583"
         id="path76" />
      <path
         d="m 23.213678,9.1622298 h 0.984437 V 9.611815 q 0.14211,-0.291972 0.291972,-0.4004926 0.152445,-0.1111044 0.374654,-0.1111044 0.232544,0 0.509013,0.1446941 l -0.325562,0.7493088 q -0.186035,-0.077515 -0.294555,-0.077515 -0.206706,0 -0.320395,0.1705321 -0.16278,0.240296 -0.16278,0.899171 v 0.919841 h -1.056784 z"
         style="font-style:normal;font-variant:normal;font-weight:normal;font-stretch:normal;font-size:5.29167px;font-family:'Arial Black';-inkscape-font-specification:'Arial Black, Normal';font-variant-ligatures:normal;font-variant-caps:normal;font-variant-numeric:normal;font-variant-east-asian:normal;stroke-width:0.264583"
         id="path78" />
    </g>
    <g
       style="font-size:3.52777px;line-height:1.25;font-family:'Arial Black';-inkscape-font-specification:'Arial Black, Normal';display:inline;stroke-width:0.264583"
       id="text1087"
       aria-label="In">
      <path
         id="path1252"
         style="stroke-width:0.264583"
         d="m 6.9058901,96.358585 h 0.782035 v 2.52525 h -0.782035 z" />
      <path
         id="path1254"
         style="stroke-width:0.264583"
         d="m 8.1995207,97.054493 h 0.6528441 v 0.298 q 0.1464163,-0.182589 0.2962776,-0.260104 0.1498613,-0.07924 0.3651793,-0.07924 0.29111,0 0.4547516,0.173977 0.1653647,0.172254 0.1653647,0.533989 v 1.162717 H 9.4294171 v -1.005966 q 0,-0.172254 -0.063734,-0.242879 -0.063734,-0.07235 -0.1791445,-0.07235 -0.1274683,0 -0.2067053,0.09646 -0.079237,0.09646 -0.079237,0.346231 v 0.878498 H 8.1995207 Z" />
    </g>
    <g
       style="font-size:3.52777px;line-height:1.25;font-family:'Arial Black';-inkscape-font-specification:'Arial Black, Normal';display:inline;stroke-width:0.264583"
       id="text1091"
       aria-label="Out">
      <path
         id="path1257"
         style="stroke-width:0.264583"
         d="m 18.656248,97.579872 q 0,-0.618393 0.344509,-0.962902 0.344509,-0.344509 0.959457,-0.344509 0.630451,0 0.971515,0.339342 0.341064,0.337618 0.341064,0.947399 0,0.442694 -0.149862,0.726913 -0.148138,0.282498 -0.430636,0.440972 -0.280774,0.156751 -0.701075,0.156751 -0.427191,0 -0.707966,-0.136081 -0.279052,-0.136081 -0.453029,-0.430636 -0.173977,-0.294555 -0.173977,-0.737249 z m 0.780313,0.0034 q 0,0.382405 0.141248,0.549492 0.142972,0.167087 0.387573,0.167087 0.251491,0 0.389295,-0.163642 0.137803,-0.163642 0.137803,-0.587387 0,-0.356567 -0.144693,-0.520209 -0.142972,-0.165364 -0.389295,-0.165364 -0.235989,0 -0.37896,0.167087 -0.142971,0.167087 -0.142971,0.552936 z" />
      <path
         id="path1259"
         style="stroke-width:0.264583"
         d="M 23.577556,98.840775 H 22.92299 v -0.296278 q -0.146416,0.18259 -0.296278,0.260104 -0.148139,0.07751 -0.365179,0.07751 -0.289388,0 -0.454752,-0.172255 -0.163641,-0.173977 -0.163641,-0.533988 v -1.16444 h 0.70452 v 1.005966 q 0,0.172254 0.06373,0.244601 0.06373,0.07235 0.179145,0.07235 0.125745,0 0.204982,-0.09646 0.08096,-0.09646 0.08096,-0.346231 v -0.88022 h 0.701075 z" />
      <path
         id="path1261"
         style="stroke-width:0.264583"
         d="m 24.852239,96.315525 v 0.695908 h 0.38585 v 0.511595 h -0.38585 v 0.649399 q 0,0.117133 0.02239,0.155029 0.03445,0.05857 0.120578,0.05857 0.07751,0 0.21704,-0.04479 l 0.05168,0.484035 q -0.260104,0.05684 -0.485758,0.05684 -0.261826,0 -0.38585,-0.06718 -0.124023,-0.06718 -0.184312,-0.20326 -0.05857,-0.137803 -0.05857,-0.444416 v -0.644232 h -0.258382 v -0.511595 h 0.258382 v -0.335896 z" />
    </g>
  </g>
  <g
     style="display:inline"
     inkscape:label="components"
     id="layer2"
     inkscape:groupmode="layer">
    <rect
       y="72.53363"
       x="4.7636356"
       height="10"
       width="4.7470002"
       id="algorithm"
       style="display:inline;fill:#ff0000;fill-opacity:0.5;stroke-width:0.264583" />
    <circle
       r="4"
       label="input"
       cy="104.6994"
       cx="8.5199137"
       id="input"
       style="fill:#00ff00;fill-rule:evenodd;stroke-width:0.264583" />
    <circle
       r="4"
       label="output"
       cy="104.6994"
       cx="21.960087"
       id="output"
       style="fill:#0000ff;fill-rule:evenodd;stroke-width:0.264583" />
    <circle
       r="4"
       label="detail2"
       cy="28.726189"
       cx="21.075006"
       id="detail2"
       style="fill:#ff0000;fill-rule:evenodd;stroke-width:0.264583" />
    <circle
       label="detail1"
       cy="28.726189"
       cx="7.1371355"
       id="detail1"
       style="fill:#ff0000;fill-rule:evenodd;stroke-width:0.264583"
       r="4" />
    <circle
       r="4"
       label="detail3"
       cy="42.711311"
       cx="7.1371355"
       id="detail3"
       style="fill:#ff0000;fill-rule:evenodd;stroke-width:0.264583" />
    <circle
       r="4"
       label="detail4"
       cy="42.711311"
       cx="21.075006"
       id="detail4"
       style="fill:#ff0000;fill-rule:evenodd;stroke-width:0.264583" />
    <circle
       r="4"
       label="approx"
       cy="56.69643"
       cx="7.1371355"
       id="approx"
       style="fill:#ff0000;fill-rule:evenodd;stroke-width:0.264583" />
  </g>
</svg>
