<?xml version="1.0" encoding="UTF-8" standalone="no"?>
<svg
   xmlns:dc="http://purl.org/dc/elements/1.1/"
   xmlns:cc="http://creativecommons.org/ns#"
   xmlns:rdf="http://www.w3.org/1999/02/22-rdf-syntax-ns#"
   xmlns:svg="http://www.w3.org/2000/svg"
   xmlns="http://www.w3.org/2000/svg"
   xmlns:sodipodi="http://sodipodi.sourceforge.net/DTD/sodipodi-0.dtd"
   xmlns:inkscape="http://www.inkscape.org/namespaces/inkscape"
   width="30.48mm"
   height="128.5mm"
   viewBox="0 0 30.48 128.5"
   version="1.1"
   id="svg8"
   inkscape:version="1.0 (4035a4f, 2020-05-01)"
   sodipodi:docname="Wavelet.svg">
  <defs
     id="defs2" />
  <sodipodi:namedview
     id="base"
     pagecolor="#d7d7d7"
     bordercolor="#000000"
     borderopacity="1"
     inkscape:pageopacity="0"
     inkscape:pageshadow="2"
     inkscape:zoom="1.4"
     inkscape:cx="144.28571"
     inkscape:cy="265.71429"
     inkscape:document-units="mm"
     inkscape:current-layer="layer2"
     inkscape:document-rotation="0"
     showgrid="false"
     inkscape:showpageshadow="false"
     inkscape:window-width="1434"
     inkscape:window-height="1137"
     inkscape:window-x="2801"
     inkscape:window-y="165"
     inkscape:window-maximized="0" />
  <metadata
     id="metadata5">
    <rdf:RDF>
      <cc:Work
         rdf:about="">
        <dc:format>image/svg+xml</dc:format>
        <dc:type
           rdf:resource="http://purl.org/dc/dcmitype/StillImage" />
        <dc:title />
      </cc:Work>
    </rdf:RDF>
  </metadata>
  <g
     style="display:inline"
     inkscape:label="bg"
     id="layer3"
     inkscape:groupmode="layer">
    <rect
       y="0.25"
       x="0"
       height="128"
       width="30.48"
       id="rect45"
       style="fill:#ffffff;stroke-width:0.264583" />
  </g>
  <g
     style="display:inline"
     inkscape:label="details"
     inkscape:groupmode="layer"
     id="layer1">
    <g
       style="font-style:normal;font-variant:normal;font-weight:bold;font-stretch:normal;font-size:3.52777px;line-height:1.25;font-family:Courier;-inkscape-font-specification:'Courier, Bold';font-variant-ligatures:normal;font-variant-caps:normal;font-variant-numeric:normal;font-variant-east-asian:normal;stroke-width:0.264583"
       id="text123"
       aria-label="Meromorph">
      <path
         id="path135"
         style="font-style:normal;font-variant:normal;font-weight:bold;font-stretch:normal;font-size:3.52777px;font-family:Courier;-inkscape-font-specification:'Courier, Bold';font-variant-ligatures:normal;font-variant-caps:normal;font-variant-numeric:normal;font-variant-east-asian:normal;stroke-width:0.264583"
         d="m 6.8632683,124.98413 0.3290059,-0.97668 q 0.031006,-0.0965 0.086127,-0.13953 0.055121,-0.0448 0.1464163,-0.0448 h 0.2687168 q 0.117133,0 0.1670868,0.0448 0.051676,0.0448 0.051676,0.14642 0,0.093 -0.049954,0.14125 -0.048231,0.0482 -0.1412486,0.0482 h -0.027561 l 0.048231,1.28502 h 0.029283 q 0.093017,0 0.1395261,0.0482 0.046509,0.0465 0.046509,0.1378 0,0.10163 -0.049954,0.14642 -0.048231,0.0448 -0.1653643,0.0448 H 7.3541934 q -0.117133,0 -0.1670868,-0.0431 -0.048231,-0.0448 -0.048231,-0.14814 0,-0.0913 0.046509,-0.1378 0.048231,-0.0482 0.1412487,-0.0482 h 0.027561 l -0.024116,-1.05076 -0.2514914,0.78204 q -0.027561,0.0879 -0.079237,0.12747 -0.049954,0.0379 -0.1395261,0.0379 -0.089572,0 -0.1429711,-0.0379 -0.051676,-0.0396 -0.079237,-0.12747 l -0.2497689,-0.78204 -0.024116,1.05076 h 0.027561 q 0.093017,0 0.139526,0.0482 0.048231,0.0465 0.048231,0.1378 0,0.10163 -0.049954,0.14642 -0.049954,0.0448 -0.1653642,0.0448 h -0.389295 q -0.1154104,0 -0.1653642,-0.0448 -0.049954,-0.0448 -0.049954,-0.14642 0,-0.0913 0.046509,-0.1378 0.048231,-0.0482 0.1412486,-0.0482 h 0.027561 l 0.049954,-1.28502 h -0.027561 q -0.093017,0 -0.1429711,-0.0482 -0.048231,-0.0482 -0.048231,-0.14125 0,-0.10163 0.049954,-0.14642 0.051676,-0.0448 0.1688093,-0.0448 h 0.2687169 q 0.089572,0 0.1429711,0.0431 0.055121,0.0431 0.089572,0.14125 z" />
      <path
         id="path137"
         style="font-style:normal;font-variant:normal;font-weight:bold;font-stretch:normal;font-size:3.52777px;font-family:Courier;-inkscape-font-specification:'Courier, Bold';font-variant-ligatures:normal;font-variant-caps:normal;font-variant-numeric:normal;font-variant-east-asian:normal;stroke-width:0.264583"
         d="m 8.5065752,125.17189 q 0.044786,0.1912 0.1722544,0.28594 0.1291908,0.0947 0.3427863,0.0947 0.2135954,0 0.4220233,-0.10335 0.2084278,-0.10508 0.2514914,-0.10508 0.063734,0 0.1033526,0.0482 0.041341,0.0465 0.041341,0.12058 0,0.16192 -0.2394336,0.27905 -0.2394336,0.11714 -0.5925552,0.11714 -0.4168556,0 -0.6786823,-0.23427 -0.2601041,-0.23426 -0.2601041,-0.60289 0,-0.3669 0.2601041,-0.60117 0.2618267,-0.23426 0.6786823,-0.23426 0.3720695,0 0.6166708,0.22048 0.2446012,0.21877 0.2446012,0.53744 0,0.10163 -0.049954,0.13952 -0.048231,0.0379 -0.2015376,0.0379 z m 0.9284512,-0.26872 q -0.029283,-0.1602 -0.1515838,-0.24804 -0.1205781,-0.0879 -0.3152256,-0.0879 -0.1877573,0 -0.3031677,0.0844 -0.1136879,0.0827 -0.1584741,0.25149 z" />
      <path
         id="path139"
         style="font-style:normal;font-variant:normal;font-weight:bold;font-stretch:normal;font-size:3.52777px;font-family:Courier;-inkscape-font-specification:'Courier, Bold';font-variant-ligatures:normal;font-variant-caps:normal;font-variant-numeric:normal;font-variant-east-asian:normal;stroke-width:0.264583"
         d="m 11.012877,124.93073 v 0.55811 h 0.40652 q 0.117133,0 0.165364,0.0431 0.04995,0.0431 0.04995,0.14297 0,0.10163 -0.04995,0.14642 -0.04823,0.0448 -0.165364,0.0448 h -0.962902 q -0.118856,0 -0.168809,-0.0448 -0.04995,-0.0448 -0.04995,-0.14642 0,-0.0999 0.04823,-0.14297 0.04995,-0.0431 0.170532,-0.0431 h 0.130913 v -0.83716 h -0.07407 q -0.117133,0 -0.167087,-0.0431 -0.04823,-0.0448 -0.04823,-0.14642 0,-0.10163 0.04651,-0.14469 0.04823,-0.0431 0.168809,-0.0431 h 0.366902 q 0.04651,0 0.07235,0.0207 0.02584,0.019 0.02584,0.0534 v 0.25494 q 0.187757,-0.20154 0.349676,-0.28767 0.163642,-0.0861 0.351399,-0.0861 0.170532,0 0.27044,0.0775 0.09991,0.0758 0.09991,0.20498 0,0.0999 -0.0689,0.16537 -0.0689,0.0637 -0.177422,0.0637 -0.07751,0 -0.184312,-0.0568 -0.105075,-0.0568 -0.146416,-0.0568 -0.08268,0 -0.194648,0.0741 -0.111965,0.0741 -0.265271,0.2291 z" />
      <path
         id="path141"
         style="font-style:normal;font-variant:normal;font-weight:bold;font-stretch:normal;font-size:3.52777px;font-family:Courier;-inkscape-font-specification:'Courier, Bold';font-variant-ligatures:normal;font-variant-caps:normal;font-variant-numeric:normal;font-variant-east-asian:normal;stroke-width:0.264583"
         d="m 13.205675,124.6 q -0.201538,0 -0.332451,0.13264 -0.129191,0.13091 -0.129191,0.3359 0,0.2067 0.129191,0.34278 0.130913,0.13436 0.332451,0.13436 0.201538,0 0.332451,-0.13436 0.130913,-0.13608 0.130913,-0.34278 0,-0.20499 -0.130913,-0.3359 Q 13.408935,124.6 13.205675,124.6 Z m 0,-0.36345 q 0.418578,0 0.678682,0.23426 0.260105,0.23427 0.260105,0.60117 0,0.36863 -0.260105,0.60289 -0.260104,0.23427 -0.678682,0.23427 -0.416856,0 -0.67696,-0.23427 -0.260104,-0.23426 -0.260104,-0.60289 0,-0.3669 0.260104,-0.60117 0.261827,-0.23426 0.67696,-0.23426 z" />
      <path
         id="path143"
         style="font-style:normal;font-variant:normal;font-weight:bold;font-stretch:normal;font-size:3.52777px;font-family:Courier;-inkscape-font-specification:'Courier, Bold';font-variant-ligatures:normal;font-variant-caps:normal;font-variant-numeric:normal;font-variant-east-asian:normal;stroke-width:0.264583"
         d="m 15.431202,124.39158 q 0.07235,-0.0775 0.167087,-0.11714 0.09474,-0.0413 0.20326,-0.0413 0.234266,0 0.337618,0.13953 0.103353,0.1378 0.103353,0.46336 v 0.65285 h 0.02412 q 0.08096,0 0.120578,0.0482 0.04134,0.0465 0.04134,0.1378 0,0.10335 -0.04306,0.14814 -0.04134,0.0431 -0.142971,0.0431 h -0.292832 q -0.04651,0 -0.07235,-0.0189 -0.02584,-0.0207 -0.02584,-0.0551 v -0.97323 q 0,-0.11541 -0.03617,-0.17226 -0.03617,-0.0568 -0.105075,-0.0568 -0.08613,0 -0.134358,0.0775 -0.04651,0.0758 -0.04651,0.21877 v 0.60289 h 0.02584 q 0.07924,0 0.120578,0.0482 0.04134,0.0465 0.04134,0.1378 0,0.10335 -0.04306,0.14814 -0.04306,0.0431 -0.144694,0.0431 h -0.292833 q -0.04651,0 -0.07407,-0.0189 -0.02756,-0.0207 -0.02756,-0.0551 v -0.97323 q 0,-0.11541 -0.03445,-0.17226 -0.03445,-0.0568 -0.103352,-0.0568 -0.08613,0 -0.136081,0.0775 -0.04823,0.0775 -0.04823,0.21877 v 0.60289 h 0.02584 q 0.08096,0 0.120578,0.0465 0.04134,0.0465 0.04134,0.13952 0,0.10335 -0.04306,0.14814 -0.04306,0.0431 -0.144693,0.0431 h -0.391018 q -0.09991,0 -0.142971,-0.0448 -0.04306,-0.0448 -0.04306,-0.14642 0,-0.0913 0.03962,-0.1378 0.04134,-0.0482 0.122301,-0.0482 h 0.02412 v -0.83716 h -0.02412 q -0.08096,0 -0.124024,-0.0482 -0.04134,-0.0499 -0.04134,-0.14125 0,-0.0999 0.04306,-0.14297 0.04479,-0.0448 0.146416,-0.0448 h 0.232544 q 0.07062,0 0.09474,0.0293 0.02584,0.0276 0.02584,0.10852 0.06373,-0.0879 0.153306,-0.13264 0.08957,-0.0465 0.199815,-0.0465 0.09991,0 0.173977,0.0396 0.07407,0.0379 0.129191,0.11886 z" />
      <path
         id="path145"
         style="font-style:normal;font-variant:normal;font-weight:bold;font-stretch:normal;font-size:3.52777px;font-family:Courier;-inkscape-font-specification:'Courier, Bold';font-variant-ligatures:normal;font-variant-caps:normal;font-variant-numeric:normal;font-variant-east-asian:normal;stroke-width:0.264583"
         d="m 17.436243,124.6 q -0.201538,0 -0.332451,0.13264 -0.129191,0.13091 -0.129191,0.3359 0,0.2067 0.129191,0.34278 0.130913,0.13436 0.332451,0.13436 0.201538,0 0.332451,-0.13436 0.130913,-0.13608 0.130913,-0.34278 0,-0.20499 -0.130913,-0.3359 Q 17.639503,124.6 17.436243,124.6 Z m 0,-0.36345 q 0.418578,0 0.678682,0.23426 0.260105,0.23427 0.260105,0.60117 0,0.36863 -0.260105,0.60289 -0.260104,0.23427 -0.678682,0.23427 -0.416856,0 -0.67696,-0.23427 -0.260104,-0.23426 -0.260104,-0.60289 0,-0.3669 0.260104,-0.60117 0.261827,-0.23426 0.67696,-0.23426 z" />
      <path
         id="path147"
         style="font-style:normal;font-variant:normal;font-weight:bold;font-stretch:normal;font-size:3.52777px;font-family:Courier;-inkscape-font-specification:'Courier, Bold';font-variant-ligatures:normal;font-variant-caps:normal;font-variant-numeric:normal;font-variant-east-asian:normal;stroke-width:0.264583"
         d="m 19.474013,124.93073 v 0.55811 h 0.40652 q 0.117133,0 0.165364,0.0431 0.04995,0.0431 0.04995,0.14297 0,0.10163 -0.04995,0.14642 -0.04823,0.0448 -0.165364,0.0448 h -0.962902 q -0.118856,0 -0.168809,-0.0448 -0.04995,-0.0448 -0.04995,-0.14642 0,-0.0999 0.04823,-0.14297 0.04995,-0.0431 0.170532,-0.0431 h 0.130913 v -0.83716 h -0.07407 q -0.117133,0 -0.167087,-0.0431 -0.04823,-0.0448 -0.04823,-0.14642 0,-0.10163 0.04651,-0.14469 0.04823,-0.0431 0.16881,-0.0431 h 0.366902 q 0.04651,0 0.07235,0.0207 0.02584,0.019 0.02584,0.0534 v 0.25494 q 0.187757,-0.20154 0.349676,-0.28767 0.163642,-0.0861 0.351399,-0.0861 0.170532,0 0.270439,0.0775 0.09991,0.0758 0.09991,0.20498 0,0.0999 -0.0689,0.16537 -0.0689,0.0637 -0.177422,0.0637 -0.07751,0 -0.184312,-0.0568 -0.105075,-0.0568 -0.146416,-0.0568 -0.08268,0 -0.194648,0.0741 -0.111965,0.0741 -0.265271,0.2291 z" />
      <path
         id="path149"
         style="font-style:normal;font-variant:normal;font-weight:bold;font-stretch:normal;font-size:3.52777px;font-family:Courier;-inkscape-font-specification:'Courier, Bold';font-variant-ligatures:normal;font-variant-caps:normal;font-variant-numeric:normal;font-variant-east-asian:normal;stroke-width:0.264583"
         d="m 21.339528,125.70415 v 0.46854 h 0.218763 q 0.117133,0 0.167086,0.0448 0.05168,0.0448 0.05168,0.14642 0,0.0999 -0.04995,0.14297 -0.04995,0.0431 -0.168809,0.0431 h -0.730359 q -0.118855,0 -0.167087,-0.0431 -0.04823,-0.0413 -0.04823,-0.14297 0,-0.10163 0.04823,-0.14642 0.04995,-0.0448 0.167087,-0.0448 h 0.10163 v -1.52101 h -0.02756 q -0.09129,0 -0.139526,-0.0482 -0.04823,-0.0482 -0.04823,-0.14125 0,-0.10163 0.04823,-0.14469 0.04823,-0.0431 0.167087,-0.0431 h 0.265272 q 0.04995,0 0.07407,0.019 0.02412,0.0172 0.02412,0.0517 v 0.12402 q 0.08785,-0.11713 0.211873,-0.1757 0.125746,-0.0603 0.282497,-0.0603 0.353122,0 0.585665,0.22566 0.232543,0.22565 0.232543,0.56843 0,0.35829 -0.225653,0.59428 -0.225653,0.23427 -0.568439,0.23427 -0.139526,0 -0.261827,-0.0379 -0.120578,-0.0396 -0.21015,-0.11369 z M 21.737435,124.6 q -0.170532,0 -0.280774,0.12575 -0.110243,0.12575 -0.110243,0.32212 0,0.19637 0.110243,0.32211 0.110242,0.12575 0.280774,0.12575 0.170532,0 0.280775,-0.12575 0.111965,-0.12747 0.111965,-0.32211 0,-0.19637 -0.110242,-0.32212 Q 21.90969,124.6 21.737435,124.6 Z" />
      <path
         id="path151"
         style="font-style:normal;font-variant:normal;font-weight:bold;font-stretch:normal;font-size:3.52777px;font-family:Courier;-inkscape-font-specification:'Courier, Bold';font-variant-ligatures:normal;font-variant-caps:normal;font-variant-numeric:normal;font-variant-east-asian:normal;stroke-width:0.264583"
         d="m 23.504765,124.44842 q 0.06029,-0.10508 0.170532,-0.1602 0.110243,-0.0551 0.263549,-0.0551 0.272162,0 0.418579,0.15848 0.148138,0.15847 0.148138,0.45475 v 0.64251 h 0.02928 q 0.0913,0 0.137803,0.0482 0.04823,0.0465 0.04823,0.1378 0,0.10163 -0.04995,0.14642 -0.04823,0.0448 -0.165365,0.0448 h -0.42719 q -0.115411,0 -0.165365,-0.0448 -0.04823,-0.0448 -0.04823,-0.14642 0,-0.093 0.04651,-0.13952 0.04651,-0.0465 0.139526,-0.0465 h 0.02756 v -0.50126 q 0,-0.22049 -0.05512,-0.30489 -0.0534,-0.0861 -0.184312,-0.0861 -0.137804,0 -0.235989,0.11196 -0.09819,0.11025 -0.09819,0.27906 v 0.50126 h 0.02756 q 0.09302,0 0.139526,0.0482 0.04823,0.0465 0.04823,0.1378 0,0.10163 -0.04995,0.14642 -0.04995,0.0448 -0.165365,0.0448 h -0.427191 q -0.118855,0 -0.167086,-0.0431 -0.04823,-0.0448 -0.04823,-0.14814 0,-0.0913 0.04651,-0.1378 0.04823,-0.0482 0.139526,-0.0482 h 0.02928 v -1.49517 h -0.02928 q -0.09129,0 -0.141248,-0.0482 -0.04823,-0.05 -0.04823,-0.14297 0,-0.10163 0.04995,-0.14642 0.04995,-0.0448 0.168809,-0.0448 h 0.323839 q 0.05857,0 0.08096,0.0241 0.02239,0.0241 0.02239,0.0896 z" />
    </g>
    <g
       style="font-size:3.52777px;line-height:1.25;font-family:'Arial Black';-inkscape-font-specification:'Arial Black, Normal';stroke-width:0.264583"
       id="text77"
       aria-label="Approximation">
      <path
         id="path96"
         style="stroke-width:0.264583"
         d="M 3.0306085,69.697723 H 2.1417758 L 2.0194752,70.114578 H 1.2219374 l 0.9491217,-2.525249 h 0.8509367 l 0.9491217,2.525249 H 3.1546317 Z M 2.8669668,69.151676 2.5879147,68.243895 2.3105851,69.151676 Z" />
      <path
         id="path98"
         style="stroke-width:0.264583"
         d="m 4.1761003,70.810486 v -2.525249 h 0.6562892 v 0.270439 q 0.136081,-0.170532 0.2497689,-0.230821 0.1533064,-0.08096 0.3393412,-0.08096 0.3669018,0 0.5667169,0.280775 0.2015377,0.280775 0.2015377,0.694185 0,0.456475 -0.2187631,0.697631 -0.2187631,0.239433 -0.5529366,0.239433 -0.1619191,0 -0.2962776,-0.05512 -0.1326359,-0.05512 -0.237711,-0.163642 v 0.87333 z m 0.7027979,-1.605411 q 0,0.217041 0.091295,0.322116 0.091295,0.105075 0.2308208,0.105075 0.1223007,0 0.2049828,-0.09991 0.082682,-0.10163 0.082682,-0.342786 0,-0.222208 -0.086127,-0.325561 -0.086127,-0.105075 -0.2101504,-0.105075 -0.1343584,0 -0.2239307,0.105075 -0.089572,0.105076 -0.089572,0.341064 z" />
      <path
         id="path100"
         style="stroke-width:0.264583"
         d="m 6.5325404,70.810486 v -2.525249 h 0.6562892 v 0.270439 q 0.136081,-0.170532 0.2497689,-0.230821 0.1533064,-0.08096 0.3393411,-0.08096 0.3669019,0 0.566717,0.280775 0.2015376,0.280775 0.2015376,0.694185 0,0.456475 -0.218763,0.697631 -0.2187631,0.239433 -0.5529366,0.239433 -0.1619192,0 -0.2962776,-0.05512 -0.1326359,-0.05512 -0.2377111,-0.163642 v 0.87333 z m 0.7027979,-1.605411 q 0,0.217041 0.091295,0.322116 0.091295,0.105075 0.2308209,0.105075 0.1223006,0 0.2049827,-0.09991 0.082682,-0.10163 0.082682,-0.342786 0,-0.222208 -0.086127,-0.325561 -0.086127,-0.105075 -0.2101504,-0.105075 -0.1343584,0 -0.2239307,0.105075 -0.089572,0.105076 -0.089572,0.341064 z" />
      <path
         id="path102"
         style="stroke-width:0.264583"
         d="m 8.8924255,68.285237 h 0.6562893 v 0.299722 q 0.09474,-0.194647 0.1946474,-0.266994 0.1016301,-0.07407 0.2497689,-0.07407 0.1550289,0 0.3393409,0.09646 l -0.21704,0.499538 q -0.1240234,-0.05168 -0.1963703,-0.05168 -0.1378035,0 -0.2135954,0.113688 -0.1085203,0.160197 -0.1085203,0.599446 v 0.613225 H 8.8924255 Z" />
      <path
         id="path104"
         style="stroke-width:0.264583"
         d="m 10.363478,69.205075 q 0,-0.418578 0.282498,-0.689018 0.282497,-0.272162 0.763087,-0.272162 0.549491,0 0.830266,0.318671 0.225653,0.256659 0.225653,0.632174 0,0.422023 -0.280775,0.692462 -0.279052,0.268717 -0.773422,0.268717 -0.440971,0 -0.713133,-0.22393 -0.334174,-0.27733 -0.334174,-0.726914 z m 0.702798,-0.0017 q 0,0.244602 0.09818,0.361735 0.09991,0.117133 0.249769,0.117133 0.151584,0 0.248047,-0.115411 0.09819,-0.11541 0.09819,-0.370347 0,-0.237711 -0.09819,-0.353121 -0.09818,-0.117133 -0.242879,-0.117133 -0.153307,0 -0.253214,0.118855 -0.09991,0.117133 -0.09991,0.358289 z" />
      <path
         id="path106"
         style="stroke-width:0.264583"
         d="m 12.647571,68.285237 h 0.831989 l 0.29111,0.509873 0.337618,-0.509873 h 0.773423 l -0.623561,0.871607 0.668347,0.957734 h -0.818209 l -0.337618,-0.58911 -0.397908,0.58911 H 12.61312 l 0.664902,-0.957734 z" />
      <path
         id="path108"
         style="stroke-width:0.264583"
         d="m 15.188324,67.589329 h 0.701075 v 0.477144 h -0.701075 z m 0,0.695908 h 0.701075 v 1.829341 h -0.701075 z" />
      <path
         id="path110"
         style="stroke-width:0.264583"
         d="m 16.345873,68.285237 h 0.654567 v 0.266994 q 0.141248,-0.167087 0.28422,-0.237711 0.144693,-0.07063 0.347953,-0.07063 0.218764,0 0.346232,0.07752 0.127468,0.07751 0.208428,0.230821 0.165364,-0.179145 0.301445,-0.242879 0.136081,-0.06546 0.335896,-0.06546 0.294555,0 0.459919,0.1757 0.165364,0.173977 0.165364,0.546046 v 1.148937 h -0.702798 v -1.042139 q 0,-0.124023 -0.04823,-0.184312 -0.07062,-0.09474 -0.175699,-0.09474 -0.124023,0 -0.199815,0.08957 -0.07579,0.08957 -0.07579,0.287665 v 0.943954 H 17.544764 V 69.10689 q 0,-0.120578 -0.01378,-0.163642 -0.02239,-0.0689 -0.07751,-0.110242 -0.05512,-0.04306 -0.129191,-0.04306 -0.120578,0 -0.198092,0.0913 -0.07752,0.0913 -0.07752,0.299722 v 0.933619 h -0.702798 z" />
      <path
         id="path112"
         style="stroke-width:0.264583"
         d="m 20.507539,68.877792 -0.670069,-0.07062 q 0.0379,-0.175699 0.10852,-0.275607 0.07235,-0.10163 0.206705,-0.175699 0.09646,-0.0534 0.265272,-0.08268 0.168809,-0.02928 0.365179,-0.02928 0.315226,0 0.506428,0.03617 0.191203,0.03445 0.318671,0.146416 0.08957,0.07752 0.141249,0.220486 0.05168,0.141248 0.05168,0.270439 v 0.807873 q 0,0.129191 0.0155,0.20326 0.01722,0.07235 0.07235,0.186035 h -0.658012 q -0.03962,-0.07062 -0.05168,-0.106797 -0.01206,-0.0379 -0.02412,-0.117133 -0.137804,0.132635 -0.273885,0.189479 -0.186034,0.07579 -0.432358,0.07579 -0.327284,0 -0.497815,-0.151584 -0.16881,-0.151583 -0.16881,-0.373792 0,-0.208427 0.122301,-0.342786 0.122301,-0.134358 0.451306,-0.199815 0.394463,-0.07924 0.511596,-0.110243 0.117133,-0.03273 0.248046,-0.0844 0,-0.129191 -0.0534,-0.180868 -0.0534,-0.05168 -0.187757,-0.05168 -0.172254,0 -0.258381,0.05512 -0.06718,0.04306 -0.108521,0.161919 z m 0.608058,0.368624 q -0.144693,0.05168 -0.301445,0.0913 -0.213595,0.05684 -0.270439,0.111965 -0.05857,0.05684 -0.05857,0.129191 0,0.08268 0.05684,0.136081 0.05857,0.05168 0.170532,0.05168 0.117133,0 0.217041,-0.05684 0.10163,-0.05684 0.142971,-0.137803 0.04306,-0.08268 0.04306,-0.213596 z" />
      <path
         id="path114"
         style="stroke-width:0.264583"
         d="m 23.070684,67.589329 v 0.695908 h 0.38585 v 0.511595 h -0.38585 v 0.649399 q 0,0.117133 0.02239,0.155029 0.03445,0.05857 0.120578,0.05857 0.07752,0 0.217041,-0.04479 l 0.05168,0.484035 q -0.260104,0.05684 -0.485757,0.05684 -0.261827,0 -0.38585,-0.06718 -0.124023,-0.06718 -0.184312,-0.20326 -0.05857,-0.137804 -0.05857,-0.444416 v -0.644232 h -0.258381 v -0.511595 h 0.258381 V 67.94934 Z" />
      <path
         id="path116"
         style="stroke-width:0.264583"
         d="m 23.814823,67.589329 h 0.701075 v 0.477144 h -0.701075 z m 0,0.695908 h 0.701075 v 1.829341 h -0.701075 z" />
      <path
         id="path118"
         style="stroke-width:0.264583"
         d="m 24.881078,69.205075 q 0,-0.418578 0.282498,-0.689018 0.282497,-0.272162 0.763087,-0.272162 0.549491,0 0.830266,0.318671 0.225653,0.256659 0.225653,0.632174 0,0.422023 -0.280775,0.692462 -0.279052,0.268717 -0.773422,0.268717 -0.440971,0 -0.713133,-0.22393 -0.334174,-0.27733 -0.334174,-0.726914 z m 0.702798,-0.0017 q 0,0.244602 0.09819,0.361735 0.09991,0.117133 0.249769,0.117133 0.151584,0 0.248047,-0.115411 0.09818,-0.11541 0.09818,-0.370347 0,-0.237711 -0.09818,-0.353121 -0.09819,-0.117133 -0.242879,-0.117133 -0.153307,0 -0.253214,0.118855 -0.09991,0.117133 -0.09991,0.358289 z" />
      <path
         id="path120"
         style="stroke-width:0.264583"
         d="m 27.323645,68.285237 h 0.652844 v 0.298 q 0.146417,-0.18259 0.296278,-0.260104 0.149861,-0.07924 0.365179,-0.07924 0.29111,0 0.454752,0.173977 0.165364,0.172255 0.165364,0.533989 v 1.162717 h -0.70452 v -1.005965 q 0,-0.172255 -0.06374,-0.242879 -0.06373,-0.07235 -0.179144,-0.07235 -0.127468,0 -0.206705,0.09646 -0.07924,0.09646 -0.07924,0.346232 v 0.878497 h -0.701076 z" />
    </g>
    <g
       style="font-style:normal;font-variant:normal;font-weight:normal;font-stretch:normal;font-size:5.29167px;line-height:1.25;font-family:'Arial Black';-inkscape-font-specification:'Arial Black, Normal';font-variant-ligatures:normal;font-variant-caps:normal;font-variant-numeric:normal;font-variant-east-asian:normal;stroke-width:0.264583"
       id="text117"
       aria-label="Wavelet">
      <path
         id="path53"
         style="font-style:normal;font-variant:normal;font-weight:normal;font-stretch:normal;font-size:5.29167px;font-family:'Arial Black';-inkscape-font-specification:'Arial Black, Normal';font-variant-ligatures:normal;font-variant-caps:normal;font-variant-numeric:normal;font-variant-east-asian:normal;stroke-width:0.264583"
         d="m 3.6877259,2.0707459 h 1.111044 L 5.1992625,4.1868971 5.7832065,2.0707459 H 6.8916667 L 7.4781945,4.1868971 7.8786871,2.0707459 H 8.9845634 L 8.1499885,5.8586307 H 7.0027711 L 6.3387285,3.4737619 5.6772698,5.8586307 H 4.5300523 Z" />
      <path
         id="path55"
         style="font-style:normal;font-variant:normal;font-weight:normal;font-stretch:normal;font-size:5.29167px;font-family:'Arial Black';-inkscape-font-specification:'Arial Black, Normal';font-variant-ligatures:normal;font-variant-caps:normal;font-variant-numeric:normal;font-variant-east-asian:normal;stroke-width:0.264583"
         d="M 10.258388,4.0034456 9.253281,3.8975089 q 0.056844,-0.26355 0.1627809,-0.4134117 0.1085206,-0.1524456 0.3100588,-0.26355 0.1446941,-0.080099 0.3979083,-0.1240235 0.253215,-0.043925 0.547771,-0.043925 0.47284,0 0.759644,0.05426 0.286804,0.051676 0.478007,0.219625 0.134359,0.116272 0.211874,0.3307293 0.07751,0.2118735 0.07751,0.4056603 v 1.211813 q 0,0.1937868 0.02326,0.3048912 0.02584,0.1085205 0.10852,0.2790529 h -0.98702 q -0.05943,-0.1059368 -0.07752,-0.1601971 -0.01809,-0.056844 -0.03617,-0.1757 -0.206706,0.1989544 -0.410828,0.2842206 -0.279053,0.1136882 -0.64854,0.1136882 -0.4909261,0 -0.7467246,-0.2273764 -0.2532147,-0.2273765 -0.2532147,-0.5606897 0,-0.3126426 0.1834514,-0.5141808 0.1834515,-0.2015382 0.6769619,-0.2997235 0.591695,-0.1188558 0.767395,-0.1653646 0.1757,-0.049093 0.372071,-0.1266074 0,-0.1937867 -0.0801,-0.2713014 -0.0801,-0.077515 -0.281636,-0.077515 -0.258383,0 -0.387574,0.082682 -0.100769,0.064596 -0.162781,0.2428794 z m 0.91209,0.5529382 q -0.217041,0.077515 -0.452169,0.1369426 -0.320394,0.085266 -0.40566,0.1679485 -0.08785,0.085266 -0.08785,0.1937868 0,0.1240235 0.08527,0.204122 0.08785,0.077515 0.255798,0.077515 0.1757,0 0.325562,-0.085266 0.152445,-0.085266 0.214457,-0.2067058 0.0646,-0.1240236 0.0646,-0.3203941 z" />
      <path
         id="path57"
         style="font-style:normal;font-variant:normal;font-weight:normal;font-stretch:normal;font-size:5.29167px;font-family:'Arial Black';-inkscape-font-specification:'Arial Black, Normal';font-variant-ligatures:normal;font-variant-caps:normal;font-variant-numeric:normal;font-variant-east-asian:normal;stroke-width:0.264583"
         d="m 12.521817,3.1146105 h 1.095541 l 0.532268,1.7389129 0.550354,-1.7389129 h 1.061951 l -1.165304,2.7440202 h -0.93276 z" />
      <path
         id="path59"
         style="font-style:normal;font-variant:normal;font-weight:normal;font-stretch:normal;font-size:5.29167px;font-family:'Arial Black';-inkscape-font-specification:'Arial Black, Normal';font-variant-ligatures:normal;font-variant-caps:normal;font-variant-numeric:normal;font-variant-east-asian:normal;stroke-width:0.264583"
         d="m 19.115734,4.7475867 h -2.108399 q 0.02842,0.2532147 0.136942,0.3772382 0.152446,0.1782838 0.397909,0.1782838 0.15503,0 0.294556,-0.077515 0.08527,-0.049093 0.183451,-0.1731162 l 1.036114,0.095601 q -0.237712,0.4134117 -0.573609,0.5942793 -0.335897,0.1782838 -0.963766,0.1782838 -0.545187,0 -0.85783,-0.1524456 -0.312642,-0.1550293 -0.519348,-0.4883425 -0.204122,-0.335897 -0.204122,-0.7880661 0,-0.643372 0.410828,-1.0412807 0.413412,-0.3979088 1.139466,-0.3979088 0.589112,0 0.930176,0.1782838 0.341065,0.1782838 0.519349,0.5167646 0.178283,0.3384809 0.178283,0.8810837 z M 18.046032,4.2437412 Q 18.015026,3.93885 17.880667,3.8070751 q -0.131775,-0.131775 -0.348816,-0.131775 -0.250631,0 -0.400493,0.1989544 -0.0956,0.1240235 -0.121439,0.3694867 z" />
      <path
         id="path61"
         style="font-style:normal;font-variant:normal;font-weight:normal;font-stretch:normal;font-size:5.29167px;font-family:'Arial Black';-inkscape-font-specification:'Arial Black, Normal';font-variant-ligatures:normal;font-variant-caps:normal;font-variant-numeric:normal;font-variant-east-asian:normal;stroke-width:0.264583"
         d="m 19.64025,2.0707459 h 1.0542 v 3.7878848 h -1.0542 z" />
      <path
         id="path63"
         style="font-style:normal;font-variant:normal;font-weight:normal;font-stretch:normal;font-size:5.29167px;font-family:'Arial Black';-inkscape-font-specification:'Arial Black, Normal';font-variant-ligatures:normal;font-variant-caps:normal;font-variant-numeric:normal;font-variant-east-asian:normal;stroke-width:0.264583"
         d="m 24.417738,4.7475867 h -2.108399 q 0.02842,0.2532147 0.136942,0.3772382 0.152446,0.1782838 0.397909,0.1782838 0.155029,0 0.294556,-0.077515 0.08527,-0.049093 0.183451,-0.1731162 l 1.036113,0.095601 q -0.237711,0.4134117 -0.573608,0.5942793 -0.335897,0.1782838 -0.963766,0.1782838 -0.545187,0 -0.85783,-0.1524456 -0.312642,-0.1550293 -0.519348,-0.4883425 -0.204122,-0.335897 -0.204122,-0.7880661 0,-0.643372 0.410828,-1.0412807 0.413411,-0.3979088 1.139466,-0.3979088 0.589111,0 0.930176,0.1782838 0.341065,0.1782838 0.519349,0.5167646 0.178283,0.3384809 0.178283,0.8810837 z M 23.348036,4.2437412 Q 23.31703,3.93885 23.182671,3.8070751 q -0.131775,-0.131775 -0.348816,-0.131775 -0.250631,0 -0.400493,0.1989544 -0.0956,0.1240235 -0.12144,0.3694867 z" />
      <path
         id="path65"
         style="font-style:normal;font-variant:normal;font-weight:normal;font-stretch:normal;font-size:5.29167px;font-family:'Arial Black';-inkscape-font-specification:'Arial Black, Normal';font-variant-ligatures:normal;font-variant-caps:normal;font-variant-numeric:normal;font-variant-east-asian:normal;stroke-width:0.264583"
         d="m 26.17474,2.0707459 v 1.0438646 h 0.578776 V 3.8820059 H 26.17474 v 0.9741014 q 0,0.1756999 0.03359,0.2325441 0.05168,0.08785 0.180868,0.08785 0.116272,0 0.325562,-0.067179 l 0.07751,0.7260543 q -0.390157,0.085266 -0.728638,0.085266 -0.392741,0 -0.578776,-0.1007691 Q 25.298824,5.7191042 25.20839,5.5149822 25.12054,5.3082763 25.12054,4.8483558 V 3.8820059 H 24.732966 V 3.1146105 H 25.12054 V 2.6107649 Z" />
    </g>
    <g
       style="font-style:normal;font-variant:normal;font-weight:normal;font-stretch:normal;font-size:3.52778px;line-height:1.25;font-family:'Arial Black';-inkscape-font-specification:'Arial Black, Normal';font-variant-ligatures:normal;font-variant-caps:normal;font-variant-numeric:normal;font-variant-east-asian:normal;fill:#000000;fill-opacity:1;stroke:none;stroke-width:0.264583"
       id="text27"
       aria-label="Details">
      <path
         id="path81"
         style="font-style:normal;font-variant:normal;font-weight:normal;font-stretch:normal;font-size:3.52778px;font-family:'Arial Black';-inkscape-font-specification:'Arial Black, Normal';font-variant-ligatures:normal;font-variant-caps:normal;font-variant-numeric:normal;font-variant-east-asian:normal;stroke-width:0.264583"
         d="m 8.6701983,21.665221 h 1.1592754 q 0.3427873,0 0.5529383,0.09302 0.211873,0.09302 0.349677,0.266995 0.137804,0.173978 0.199816,0.404799 0.06201,0.230822 0.06201,0.489204 0,0.404799 -0.09302,0.628731 -0.0913,0.222208 -0.254937,0.373793 -0.163642,0.149862 -0.3514,0.199815 -0.25666,0.0689 -0.4650883,0.0689 H 8.6701983 Z m 0.7803146,0.571886 v 1.379762 h 0.191203 q 0.2446019,0 0.3479548,-0.0534 0.1033533,-0.05512 0.1619193,-0.189481 0.05857,-0.136081 0.05857,-0.43925 0,-0.401354 -0.130914,-0.549493 -0.1309135,-0.148139 -0.4340821,-0.148139 z" />
      <path
         id="path83"
         style="font-style:normal;font-variant:normal;font-weight:normal;font-stretch:normal;font-size:3.52778px;font-family:'Arial Black';-inkscape-font-specification:'Arial Black, Normal';font-variant-ligatures:normal;font-variant-caps:normal;font-variant-numeric:normal;font-variant-east-asian:normal;stroke-width:0.264583"
         d="m 13.386537,23.449781 h -1.4056 q 0.01895,0.16881 0.09129,0.251492 0.101631,0.118856 0.265273,0.118856 0.103353,0 0.19637,-0.05168 0.05684,-0.03273 0.122301,-0.115411 l 0.690743,0.06373 q -0.158475,0.275608 -0.382406,0.396187 -0.223932,0.118856 -0.642511,0.118856 -0.363458,0 -0.571886,-0.101631 -0.208429,-0.103353 -0.346233,-0.325562 -0.136081,-0.223931 -0.136081,-0.525377 0,-0.428915 0.273885,-0.694187 0.275608,-0.265273 0.759644,-0.265273 0.392742,0 0.620118,0.118856 0.227376,0.118856 0.346232,0.34451 0.118856,0.225654 0.118856,0.587389 z m -0.713135,-0.335897 q -0.02067,-0.20326 -0.110243,-0.29111 -0.08785,-0.08785 -0.232544,-0.08785 -0.167088,0 -0.266995,0.132636 -0.06373,0.08268 -0.08096,0.246324 z" />
      <path
         id="path85"
         style="font-style:normal;font-variant:normal;font-weight:normal;font-stretch:normal;font-size:3.52778px;font-family:'Arial Black';-inkscape-font-specification:'Arial Black, Normal';font-variant-ligatures:normal;font-variant-caps:normal;font-variant-numeric:normal;font-variant-east-asian:normal;stroke-width:0.264583"
         d="m 14.55787,21.665221 v 0.695909 h 0.385851 v 0.511597 H 14.55787 v 0.649401 q 0,0.117134 0.02239,0.15503 0.03445,0.05857 0.120579,0.05857 0.07751,0 0.217041,-0.04479 l 0.05168,0.484036 q -0.260105,0.05685 -0.485759,0.05685 -0.261827,0 -0.38585,-0.06718 -0.124024,-0.06718 -0.184313,-0.203261 -0.05857,-0.137804 -0.05857,-0.444417 V 22.872727 H 13.596688 V 22.36113 h 0.258382 v -0.335897 z" />
      <path
         id="path87"
         style="font-style:normal;font-variant:normal;font-weight:normal;font-stretch:normal;font-size:3.52778px;font-family:'Arial Black';-inkscape-font-specification:'Arial Black, Normal';font-variant-ligatures:normal;font-variant-caps:normal;font-variant-numeric:normal;font-variant-east-asian:normal;stroke-width:0.264583"
         d="m 15.915239,22.953687 -0.670072,-0.07062 q 0.0379,-0.1757 0.108521,-0.275608 0.07235,-0.10163 0.206706,-0.1757 0.09646,-0.0534 0.265272,-0.08268 0.16881,-0.02928 0.365181,-0.02928 0.315226,0 0.506429,0.03617 0.191203,0.03445 0.318671,0.146416 0.08957,0.07751 0.141249,0.220487 0.05168,0.141249 0.05168,0.27044 v 0.807875 q 0,0.129191 0.0155,0.203261 0.01722,0.07235 0.07235,0.186035 h -0.658014 q -0.03962,-0.07062 -0.05168,-0.106798 -0.01206,-0.0379 -0.02412,-0.117133 -0.137804,0.132636 -0.273885,0.18948 -0.186035,0.07579 -0.43236,0.07579 -0.327284,0 -0.497817,-0.151585 -0.168809,-0.151584 -0.168809,-0.373793 0,-0.208428 0.122301,-0.342787 0.122301,-0.134359 0.451307,-0.199816 0.394464,-0.07924 0.511597,-0.110243 0.117134,-0.03273 0.248047,-0.08441 0,-0.129191 -0.0534,-0.180867 -0.0534,-0.05168 -0.187757,-0.05168 -0.172255,0 -0.258383,0.05512 -0.06718,0.04306 -0.10852,0.161919 z m 0.608059,0.368626 q -0.144694,0.05168 -0.301446,0.09129 -0.213596,0.05684 -0.27044,0.111966 -0.05857,0.05684 -0.05857,0.129191 0,0.08268 0.05684,0.136081 0.05857,0.05168 0.170532,0.05168 0.117133,0 0.217041,-0.05684 0.101631,-0.05684 0.142972,-0.137804 0.04306,-0.08268 0.04306,-0.213596 z" />
      <path
         id="path89"
         style="font-style:normal;font-variant:normal;font-weight:normal;font-stretch:normal;font-size:3.52778px;font-family:'Arial Black';-inkscape-font-specification:'Arial Black, Normal';font-variant-ligatures:normal;font-variant-caps:normal;font-variant-numeric:normal;font-variant-east-asian:normal;stroke-width:0.264583"
         d="m 17.658459,21.665221 h 0.701077 v 0.477146 h -0.701077 z m 0,0.695909 h 0.701077 v 1.829347 h -0.701077 z" />
      <path
         id="path91"
         style="font-style:normal;font-variant:normal;font-weight:normal;font-stretch:normal;font-size:3.52778px;font-family:'Arial Black';-inkscape-font-specification:'Arial Black, Normal';font-variant-ligatures:normal;font-variant-caps:normal;font-variant-numeric:normal;font-variant-east-asian:normal;stroke-width:0.264583"
         d="m 18.834959,21.665221 h 0.7028 v 2.525256 h -0.7028 z" />
      <path
         id="path93"
         style="font-style:normal;font-variant:normal;font-weight:normal;font-stretch:normal;font-size:3.52778px;font-family:'Arial Black';-inkscape-font-specification:'Arial Black, Normal';font-variant-ligatures:normal;font-variant-caps:normal;font-variant-numeric:normal;font-variant-east-asian:normal;stroke-width:0.264583"
         d="m 19.865043,23.684048 0.69591,-0.06546 q 0.04306,0.124024 0.120578,0.177423 0.07752,0.0534 0.206706,0.0534 0.141249,0 0.218764,-0.06029 0.06029,-0.04479 0.06029,-0.111965 0,-0.07579 -0.07924,-0.117134 -0.05684,-0.02928 -0.301446,-0.07235 -0.365181,-0.06373 -0.508152,-0.117133 -0.141249,-0.05512 -0.239435,-0.184313 -0.09646,-0.129191 -0.09646,-0.294555 0,-0.180868 0.105075,-0.311782 0.105076,-0.130914 0.289388,-0.194648 0.184313,-0.06546 0.494372,-0.06546 0.327284,0 0.482314,0.04995 0.156752,0.04995 0.260105,0.15503 0.105075,0.105075 0.173977,0.28422 l -0.664904,0.06546 q -0.02584,-0.08785 -0.08613,-0.129191 -0.08268,-0.05512 -0.199816,-0.05512 -0.118856,0 -0.173977,0.04306 -0.0534,0.04134 -0.0534,0.10163 0,0.06718 0.0689,0.101631 0.0689,0.03445 0.299724,0.06201 0.349677,0.03962 0.52021,0.110243 0.170532,0.07062 0.260105,0.201538 0.09129,0.130914 0.09129,0.287666 0,0.158474 -0.09646,0.308336 -0.09474,0.149862 -0.301446,0.239434 -0.204983,0.08785 -0.559828,0.08785 -0.501262,0 -0.714858,-0.142971 -0.211874,-0.142972 -0.272163,-0.406522 z" />
    </g>
    <g
       style="font-style:normal;font-weight:normal;font-size:10.5833px;line-height:1.25;font-family:sans-serif;fill:#000000;fill-opacity:1;stroke:none;stroke-width:0.264583"
       id="text31"
       aria-label="1">
      <path
         id="path154"
         style="font-style:normal;font-variant:normal;font-weight:normal;font-stretch:normal;font-size:3.52778px;font-family:'Arial Black';-inkscape-font-specification:'Arial Black, Normal';font-variant-ligatures:normal;font-variant-caps:normal;font-variant-numeric:normal;font-variant-east-asian:normal;stroke-width:0.264583"
         d="m 8.4275703,38.158616 v 2.56832 H 7.7178802 v -1.68293 Q 7.5456253,39.17492 7.3837057,39.25588 7.2235086,39.336839 6.9806293,39.410909 v -0.575331 q 0.3582901,-0.115411 0.5563832,-0.277331 0.1980932,-0.161919 0.3100588,-0.399631 z" />
    </g>
    <g
       style="font-style:normal;font-weight:normal;font-size:10.5833px;line-height:1.25;font-family:sans-serif;fill:#000000;fill-opacity:1;stroke:none;stroke-width:0.264583"
       id="text35"
       aria-label="2">
      <path
         id="path157"
         style="font-style:normal;font-variant:normal;font-weight:normal;font-stretch:normal;font-size:3.52778px;font-family:'Arial Black';-inkscape-font-specification:'Arial Black, Normal';font-variant-ligatures:normal;font-variant-caps:normal;font-variant-numeric:normal;font-variant-east-asian:normal;stroke-width:0.264583"
         d="m 23.828378,40.726936 h -2.104955 q 0.03617,-0.311781 0.218764,-0.585666 0.184312,-0.275608 0.689019,-0.649401 0.308337,-0.229099 0.394464,-0.347955 0.08613,-0.118856 0.08613,-0.225654 0,-0.115411 -0.08613,-0.196371 -0.08441,-0.08268 -0.213596,-0.08268 -0.134359,0 -0.220486,0.08441 -0.08441,0.0844 -0.113689,0.298001 L 21.7751,38.964769 q 0.04134,-0.296279 0.151584,-0.461643 0.110243,-0.167087 0.310059,-0.254937 0.201538,-0.08957 0.556383,-0.08957 0.370348,0 0.575331,0.0844 0.206706,0.08441 0.323839,0.260105 0.118856,0.173977 0.118856,0.391018 0,0.230822 -0.136081,0.440973 -0.134359,0.210151 -0.490927,0.461643 -0.211873,0.146417 -0.28422,0.204983 -0.07062,0.05857 -0.167087,0.153307 h 1.095541 z" />
    </g>
    <g
       style="font-size:3.52777px;line-height:1.25;font-family:'Arial Black';-inkscape-font-specification:'Arial Black, Normal';stroke-width:0.264583"
       id="text43"
       aria-label="4">
      <path
         id="path163"
         style="stroke-width:0.264583"
         d="M 22.950738,57.074898 H 21.67261 v -0.577052 l 1.278128,-1.519284 h 0.611503 v 1.552012 h 0.316948 v 0.544324 h -0.316948 v 0.471977 h -0.611503 z m 0,-0.544324 v -0.794093 l -0.675237,0.794093 z" />
    </g>
    <g
       style="font-size:3.52777px;line-height:1.25;font-family:'Arial Black';-inkscape-font-specification:'Arial Black, Normal';stroke-width:0.264583"
       id="text39"
       aria-label="3">
      <path
         id="path160"
         style="stroke-width:0.264583"
         d="M 7.362175,55.730454 6.6989956,55.611599 q 0.082682,-0.316949 0.3169481,-0.485758 0.2359885,-0.168809 0.6666245,-0.168809 0.4943701,0 0.7148558,0.184312 0.2204856,0.184312 0.2204856,0.463364 0,0.163642 -0.089572,0.296278 -0.089572,0.132636 -0.2704394,0.232543 0.1464162,0.03617 0.2239307,0.0844 0.1257457,0.07751 0.1946475,0.204983 0.070624,0.125745 0.070624,0.301445 0,0.220486 -0.1154105,0.423746 -0.1154104,0.201537 -0.3324509,0.31178 -0.2170406,0.10852 -0.5701621,0.10852 -0.3445088,0 -0.5443239,-0.08096 Q 6.9866604,57.406489 6.8574697,57.25146 6.7300014,57.094709 6.6610996,56.85872 l 0.7010754,-0.09302 q 0.041341,0.211873 0.1274683,0.294555 0.08785,0.08096 0.2222082,0.08096 0.1412486,0 0.2342659,-0.103353 0.09474,-0.103353 0.09474,-0.275607 0,-0.1757 -0.091295,-0.272162 -0.089572,-0.09646 -0.2446012,-0.09646 -0.082682,0 -0.2273758,0.04134 l 0.036173,-0.501261 q 0.058567,0.0086 0.091295,0.0086 0.1378035,0 0.2290984,-0.08785 0.093017,-0.08785 0.093017,-0.208428 0,-0.11541 -0.068902,-0.184312 -0.068902,-0.0689 -0.1894798,-0.0689 -0.1240232,0 -0.2015377,0.07579 -0.077514,0.07407 -0.1050752,0.261827 z" />
    </g>
    <g
       style="font-size:3.52777px;line-height:1.25;font-family:'Arial Black';-inkscape-font-specification:'Arial Black, Normal';stroke-width:0.264583"
       id="text85"
       aria-label="Out">
      <path
         id="path128"
         style="stroke-width:0.264583"
         d="m 18.656248,114.23236 q 0,-0.61839 0.344509,-0.9629 0.344509,-0.34451 0.959457,-0.34451 0.630451,0 0.971515,0.33934 0.341064,0.33762 0.341064,0.9474 0,0.44269 -0.149862,0.72691 -0.148138,0.2825 -0.430636,0.44098 -0.280774,0.15675 -0.701075,0.15675 -0.427191,0 -0.707966,-0.13608 -0.279052,-0.13609 -0.453029,-0.43064 -0.173977,-0.29456 -0.173977,-0.73725 z m 0.780313,0.003 q 0,0.3824 0.141248,0.54949 0.142972,0.16708 0.387573,0.16708 0.251491,0 0.389295,-0.16364 0.137803,-0.16364 0.137803,-0.58738 0,-0.35657 -0.144693,-0.52021 -0.142972,-0.16537 -0.389295,-0.16537 -0.235989,0 -0.37896,0.16709 -0.142971,0.16709 -0.142971,0.55294 z" />
      <path
         id="path130"
         style="stroke-width:0.264583"
         d="M 23.577556,115.49326 H 22.92299 v -0.29627 q -0.146416,0.18259 -0.296278,0.2601 -0.148139,0.0775 -0.365179,0.0775 -0.289388,0 -0.454752,-0.17225 -0.163641,-0.17398 -0.163641,-0.53399 v -1.16444 h 0.70452 v 1.00597 q 0,0.17225 0.06373,0.2446 0.06373,0.0724 0.179145,0.0724 0.125745,0 0.204982,-0.0965 0.08096,-0.0965 0.08096,-0.34623 v -0.88022 h 0.701075 z" />
      <path
         id="path132"
         style="stroke-width:0.264583"
         d="m 24.852239,112.96801 v 0.69591 h 0.38585 v 0.5116 h -0.38585 v 0.6494 q 0,0.11713 0.02239,0.15503 0.03445,0.0586 0.120578,0.0586 0.07751,0 0.21704,-0.0448 l 0.05168,0.48403 q -0.260104,0.0568 -0.485758,0.0568 -0.261826,0 -0.38585,-0.0672 -0.124023,-0.0672 -0.184312,-0.20327 -0.05857,-0.1378 -0.05857,-0.44441 v -0.64423 h -0.258382 v -0.5116 h 0.258382 v -0.33589 z" />
    </g>
    <g
       style="font-size:3.52777px;line-height:1.25;font-family:'Arial Black';-inkscape-font-specification:'Arial Black, Normal';stroke-width:0.264583"
       id="text81"
       aria-label="In">
      <path
         id="path123"
         style="stroke-width:0.264583"
         d="m 6.9058897,112.96801 h 0.7820349 v 2.52525 H 6.9058897 Z" />
      <path
         id="path125"
         style="stroke-width:0.264583"
         d="m 8.1995202,113.66392 h 0.6528442 v 0.298 q 0.1464162,-0.18259 0.2962775,-0.2601 0.1498614,-0.0792 0.3651793,-0.0792 0.29111,0 0.4547517,0.17398 0.1653641,0.17225 0.1653641,0.53399 v 1.16271 H 9.4294166 v -1.00596 q 0,-0.17226 -0.063734,-0.24288 -0.063734,-0.0724 -0.1791446,-0.0724 -0.1274683,0 -0.2067053,0.0965 -0.079237,0.0965 -0.079237,0.34624 v 0.87849 H 8.1995202 Z" />
    </g>
    <g
       style="font-size:3.52777px;line-height:1.25;font-family:'Arial Black';-inkscape-font-specification:'Arial Black, Normal';stroke-width:0.264583"
       id="text51"
       aria-label="Shaper">
      <path
         id="path68"
         style="font-style:normal;font-variant:normal;font-weight:normal;font-stretch:normal;font-size:5.29167px;font-family:'Arial Black';-inkscape-font-specification:'Arial Black, Normal';font-variant-ligatures:normal;font-variant-caps:normal;font-variant-numeric:normal;font-variant-east-asian:normal;stroke-width:0.264583"
         d="m 5.1062458,10.653096 1.1136278,-0.06976 q 0.036174,0.271301 0.1472779,0.413411 0.1808676,0.229961 0.5167646,0.229961 0.2506309,0 0.3849897,-0.116273 0.1369426,-0.118855 0.1369426,-0.273885 0,-0.147278 -0.1291912,-0.26355 Q 7.1474661,10.456725 6.6772103,10.353372 5.907231,10.180256 5.5790854,9.8934518 5.2483561,9.6066474 5.2483561,9.1622298 q 0,-0.291972 0.1679485,-0.5503543 0.1705323,-0.2609662 0.5090131,-0.4082441 0.3410647,-0.1498617 0.9327602,-0.1498617 0.7260543,0 1.1058763,0.2713014 Q 8.34636,8.5937887 8.4187071,9.1829004 L 7.3154146,9.247496 Q 7.2714896,8.9916975 7.1293793,8.8754254 6.9898529,8.7591534 6.7418059,8.7591534 q -0.2041221,0 -0.307475,0.08785 -0.1033529,0.085266 -0.1033529,0.2092896 0,0.090434 0.085266,0.1627809 0.082682,0.074931 0.3927412,0.1395265 0.7673954,0.1653646 1.0981248,0.335897 0.3333132,0.1679485 0.4831749,0.4185796 0.1524456,0.250631 0.1524456,0.560689 0,0.364319 -0.2015382,0.671794 -0.2015382,0.307475 -0.5632735,0.467672 -0.3617352,0.157614 -0.9120895,0.157614 -0.9663499,0 -1.3384204,-0.372071 -0.3720706,-0.37207 -0.4211632,-0.945679 z" />
      <path
         id="path70"
         style="font-style:normal;font-variant:normal;font-weight:normal;font-stretch:normal;font-size:5.29167px;font-family:'Arial Black';-inkscape-font-specification:'Arial Black, Normal';font-variant-ligatures:normal;font-variant-caps:normal;font-variant-numeric:normal;font-variant-east-asian:normal;stroke-width:0.264583"
         d="m 9.0646629,8.1183652 h 1.0516161 v 1.3952645 q 0.214457,-0.2222087 0.426331,-0.3178102 0.211873,-0.095602 0.501261,-0.095602 0.428915,0 0.674378,0.2609662 0.248047,0.2609661 0.248047,0.8009848 v 1.744081 h -1.056783 v -1.508953 q 0,-0.258382 -0.0956,-0.364319 -0.0956,-0.1085204 -0.268717,-0.1085204 -0.191203,0 -0.310059,0.1446944 -0.118856,0.144694 -0.118856,0.519348 v 1.31775 H 9.0646629 Z" />
      <path
         id="path72"
         style="font-style:normal;font-variant:normal;font-weight:normal;font-stretch:normal;font-size:5.29167px;font-family:'Arial Black';-inkscape-font-specification:'Arial Black, Normal';font-variant-ligatures:normal;font-variant-caps:normal;font-variant-numeric:normal;font-variant-east-asian:normal;stroke-width:0.264583"
         d="M 13.557931,10.051065 12.552824,9.9451282 q 0.05684,-0.2635499 0.162781,-0.4134117 0.108521,-0.1524456 0.310059,-0.26355 0.144694,-0.080099 0.397909,-0.1240235 0.253214,-0.043925 0.54777,-0.043925 0.47284,0 0.759644,0.05426 0.286804,0.051677 0.478007,0.219625 0.134359,0.116272 0.211874,0.3307294 0.07752,0.2118735 0.07752,0.4056603 v 1.211813 q 0,0.193787 0.02325,0.304891 0.02584,0.108521 0.108521,0.279053 h -0.987021 q -0.05943,-0.105937 -0.07752,-0.160197 -0.01809,-0.05684 -0.03617,-0.1757 -0.206706,0.198954 -0.410828,0.284221 -0.279053,0.113688 -0.64854,0.113688 -0.490926,0 -0.746724,-0.227377 -0.253215,-0.227376 -0.253215,-0.560689 0,-0.312643 0.183451,-0.514181 0.183452,-0.201538 0.676962,-0.299724 0.591695,-0.118855 0.767395,-0.165364 0.1757,-0.04909 0.372071,-0.126608 0,-0.1937864 -0.0801,-0.2713011 -0.0801,-0.077515 -0.281636,-0.077515 -0.258383,0 -0.387574,0.082682 -0.100769,0.064596 -0.162781,0.2428794 z m 0.91209,0.552938 q -0.217041,0.07752 -0.452169,0.136943 -0.320394,0.08527 -0.40566,0.167948 -0.08785,0.08527 -0.08785,0.193787 0,0.124024 0.08527,0.204122 0.08785,0.07752 0.255798,0.07752 0.1757,0 0.325562,-0.08527 0.152446,-0.08527 0.214457,-0.206706 0.0646,-0.124024 0.0646,-0.320394 z" />
      <path
         id="path74"
         style="font-style:normal;font-variant:normal;font-weight:normal;font-stretch:normal;font-size:5.29167px;font-family:'Arial Black';-inkscape-font-specification:'Arial Black, Normal';font-variant-ligatures:normal;font-variant-caps:normal;font-variant-numeric:normal;font-variant-east-asian:normal;stroke-width:0.264583"
         d="M 16.139171,12.950115 V 9.1622298 h 0.984436 V 9.56789 q 0.204122,-0.2557985 0.374655,-0.3462323 0.22996,-0.1214397 0.509013,-0.1214397 0.550354,0 0.850077,0.4211632 0.302308,0.4211632 0.302308,1.0412808 0,0.684713 -0.328146,1.046448 -0.328145,0.359152 -0.829407,0.359152 -0.242879,0 -0.444418,-0.08268 -0.198954,-0.08268 -0.356567,-0.245463 v 1.309999 z m 1.054199,-2.408124 q 0,0.325562 0.136943,0.483175 0.136943,0.157614 0.346232,0.157614 0.183452,0 0.307475,-0.149862 0.124024,-0.152446 0.124024,-0.514181 0,-0.333313 -0.129191,-0.488343 -0.129192,-0.1576128 -0.315227,-0.1576128 -0.201538,0 -0.335897,0.1576128 -0.134359,0.157614 -0.134359,0.511597 z" />
      <path
         id="path76"
         style="font-style:normal;font-variant:normal;font-weight:normal;font-stretch:normal;font-size:5.29167px;font-family:'Arial Black';-inkscape-font-specification:'Arial Black, Normal';font-variant-ligatures:normal;font-variant-caps:normal;font-variant-numeric:normal;font-variant-east-asian:normal;stroke-width:0.264583"
         d="m 22.715,10.795206 h -2.108399 q 0.02842,0.253215 0.136942,0.377238 0.152446,0.178284 0.397909,0.178284 0.155029,0 0.294556,-0.07752 0.08527,-0.04909 0.183451,-0.173116 l 1.036113,0.0956 q -0.237711,0.413411 -0.573608,0.594279 -0.335897,0.178284 -0.963766,0.178284 -0.545187,0 -0.85783,-0.152446 -0.312642,-0.155029 -0.519348,-0.488342 -0.204122,-0.335897 -0.204122,-0.788066 0,-0.6433724 0.410828,-1.0412812 0.413411,-0.3979088 1.139466,-0.3979088 0.589111,0 0.930176,0.1782838 0.341065,0.1782838 0.519348,0.5167647 Q 22.715,10.133747 22.715,10.67635 Z m -1.069703,-0.503845 q -0.03101,-0.3048916 -0.165364,-0.4366666 -0.131775,-0.131775 -0.348816,-0.131775 -0.250631,0 -0.400493,0.1989544 -0.0956,0.1240232 -0.12144,0.3694872 z" />
      <path
         id="path78"
         style="font-style:normal;font-variant:normal;font-weight:normal;font-stretch:normal;font-size:5.29167px;font-family:'Arial Black';-inkscape-font-specification:'Arial Black, Normal';font-variant-ligatures:normal;font-variant-caps:normal;font-variant-numeric:normal;font-variant-east-asian:normal;stroke-width:0.264583"
         d="m 23.213678,9.1622298 h 0.984437 V 9.611815 q 0.14211,-0.291972 0.291972,-0.4004926 0.152445,-0.1111044 0.374654,-0.1111044 0.232544,0 0.509013,0.1446941 l -0.325562,0.7493088 q -0.186035,-0.077515 -0.294555,-0.077515 -0.206706,0 -0.320395,0.1705318 -0.16278,0.240296 -0.16278,0.899171 v 0.919841 h -1.056784 z" />
    </g>
  </g>
  <g
     inkscape:groupmode="layer"
     id="layer2"
     inkscape:label="components"
     style="display:inline">
    <circle
       style="fill:#00ff00;fill-rule:evenodd;stroke-width:0.264583"
       id="path21"
       cx="8.5199137"
       cy="104.6994"
       label="input"
       r="4" />
    <circle
       style="fill:#0000ff;fill-rule:evenodd;stroke-width:0.264583"
       id="path23"
       cx="21.960087"
       cy="104.6994"
       label="output"
       r="4" />
    <circle
       style="fill:#ff0000;fill-rule:evenodd;stroke-width:0.264583"
       id="path19"
       cx="15.24"
       cy="78.808037"
       label="approx"
       r="4" />
    <circle
       style="fill:#ff0000;fill-rule:evenodd;stroke-width:0.264583"
       id="path13"
       cx="22.7759"
       cy="32.316963"
       label="detail2"
       r="4" />
    <circle
       style="fill:#ff0000;fill-rule:evenodd;stroke-width:0.264583"
       id="path15"
       cx="7.7041001"
       cy="48.522697"
       label="detail3"
       r="4" />
    <circle
       style="fill:#ff0000;fill-rule:evenodd;stroke-width:0.264583"
       id="path17"
       cx="22.7759"
       cy="48.522697"
       label="detail4"
       r="4" />
    <circle
       r="4"
       style="fill:#ff0000;fill-rule:evenodd;stroke-width:0.264583"
       id="path11"
       cx="7.7040997"
       cy="32.316963"
       label="detail1" />
  </g>
</svg>
