<?xml version="1.0" encoding="UTF-8" standalone="no"?>
<svg
   xmlns:dc="http://purl.org/dc/elements/1.1/"
   xmlns:cc="http://creativecommons.org/ns#"
   xmlns:rdf="http://www.w3.org/1999/02/22-rdf-syntax-ns#"
   xmlns:svg="http://www.w3.org/2000/svg"
   xmlns="http://www.w3.org/2000/svg"
   xmlns:sodipodi="http://sodipodi.sourceforge.net/DTD/sodipodi-0.dtd"
   xmlns:inkscape="http://www.inkscape.org/namespaces/inkscape"
   width="30.48mm"
   height="128.5mm"
   viewBox="0 0 30.48 128.5"
   version="1.1"
   id="svg8"
   inkscape:version="1.0 (4035a4f, 2020-05-01)"
   sodipodi:docname="Wavelet.svg">
  <defs
     id="defs2" />
  <sodipodi:namedview
     id="base"
     pagecolor="#d7d7d7"
     bordercolor="#000000"
     borderopacity="1"
     inkscape:pageopacity="0"
     inkscape:pageshadow="2"
     inkscape:zoom="1.4"
     inkscape:cx="144.28571"
     inkscape:cy="265.71429"
     inkscape:document-units="mm"
     inkscape:current-layer="layer2"
     inkscape:document-rotation="0"
     showgrid="false"
     inkscape:showpageshadow="false"
     inkscape:window-width="1434"
     inkscape:window-height="1137"
     inkscape:window-x="2801"
     inkscape:window-y="165"
     inkscape:window-maximized="0" />
  <metadata
     id="metadata5">
    <rdf:RDF>
      <cc:Work
         rdf:about="">
        <dc:format>image/svg+xml</dc:format>
        <dc:type
           rdf:resource="http://purl.org/dc/dcmitype/StillImage" />
        <dc:title />
      </cc:Work>
    </rdf:RDF>
  </metadata>
  <g
     style="display:inline"
     inkscape:label="bg"
     id="layer3"
     inkscape:groupmode="layer">
    <rect
       y="0.25"
       x="0"
       height="128"
       width="30.48"
       id="rect45"
       style="fill:#ffffff;stroke-width:0.264583" />
    <rect
       ry="2.1774645"
       y="22.176491"
       x="0.84730244"
       height="42.581524"
       width="28.785395"
       id="rect181-6"
       style="display:inline;fill:none;fill-opacity:1;stroke:#000080;stroke-width:0.316;stroke-miterlimit:4;stroke-dasharray:none" />
    <g
       aria-label="1"
       id="text1083"
       style="font-style:normal;font-variant:normal;font-weight:bold;font-stretch:normal;font-size:3.175px;line-height:1.25;font-family:Arial;-inkscape-font-specification:'Arial, Bold';font-variant-ligatures:normal;font-variant-caps:normal;font-variant-numeric:normal;font-variant-east-asian:normal;stroke-width:0.264583">
      <path
         d="m 14.100727,33.457977 h -0.435633 v -1.64176 q -0.238745,0.223242 -0.562756,0.330212 v -0.395324 q 0.170532,-0.05581 0.37052,-0.21084 0.199988,-0.15658 0.274402,-0.364319 h 0.353467 z"
         style="font-style:normal;font-variant:normal;font-weight:bold;font-stretch:normal;font-size:3.175px;font-family:Arial;-inkscape-font-specification:'Arial, Bold';font-variant-ligatures:normal;font-variant-caps:normal;font-variant-numeric:normal;font-variant-east-asian:normal;stroke-width:0.264583"
         id="path1231" />
    </g>
    <g
       aria-label="2"
       id="text1087"
       style="font-style:normal;font-variant:normal;font-weight:bold;font-stretch:normal;font-size:3.175px;line-height:1.25;font-family:Arial;-inkscape-font-specification:'Arial, Bold';font-variant-ligatures:normal;font-variant-caps:normal;font-variant-numeric:normal;font-variant-east-asian:normal;stroke-width:0.264583">
      <path
         d="m 28.820388,33.053351 v 0.404626 H 27.29335 q 0.02481,-0.229443 0.148828,-0.434082 0.124023,-0.206189 0.489893,-0.545703 0.294555,-0.274402 0.361218,-0.37207 0.08992,-0.134876 0.08992,-0.266651 0,-0.145727 -0.07906,-0.223242 -0.07752,-0.07906 -0.215491,-0.07906 -0.136426,0 -0.217041,0.08217 -0.08061,0.08216 -0.09302,0.272851 l -0.434082,-0.04341 q 0.03876,-0.359668 0.243395,-0.516247 0.204639,-0.15658 0.511597,-0.15658 0.336414,0 0.52865,0.181384 0.192236,0.181385 0.192236,0.451136 0,0.153479 -0.05581,0.293005 -0.05426,0.137976 -0.173633,0.289905 -0.07906,0.100769 -0.285254,0.289905 -0.206189,0.189135 -0.261999,0.251147 -0.05426,0.06201 -0.08837,0.120923 z"
         style="font-style:normal;font-variant:normal;font-weight:bold;font-stretch:normal;font-size:3.175px;font-family:Arial;-inkscape-font-specification:'Arial, Bold';font-variant-ligatures:normal;font-variant-caps:normal;font-variant-numeric:normal;font-variant-east-asian:normal;stroke-width:0.264583"
         id="path1234" />
    </g>
    <g
       aria-label="3"
       id="text1091"
       style="font-style:normal;font-variant:normal;font-weight:bold;font-stretch:normal;font-size:3.175px;line-height:1.25;font-family:Arial;-inkscape-font-specification:'Arial, Bold';font-variant-ligatures:normal;font-variant-caps:normal;font-variant-numeric:normal;font-variant-east-asian:normal;stroke-width:0.264583">
      <path
         d="m 13.102338,46.773412 0.42168,-0.05116 q 0.02015,0.16123 0.10852,0.246496 0.08837,0.08527 0.213941,0.08527 0.134875,0 0.226342,-0.102319 0.09302,-0.102319 0.09302,-0.275952 0,-0.164331 -0.08837,-0.260449 -0.08837,-0.09612 -0.21549,-0.09612 -0.08372,0 -0.199988,0.03256 l 0.04806,-0.355017 q 0.176733,0.0046 0.269751,-0.07596 0.09302,-0.08217 0.09302,-0.217041 0,-0.114721 -0.06821,-0.182934 -0.06821,-0.06821 -0.181385,-0.06821 -0.111621,0 -0.190686,0.07751 -0.07906,0.07751 -0.09612,0.226343 l -0.401526,-0.06821 q 0.04186,-0.206189 0.125574,-0.328662 0.08527,-0.124023 0.235644,-0.193786 0.151929,-0.07131 0.339515,-0.07131 0.32091,0 0.514697,0.204639 0.15968,0.167431 0.15968,0.378271 0,0.299207 -0.327112,0.47749 0.195337,0.04186 0.311609,0.187586 0.117822,0.145727 0.117822,0.351916 0,0.299207 -0.218591,0.510047 -0.218591,0.21084 -0.544153,0.21084 -0.308508,0 -0.511596,-0.176734 -0.203089,-0.178283 -0.235645,-0.465088 z"
         style="font-style:normal;font-variant:normal;font-weight:bold;font-stretch:normal;font-size:3.175px;font-family:Arial;-inkscape-font-specification:'Arial, Bold';font-variant-ligatures:normal;font-variant-caps:normal;font-variant-numeric:normal;font-variant-east-asian:normal;stroke-width:0.264583"
         id="path1240" />
    </g>
    <g
       aria-label="4"
       id="text1095"
       style="font-style:normal;font-variant:normal;font-weight:bold;font-stretch:normal;font-size:3.175px;line-height:1.25;font-family:Arial;-inkscape-font-specification:'Arial, Bold';font-variant-ligatures:normal;font-variant-caps:normal;font-variant-numeric:normal;font-variant-east-asian:normal;stroke-width:0.264583">
      <path
         d="m 28.223525,47.395855 v -0.457336 h -0.930176 v -0.381373 l 0.985986,-1.443322 h 0.36587 v 1.441772 h 0.282153 v 0.382923 h -0.282153 v 0.457336 z m 0,-0.840259 v -0.776697 l -0.522449,0.776697 z"
         style="font-style:normal;font-variant:normal;font-weight:bold;font-stretch:normal;font-size:3.175px;font-family:Arial;-inkscape-font-specification:'Arial, Bold';font-variant-ligatures:normal;font-variant-caps:normal;font-variant-numeric:normal;font-variant-east-asian:normal;stroke-width:0.264583"
         id="path1237" />
    </g>
    <g
       aria-label="approx"
       id="text1099"
       style="font-style:normal;font-variant:normal;font-weight:bold;font-stretch:normal;font-size:3.175px;line-height:1.25;font-family:Arial;-inkscape-font-specification:'Arial, Bold';font-variant-ligatures:normal;font-variant-caps:normal;font-variant-numeric:normal;font-variant-east-asian:normal;stroke-width:0.264583">
      <path
         d="m 13.542621,59.324023 -0.395325,-0.07131 q 0.06666,-0.238745 0.229443,-0.353467 0.162781,-0.114721 0.483692,-0.114721 0.291455,0 0.434082,0.06976 0.142627,0.06821 0.199988,0.175183 0.05891,0.10542 0.05891,0.389123 l -0.0047,0.508496 q 0,0.217041 0.02015,0.320911 0.0217,0.102319 0.07906,0.220142 h -0.430982 q -0.01705,-0.04341 -0.04186,-0.128675 -0.01085,-0.03876 -0.0155,-0.05116 -0.111621,0.10852 -0.238745,0.16278 -0.127124,0.05426 -0.271301,0.05426 -0.254248,0 -0.401526,-0.137976 -0.145727,-0.137976 -0.145727,-0.348816 0,-0.139527 0.06666,-0.248047 0.06666,-0.110071 0.186035,-0.167432 0.120923,-0.05891 0.347266,-0.102319 0.305408,-0.05736 0.42323,-0.10697 v -0.04341 q 0,-0.125573 -0.06201,-0.178283 -0.06201,-0.05426 -0.234094,-0.05426 -0.116272,0 -0.181384,0.04651 -0.06511,0.04496 -0.10542,0.15968 z m 0.58291,0.353467 q -0.08372,0.02791 -0.2651,0.06666 -0.181384,0.03876 -0.237195,0.07596 -0.08527,0.06046 -0.08527,0.153479 0,0.09147 0.06821,0.15813 0.06821,0.06666 0.173633,0.06666 0.117822,0 0.224792,-0.07751 0.07906,-0.05891 0.10387,-0.144177 0.01705,-0.05581 0.01705,-0.21239 z"
         style="font-style:normal;font-variant:normal;font-weight:bold;font-stretch:normal;font-size:3.175px;font-family:Arial;-inkscape-font-specification:'Arial, Bold';font-variant-ligatures:normal;font-variant-caps:normal;font-variant-numeric:normal;font-variant-east-asian:normal;stroke-width:0.264583"
         id="path1243" />
      <path
         d="m 14.971991,58.821729 h 0.406177 v 0.241845 q 0.07906,-0.124023 0.21394,-0.201538 0.134876,-0.07751 0.299207,-0.07751 0.286804,0 0.486792,0.224792 0.199987,0.224792 0.199987,0.626318 0,0.412378 -0.201538,0.641822 -0.201538,0.227893 -0.488342,0.227893 -0.136426,0 -0.248047,-0.05426 -0.110071,-0.05426 -0.232544,-0.186035 v 0.829407 h -0.435632 z m 0.430981,0.7953 q 0,0.277502 0.110071,0.410827 0.110071,0.131775 0.268201,0.131775 0.151929,0 0.252698,-0.120922 0.100769,-0.122474 0.100769,-0.399976 0,-0.258899 -0.10387,-0.384473 -0.10387,-0.125573 -0.257349,-0.125573 -0.15968,0 -0.2651,0.124023 -0.10542,0.122473 -0.10542,0.364319 z"
         style="font-style:normal;font-variant:normal;font-weight:bold;font-stretch:normal;font-size:3.175px;font-family:Arial;-inkscape-font-specification:'Arial, Bold';font-variant-ligatures:normal;font-variant-caps:normal;font-variant-numeric:normal;font-variant-east-asian:normal;stroke-width:0.264583"
         id="path1245" />
      <path
         d="m 16.912958,58.821729 h 0.406176 v 0.241845 q 0.07907,-0.124023 0.213941,-0.201538 0.134875,-0.07751 0.299206,-0.07751 0.286804,0 0.486792,0.224792 0.199988,0.224792 0.199988,0.626318 0,0.412378 -0.201538,0.641822 -0.201538,0.227893 -0.488342,0.227893 -0.136426,0 -0.248047,-0.05426 -0.110071,-0.05426 -0.232544,-0.186035 v 0.829407 h -0.435632 z m 0.430981,0.7953 q 0,0.277502 0.110071,0.410827 0.110071,0.131775 0.2682,0.131775 0.151929,0 0.252698,-0.120922 0.100769,-0.122474 0.100769,-0.399976 0,-0.258899 -0.103869,-0.384473 -0.10387,-0.125573 -0.257349,-0.125573 -0.15968,0 -0.2651,0.124023 -0.10542,0.122473 -0.10542,0.364319 z"
         style="font-style:normal;font-variant:normal;font-weight:bold;font-stretch:normal;font-size:3.175px;font-family:Arial;-inkscape-font-specification:'Arial, Bold';font-variant-ligatures:normal;font-variant-caps:normal;font-variant-numeric:normal;font-variant-east-asian:normal;stroke-width:0.264583"
         id="path1247" />
      <path
         d="m 19.283355,60.46814 h -0.435632 v -1.646411 h 0.404626 v 0.234094 q 0.10387,-0.165882 0.186036,-0.218592 0.08371,-0.05271 0.189135,-0.05271 0.148828,0 0.286805,0.08216 l -0.134876,0.379822 q -0.110071,-0.07131 -0.204639,-0.07131 -0.09147,0 -0.155029,0.05116 -0.06356,0.04961 -0.100769,0.181384 -0.03566,0.131775 -0.03566,0.551905 z"
         style="font-style:normal;font-variant:normal;font-weight:bold;font-stretch:normal;font-size:3.175px;font-family:Arial;-inkscape-font-specification:'Arial, Bold';font-variant-ligatures:normal;font-variant-caps:normal;font-variant-numeric:normal;font-variant-east-asian:normal;stroke-width:0.264583"
         id="path1249" />
      <path
         d="m 19.999591,59.62168 q 0,-0.217041 0.10697,-0.42013 0.10697,-0.203088 0.302307,-0.310058 0.196888,-0.10697 0.438733,-0.10697 0.373621,0 0.612366,0.243396 0.238745,0.241845 0.238745,0.612365 0,0.373621 -0.241846,0.620117 -0.240295,0.244947 -0.606164,0.244947 -0.226343,0 -0.432532,-0.10232 -0.204639,-0.102319 -0.311609,-0.299206 -0.10697,-0.198438 -0.10697,-0.482141 z m 0.446484,0.02325 q 0,0.244946 0.116272,0.375171 0.116272,0.130225 0.286805,0.130225 0.170532,0 0.285253,-0.130225 0.116272,-0.130225 0.116272,-0.378271 0,-0.241846 -0.116272,-0.372071 -0.114721,-0.130224 -0.285253,-0.130224 -0.170533,0 -0.286805,0.130224 -0.116272,0.130225 -0.116272,0.375171 z"
         style="font-style:normal;font-variant:normal;font-weight:bold;font-stretch:normal;font-size:3.175px;font-family:Arial;-inkscape-font-specification:'Arial, Bold';font-variant-ligatures:normal;font-variant-caps:normal;font-variant-numeric:normal;font-variant-east-asian:normal;stroke-width:0.264583"
         id="path1251" />
      <path
         d="m 21.832037,60.46814 0.593762,-0.848011 -0.568957,-0.7984 h 0.53175 l 0.291455,0.452685 0.306958,-0.452685 h 0.511597 l -0.558105,0.779797 0.609265,0.866614 h -0.534851 l -0.334864,-0.510047 -0.337963,0.510047 z"
         style="font-style:normal;font-variant:normal;font-weight:bold;font-stretch:normal;font-size:3.175px;font-family:Arial;-inkscape-font-specification:'Arial, Bold';font-variant-ligatures:normal;font-variant-caps:normal;font-variant-numeric:normal;font-variant-east-asian:normal;stroke-width:0.264583"
         id="path1253" />
    </g>
    <g
       aria-label="Algorithm"
       id="text1103"
       style="font-size:3.52777px;line-height:1.25;font-family:'Arial Black';-inkscape-font-specification:'Arial Black, Normal';stroke-width:0.264583">
      <path
         d="M 7.7417661,71.776595 H 6.8529334 L 6.7306328,72.193451 H 5.9330949 l 0.9491217,-2.52525 h 0.8509368 l 0.9491217,2.52525 H 7.8657892 Z M 7.5781244,71.230549 7.2990723,70.322768 7.0217427,71.230549 Z"
         style="stroke-width:0.264583"
         id="path1156" />
      <path
         d="m 8.9079284,69.668201 h 0.7027979 v 2.52525 H 8.9079284 Z"
         style="stroke-width:0.264583"
         id="path1158" />
      <path
         d="m 11.334993,70.364109 h 0.656289 v 1.727712 l 0.0017,0.08096 q 0,0.172255 -0.07407,0.327284 -0.07235,0.156751 -0.194647,0.253214 -0.120578,0.09646 -0.308336,0.139526 -0.186034,0.04306 -0.427191,0.04306 -0.551214,0 -0.757919,-0.165364 -0.204983,-0.165364 -0.204983,-0.442694 0,-0.03445 0.0034,-0.09302 l 0.680405,0.07751 q 0.02584,0.09474 0.07924,0.130914 0.07752,0.0534 0.194648,0.0534 0.151584,0 0.225653,-0.08096 0.07579,-0.08096 0.07579,-0.282497 v -0.27733 q -0.103353,0.122301 -0.206705,0.177422 -0.161919,0.08613 -0.349677,0.08613 -0.366902,0 -0.592555,-0.320394 -0.1601964,-0.227375 -0.1601964,-0.601167 0,-0.427191 0.2067054,-0.651122 0.206705,-0.223931 0.540879,-0.223931 0.213595,0 0.351399,0.07235 0.139526,0.07235 0.260104,0.239434 z m -0.659735,0.88711 q 0,0.198093 0.08441,0.294555 0.08441,0.09474 0.222208,0.09474 0.130914,0 0.218763,-0.09819 0.08957,-0.09991 0.08957,-0.299722 0,-0.199815 -0.09302,-0.304891 -0.09302,-0.106797 -0.227376,-0.106797 -0.134358,0 -0.215318,0.09819 -0.07924,0.09646 -0.07924,0.322115 z"
         style="stroke-width:0.264583"
         id="path1160" />
      <path
         d="m 12.332345,71.283948 q 0,-0.418578 0.282498,-0.689018 0.282497,-0.272162 0.763087,-0.272162 0.549491,0 0.830266,0.318671 0.225653,0.256659 0.225653,0.632173 0,0.422024 -0.280775,0.692463 -0.279052,0.268717 -0.773422,0.268717 -0.440971,0 -0.713133,-0.223931 -0.334174,-0.277329 -0.334174,-0.726913 z m 0.702798,-0.0017 q 0,0.244601 0.09819,0.361734 0.09991,0.117133 0.249769,0.117133 0.151584,0 0.248047,-0.11541 0.09818,-0.11541 0.09818,-0.370347 0,-0.237711 -0.09818,-0.353122 -0.09819,-0.117133 -0.242879,-0.117133 -0.153307,0 -0.253214,0.118856 -0.09991,0.117133 -0.09991,0.358289 z"
         style="stroke-width:0.264583"
         id="path1162" />
      <path
         d="m 14.781803,70.364109 h 0.65629 v 0.299723 q 0.09474,-0.194648 0.194647,-0.266994 0.10163,-0.07407 0.249769,-0.07407 0.155029,0 0.339341,0.09646 l -0.21704,0.499537 q -0.124024,-0.05168 -0.19637,-0.05168 -0.137804,0 -0.213596,0.113688 -0.10852,0.160197 -0.10852,0.599445 v 0.613226 h -0.704521 z"
         style="stroke-width:0.264583"
         id="path1164" />
      <path
         d="m 16.364821,69.668201 h 0.701075 v 0.477145 h -0.701075 z m 0,0.695908 h 0.701075 v 1.829342 h -0.701075 z"
         style="stroke-width:0.264583"
         id="path1166" />
      <path
         d="m 18.362972,69.668201 v 0.695908 h 0.38585 v 0.511596 h -0.38585 v 0.649399 q 0,0.117133 0.02239,0.155029 0.03445,0.05857 0.120578,0.05857 0.07751,0 0.21704,-0.04479 l 0.05168,0.484035 q -0.260104,0.05684 -0.485758,0.05684 -0.261826,0 -0.385849,-0.06718 -0.124024,-0.06718 -0.184313,-0.20326 -0.05857,-0.137804 -0.05857,-0.444417 v -0.644231 h -0.258382 v -0.511596 h 0.258382 v -0.335896 z"
         style="stroke-width:0.264583"
         id="path1168" />
      <path
         d="m 19.081272,69.668201 h 0.701076 v 0.930174 q 0.142971,-0.148139 0.28422,-0.211873 0.141248,-0.06373 0.334173,-0.06373 0.285942,0 0.449584,0.173977 0.165364,0.173977 0.165364,0.533989 v 1.162717 h -0.70452 v -1.005966 q 0,-0.172254 -0.06373,-0.242878 -0.06373,-0.07235 -0.179145,-0.07235 -0.127468,0 -0.206705,0.09646 -0.07924,0.09646 -0.07924,0.346232 v 0.878497 h -0.701076 z"
         style="stroke-width:0.264583"
         id="path1170" />
      <path
         d="m 21.442881,70.364109 h 0.654566 v 0.266995 q 0.141249,-0.167087 0.28422,-0.237712 0.144694,-0.07062 0.347954,-0.07062 0.218763,0 0.346231,0.07752 0.127469,0.07751 0.208428,0.230821 0.165364,-0.179145 0.301445,-0.242879 0.136081,-0.06546 0.335896,-0.06546 0.294555,0 0.45992,0.1757 0.165364,0.173977 0.165364,0.546046 v 1.148937 h -0.702798 v -1.042139 q 0,-0.124023 -0.04823,-0.184312 -0.07062,-0.09474 -0.1757,-0.09474 -0.124023,0 -0.199815,0.08957 -0.07579,0.08957 -0.07579,0.287665 v 0.943954 h -0.702798 v -1.007688 q 0,-0.120578 -0.01378,-0.163642 -0.02239,-0.0689 -0.07752,-0.110243 -0.05512,-0.04306 -0.12919,-0.04306 -0.120578,0 -0.198093,0.09129 -0.07751,0.0913 -0.07751,0.299723 v 0.933619 h -0.702798 z"
         style="stroke-width:0.264583"
         id="path1172" />
    </g>
    <rect
       style="display:inline;fill:none;fill-opacity:1;stroke:#000080;stroke-width:0.316;stroke-miterlimit:4;stroke-dasharray:none"
       id="rect181-6-8"
       width="28.807926"
       height="19.304493"
       x="0.83603698"
       y="68.710327"
       ry="0.9871617" />
  </g>
  <g
     style="display:inline"
     inkscape:label="details"
     inkscape:groupmode="layer"
     id="layer1">
    <g
       style="font-style:normal;font-variant:normal;font-weight:bold;font-stretch:normal;font-size:3.52777px;line-height:1.25;font-family:Courier;-inkscape-font-specification:'Courier, Bold';font-variant-ligatures:normal;font-variant-caps:normal;font-variant-numeric:normal;font-variant-east-asian:normal;stroke-width:0.264583"
       id="text123"
       aria-label="Meromorph"
       transform="translate(3.0711182e-6,-5.1026786)">
      <path
         id="path135"
         style="font-style:normal;font-variant:normal;font-weight:bold;font-stretch:normal;font-size:3.52777px;font-family:Courier;-inkscape-font-specification:'Courier, Bold';font-variant-ligatures:normal;font-variant-caps:normal;font-variant-numeric:normal;font-variant-east-asian:normal;stroke-width:0.264583"
         d="m 6.8632683,124.98413 0.3290059,-0.97668 q 0.031006,-0.0965 0.086127,-0.13953 0.055121,-0.0448 0.1464163,-0.0448 h 0.2687168 q 0.117133,0 0.1670868,0.0448 0.051676,0.0448 0.051676,0.14642 0,0.093 -0.049954,0.14125 -0.048231,0.0482 -0.1412486,0.0482 h -0.027561 l 0.048231,1.28502 h 0.029283 q 0.093017,0 0.1395261,0.0482 0.046509,0.0465 0.046509,0.1378 0,0.10163 -0.049954,0.14642 -0.048231,0.0448 -0.1653643,0.0448 H 7.3541934 q -0.117133,0 -0.1670868,-0.0431 -0.048231,-0.0448 -0.048231,-0.14814 0,-0.0913 0.046509,-0.1378 0.048231,-0.0482 0.1412487,-0.0482 h 0.027561 l -0.024116,-1.05076 -0.2514914,0.78204 q -0.027561,0.0879 -0.079237,0.12747 -0.049954,0.0379 -0.1395261,0.0379 -0.089572,0 -0.1429711,-0.0379 -0.051676,-0.0396 -0.079237,-0.12747 l -0.2497689,-0.78204 -0.024116,1.05076 h 0.027561 q 0.093017,0 0.139526,0.0482 0.048231,0.0465 0.048231,0.1378 0,0.10163 -0.049954,0.14642 -0.049954,0.0448 -0.1653642,0.0448 h -0.389295 q -0.1154104,0 -0.1653642,-0.0448 -0.049954,-0.0448 -0.049954,-0.14642 0,-0.0913 0.046509,-0.1378 0.048231,-0.0482 0.1412486,-0.0482 H 5.974436 L 6.02439,124.20377 H 5.996829 q -0.093017,0 -0.1429711,-0.0482 -0.048231,-0.0482 -0.048231,-0.14125 0,-0.10163 0.049954,-0.14642 0.051676,-0.0448 0.1688093,-0.0448 h 0.2687169 q 0.089572,0 0.1429711,0.0431 0.055121,0.0431 0.089572,0.14125 z" />
      <path
         id="path137"
         style="font-style:normal;font-variant:normal;font-weight:bold;font-stretch:normal;font-size:3.52777px;font-family:Courier;-inkscape-font-specification:'Courier, Bold';font-variant-ligatures:normal;font-variant-caps:normal;font-variant-numeric:normal;font-variant-east-asian:normal;stroke-width:0.264583"
         d="m 8.5065752,125.17189 q 0.044786,0.1912 0.1722544,0.28594 0.1291908,0.0947 0.3427863,0.0947 0.2135954,0 0.4220233,-0.10335 0.2084278,-0.10508 0.2514914,-0.10508 0.063734,0 0.1033526,0.0482 0.041341,0.0465 0.041341,0.12058 0,0.16192 -0.2394336,0.27905 -0.2394336,0.11714 -0.5925552,0.11714 -0.4168556,0 -0.6786823,-0.23427 -0.2601041,-0.23426 -0.2601041,-0.60289 0,-0.3669 0.2601041,-0.60117 0.2618267,-0.23426 0.6786823,-0.23426 0.3720695,0 0.6166708,0.22048 0.2446012,0.21877 0.2446012,0.53744 0,0.10163 -0.049954,0.13952 -0.048231,0.0379 -0.2015376,0.0379 z m 0.9284512,-0.26872 q -0.029283,-0.1602 -0.1515838,-0.24804 -0.1205781,-0.0879 -0.3152256,-0.0879 -0.1877573,0 -0.3031677,0.0844 -0.1136879,0.0827 -0.1584741,0.25149 z" />
      <path
         id="path139"
         style="font-style:normal;font-variant:normal;font-weight:bold;font-stretch:normal;font-size:3.52777px;font-family:Courier;-inkscape-font-specification:'Courier, Bold';font-variant-ligatures:normal;font-variant-caps:normal;font-variant-numeric:normal;font-variant-east-asian:normal;stroke-width:0.264583"
         d="m 11.012877,124.93073 v 0.55811 h 0.40652 q 0.117133,0 0.165364,0.0431 0.04995,0.0431 0.04995,0.14297 0,0.10163 -0.04995,0.14642 -0.04823,0.0448 -0.165364,0.0448 h -0.962902 q -0.118856,0 -0.168809,-0.0448 -0.04995,-0.0448 -0.04995,-0.14642 0,-0.0999 0.04823,-0.14297 0.04995,-0.0431 0.170532,-0.0431 h 0.130913 v -0.83716 h -0.07407 q -0.117133,0 -0.167087,-0.0431 -0.04823,-0.0448 -0.04823,-0.14642 0,-0.10163 0.04651,-0.14469 0.04823,-0.0431 0.168809,-0.0431 h 0.366902 q 0.04651,0 0.07235,0.0207 0.02584,0.019 0.02584,0.0534 v 0.25494 q 0.187757,-0.20154 0.349676,-0.28767 0.163642,-0.0861 0.351399,-0.0861 0.170532,0 0.27044,0.0775 0.09991,0.0758 0.09991,0.20498 0,0.0999 -0.0689,0.16537 -0.0689,0.0637 -0.177422,0.0637 -0.07751,0 -0.184312,-0.0568 -0.105075,-0.0568 -0.146416,-0.0568 -0.08268,0 -0.194648,0.0741 -0.111965,0.0741 -0.265271,0.2291 z" />
      <path
         id="path141"
         style="font-style:normal;font-variant:normal;font-weight:bold;font-stretch:normal;font-size:3.52777px;font-family:Courier;-inkscape-font-specification:'Courier, Bold';font-variant-ligatures:normal;font-variant-caps:normal;font-variant-numeric:normal;font-variant-east-asian:normal;stroke-width:0.264583"
         d="m 13.205675,124.6 q -0.201538,0 -0.332451,0.13264 -0.129191,0.13091 -0.129191,0.3359 0,0.2067 0.129191,0.34278 0.130913,0.13436 0.332451,0.13436 0.201538,0 0.332451,-0.13436 0.130913,-0.13608 0.130913,-0.34278 0,-0.20499 -0.130913,-0.3359 Q 13.408935,124.6 13.205675,124.6 Z m 0,-0.36345 q 0.418578,0 0.678682,0.23426 0.260105,0.23427 0.260105,0.60117 0,0.36863 -0.260105,0.60289 -0.260104,0.23427 -0.678682,0.23427 -0.416856,0 -0.67696,-0.23427 -0.260104,-0.23426 -0.260104,-0.60289 0,-0.3669 0.260104,-0.60117 0.261827,-0.23426 0.67696,-0.23426 z" />
      <path
         id="path143"
         style="font-style:normal;font-variant:normal;font-weight:bold;font-stretch:normal;font-size:3.52777px;font-family:Courier;-inkscape-font-specification:'Courier, Bold';font-variant-ligatures:normal;font-variant-caps:normal;font-variant-numeric:normal;font-variant-east-asian:normal;stroke-width:0.264583"
         d="m 15.431202,124.39158 q 0.07235,-0.0775 0.167087,-0.11714 0.09474,-0.0413 0.20326,-0.0413 0.234266,0 0.337618,0.13953 0.103353,0.1378 0.103353,0.46336 v 0.65285 h 0.02412 q 0.08096,0 0.120578,0.0482 0.04134,0.0465 0.04134,0.1378 0,0.10335 -0.04306,0.14814 -0.04134,0.0431 -0.142971,0.0431 h -0.292832 q -0.04651,0 -0.07235,-0.0189 -0.02584,-0.0207 -0.02584,-0.0551 v -0.97323 q 0,-0.11541 -0.03617,-0.17226 -0.03617,-0.0568 -0.105075,-0.0568 -0.08613,0 -0.134358,0.0775 -0.04651,0.0758 -0.04651,0.21877 v 0.60289 h 0.02584 q 0.07924,0 0.120578,0.0482 0.04134,0.0465 0.04134,0.1378 0,0.10335 -0.04306,0.14814 -0.04306,0.0431 -0.144694,0.0431 h -0.292833 q -0.04651,0 -0.07407,-0.0189 -0.02756,-0.0207 -0.02756,-0.0551 V 124.819 q 0,-0.11541 -0.03445,-0.17226 -0.03445,-0.0568 -0.103352,-0.0568 -0.08613,0 -0.136081,0.0775 -0.04823,0.0775 -0.04823,0.21877 v 0.60289 h 0.02584 q 0.08096,0 0.120578,0.0465 0.04134,0.0465 0.04134,0.13952 0,0.10335 -0.04306,0.14814 -0.04306,0.0431 -0.144693,0.0431 h -0.391018 q -0.09991,0 -0.142971,-0.0448 -0.04306,-0.0448 -0.04306,-0.14642 0,-0.0913 0.03962,-0.1378 0.04134,-0.0482 0.122301,-0.0482 h 0.02412 v -0.83716 h -0.02412 q -0.08096,0 -0.124024,-0.0482 -0.04134,-0.0499 -0.04134,-0.14125 0,-0.0999 0.04306,-0.14297 0.04479,-0.0448 0.146416,-0.0448 h 0.232544 q 0.07062,0 0.09474,0.0293 0.02584,0.0276 0.02584,0.10852 0.06373,-0.0879 0.153306,-0.13264 0.08957,-0.0465 0.199815,-0.0465 0.09991,0 0.173977,0.0396 0.07407,0.0379 0.129191,0.11886 z" />
      <path
         id="path145"
         style="font-style:normal;font-variant:normal;font-weight:bold;font-stretch:normal;font-size:3.52777px;font-family:Courier;-inkscape-font-specification:'Courier, Bold';font-variant-ligatures:normal;font-variant-caps:normal;font-variant-numeric:normal;font-variant-east-asian:normal;stroke-width:0.264583"
         d="m 17.436243,124.6 q -0.201538,0 -0.332451,0.13264 -0.129191,0.13091 -0.129191,0.3359 0,0.2067 0.129191,0.34278 0.130913,0.13436 0.332451,0.13436 0.201538,0 0.332451,-0.13436 0.130913,-0.13608 0.130913,-0.34278 0,-0.20499 -0.130913,-0.3359 Q 17.639503,124.6 17.436243,124.6 Z m 0,-0.36345 q 0.418578,0 0.678682,0.23426 0.260105,0.23427 0.260105,0.60117 0,0.36863 -0.260105,0.60289 -0.260104,0.23427 -0.678682,0.23427 -0.416856,0 -0.67696,-0.23427 -0.260104,-0.23426 -0.260104,-0.60289 0,-0.3669 0.260104,-0.60117 0.261827,-0.23426 0.67696,-0.23426 z" />
      <path
         id="path147"
         style="font-style:normal;font-variant:normal;font-weight:bold;font-stretch:normal;font-size:3.52777px;font-family:Courier;-inkscape-font-specification:'Courier, Bold';font-variant-ligatures:normal;font-variant-caps:normal;font-variant-numeric:normal;font-variant-east-asian:normal;stroke-width:0.264583"
         d="m 19.474013,124.93073 v 0.55811 h 0.40652 q 0.117133,0 0.165364,0.0431 0.04995,0.0431 0.04995,0.14297 0,0.10163 -0.04995,0.14642 -0.04823,0.0448 -0.165364,0.0448 h -0.962902 q -0.118856,0 -0.168809,-0.0448 -0.04995,-0.0448 -0.04995,-0.14642 0,-0.0999 0.04823,-0.14297 0.04995,-0.0431 0.170532,-0.0431 h 0.130913 v -0.83716 h -0.07407 q -0.117133,0 -0.167087,-0.0431 -0.04823,-0.0448 -0.04823,-0.14642 0,-0.10163 0.04651,-0.14469 0.04823,-0.0431 0.16881,-0.0431 h 0.366902 q 0.04651,0 0.07235,0.0207 0.02584,0.019 0.02584,0.0534 v 0.25494 q 0.187757,-0.20154 0.349676,-0.28767 0.163642,-0.0861 0.351399,-0.0861 0.170532,0 0.270439,0.0775 0.09991,0.0758 0.09991,0.20498 0,0.0999 -0.0689,0.16537 -0.0689,0.0637 -0.177422,0.0637 -0.07751,0 -0.184312,-0.0568 -0.105075,-0.0568 -0.146416,-0.0568 -0.08268,0 -0.194648,0.0741 -0.111965,0.0741 -0.265271,0.2291 z" />
      <path
         id="path149"
         style="font-style:normal;font-variant:normal;font-weight:bold;font-stretch:normal;font-size:3.52777px;font-family:Courier;-inkscape-font-specification:'Courier, Bold';font-variant-ligatures:normal;font-variant-caps:normal;font-variant-numeric:normal;font-variant-east-asian:normal;stroke-width:0.264583"
         d="m 21.339528,125.70415 v 0.46854 h 0.218763 q 0.117133,0 0.167086,0.0448 0.05168,0.0448 0.05168,0.14642 0,0.0999 -0.04995,0.14297 -0.04995,0.0431 -0.168809,0.0431 h -0.730359 q -0.118855,0 -0.167087,-0.0431 -0.04823,-0.0413 -0.04823,-0.14297 0,-0.10163 0.04823,-0.14642 0.04995,-0.0448 0.167087,-0.0448 h 0.10163 v -1.52101 h -0.02756 q -0.09129,0 -0.139526,-0.0482 -0.04823,-0.0482 -0.04823,-0.14125 0,-0.10163 0.04823,-0.14469 0.04823,-0.0431 0.167087,-0.0431 h 0.265272 q 0.04995,0 0.07407,0.019 0.02412,0.0172 0.02412,0.0517 v 0.12402 q 0.08785,-0.11713 0.211873,-0.1757 0.125746,-0.0603 0.282497,-0.0603 0.353122,0 0.585665,0.22566 0.232543,0.22565 0.232543,0.56843 0,0.35829 -0.225653,0.59428 -0.225653,0.23427 -0.568439,0.23427 -0.139526,0 -0.261827,-0.0379 -0.120578,-0.0396 -0.21015,-0.11369 z M 21.737435,124.6 q -0.170532,0 -0.280774,0.12575 -0.110243,0.12575 -0.110243,0.32212 0,0.19637 0.110243,0.32211 0.110242,0.12575 0.280774,0.12575 0.170532,0 0.280775,-0.12575 0.111965,-0.12747 0.111965,-0.32211 0,-0.19637 -0.110242,-0.32212 Q 21.90969,124.6 21.737435,124.6 Z" />
      <path
         id="path151"
         style="font-style:normal;font-variant:normal;font-weight:bold;font-stretch:normal;font-size:3.52777px;font-family:Courier;-inkscape-font-specification:'Courier, Bold';font-variant-ligatures:normal;font-variant-caps:normal;font-variant-numeric:normal;font-variant-east-asian:normal;stroke-width:0.264583"
         d="m 23.504765,124.44842 q 0.06029,-0.10508 0.170532,-0.1602 0.110243,-0.0551 0.263549,-0.0551 0.272162,0 0.418579,0.15848 0.148138,0.15847 0.148138,0.45475 v 0.64251 h 0.02928 q 0.0913,0 0.137803,0.0482 0.04823,0.0465 0.04823,0.1378 0,0.10163 -0.04995,0.14642 -0.04823,0.0448 -0.165365,0.0448 h -0.42719 q -0.115411,0 -0.165365,-0.0448 -0.04823,-0.0448 -0.04823,-0.14642 0,-0.093 0.04651,-0.13952 0.04651,-0.0465 0.139526,-0.0465 h 0.02756 v -0.50126 q 0,-0.22049 -0.05512,-0.30489 -0.0534,-0.0861 -0.184312,-0.0861 -0.137804,0 -0.235989,0.11196 -0.09819,0.11025 -0.09819,0.27906 v 0.50126 h 0.02756 q 0.09302,0 0.139526,0.0482 0.04823,0.0465 0.04823,0.1378 0,0.10163 -0.04995,0.14642 -0.04995,0.0448 -0.165365,0.0448 h -0.427191 q -0.118855,0 -0.167086,-0.0431 -0.04823,-0.0448 -0.04823,-0.14814 0,-0.0913 0.04651,-0.1378 0.04823,-0.0482 0.139526,-0.0482 h 0.02928 v -1.49517 h -0.02928 q -0.09129,0 -0.141248,-0.0482 -0.04823,-0.05 -0.04823,-0.14297 0,-0.10163 0.04995,-0.14642 0.04995,-0.0448 0.168809,-0.0448 h 0.323839 q 0.05857,0 0.08096,0.0241 0.02239,0.0241 0.02239,0.0896 z" />
    </g>
    <g
       style="font-style:normal;font-variant:normal;font-weight:normal;font-stretch:normal;font-size:5.29167px;line-height:1.25;font-family:'Arial Black';-inkscape-font-specification:'Arial Black, Normal';font-variant-ligatures:normal;font-variant-caps:normal;font-variant-numeric:normal;font-variant-east-asian:normal;stroke-width:0.264583"
       id="text117"
       aria-label="Wavelet"
       transform="translate(1.8211182e-6,4.9136905)">
      <path
         id="path53"
         style="font-style:normal;font-variant:normal;font-weight:normal;font-stretch:normal;font-size:5.29167px;font-family:'Arial Black';-inkscape-font-specification:'Arial Black, Normal';font-variant-ligatures:normal;font-variant-caps:normal;font-variant-numeric:normal;font-variant-east-asian:normal;stroke-width:0.264583"
         d="m 3.6877259,2.0707459 h 1.111044 L 5.1992625,4.1868971 5.7832065,2.0707459 H 6.8916667 L 7.4781945,4.1868971 7.8786871,2.0707459 H 8.9845634 L 8.1499885,5.8586307 H 7.0027711 L 6.3387285,3.4737619 5.6772698,5.8586307 H 4.5300523 Z" />
      <path
         id="path55"
         style="font-style:normal;font-variant:normal;font-weight:normal;font-stretch:normal;font-size:5.29167px;font-family:'Arial Black';-inkscape-font-specification:'Arial Black, Normal';font-variant-ligatures:normal;font-variant-caps:normal;font-variant-numeric:normal;font-variant-east-asian:normal;stroke-width:0.264583"
         d="M 10.258388,4.0034456 9.253281,3.8975089 q 0.056844,-0.26355 0.1627809,-0.4134117 0.1085206,-0.1524456 0.3100588,-0.26355 0.1446941,-0.080099 0.3979083,-0.1240235 0.253215,-0.043925 0.547771,-0.043925 0.47284,0 0.759644,0.05426 0.286804,0.051676 0.478007,0.219625 0.134359,0.116272 0.211874,0.3307293 0.07751,0.2118735 0.07751,0.4056603 v 1.211813 q 0,0.1937868 0.02326,0.3048912 0.02584,0.1085205 0.10852,0.2790529 h -0.98702 q -0.05943,-0.1059368 -0.07752,-0.1601971 -0.01809,-0.056844 -0.03617,-0.1757 -0.206706,0.1989544 -0.410828,0.2842206 -0.279053,0.1136882 -0.64854,0.1136882 -0.4909261,0 -0.7467246,-0.2273764 Q 9.1705977,5.4658892 9.1705977,5.132576 q 0,-0.3126426 0.1834514,-0.5141808 0.1834515,-0.2015382 0.6769619,-0.2997235 0.591695,-0.1188558 0.767395,-0.1653646 0.1757,-0.049093 0.372071,-0.1266074 0,-0.1937867 -0.0801,-0.2713014 -0.0801,-0.077515 -0.281636,-0.077515 -0.258383,0 -0.387574,0.082682 -0.100769,0.064596 -0.162781,0.2428794 z m 0.91209,0.5529382 q -0.217041,0.077515 -0.452169,0.1369426 -0.320394,0.085266 -0.40566,0.1679485 -0.08785,0.085266 -0.08785,0.1937868 0,0.1240235 0.08527,0.204122 0.08785,0.077515 0.255798,0.077515 0.1757,0 0.325562,-0.085266 0.152445,-0.085266 0.214457,-0.2067058 0.0646,-0.1240236 0.0646,-0.3203941 z" />
      <path
         id="path57"
         style="font-style:normal;font-variant:normal;font-weight:normal;font-stretch:normal;font-size:5.29167px;font-family:'Arial Black';-inkscape-font-specification:'Arial Black, Normal';font-variant-ligatures:normal;font-variant-caps:normal;font-variant-numeric:normal;font-variant-east-asian:normal;stroke-width:0.264583"
         d="m 12.521817,3.1146105 h 1.095541 l 0.532268,1.7389129 0.550354,-1.7389129 h 1.061951 l -1.165304,2.7440202 h -0.93276 z" />
      <path
         id="path59"
         style="font-style:normal;font-variant:normal;font-weight:normal;font-stretch:normal;font-size:5.29167px;font-family:'Arial Black';-inkscape-font-specification:'Arial Black, Normal';font-variant-ligatures:normal;font-variant-caps:normal;font-variant-numeric:normal;font-variant-east-asian:normal;stroke-width:0.264583"
         d="m 19.115734,4.7475867 h -2.108399 q 0.02842,0.2532147 0.136942,0.3772382 0.152446,0.1782838 0.397909,0.1782838 0.15503,0 0.294556,-0.077515 0.08527,-0.049093 0.183451,-0.1731162 l 1.036114,0.095601 q -0.237712,0.4134117 -0.573609,0.5942793 -0.335897,0.1782838 -0.963766,0.1782838 -0.545187,0 -0.85783,-0.1524456 -0.312642,-0.1550293 -0.519348,-0.4883425 -0.204122,-0.335897 -0.204122,-0.7880661 0,-0.643372 0.410828,-1.0412807 0.413412,-0.3979088 1.139466,-0.3979088 0.589112,0 0.930176,0.1782838 0.341065,0.1782838 0.519349,0.5167646 0.178283,0.3384809 0.178283,0.8810837 z M 18.046032,4.2437412 Q 18.015026,3.93885 17.880667,3.8070751 q -0.131775,-0.131775 -0.348816,-0.131775 -0.250631,0 -0.400493,0.1989544 -0.0956,0.1240235 -0.121439,0.3694867 z" />
      <path
         id="path61"
         style="font-style:normal;font-variant:normal;font-weight:normal;font-stretch:normal;font-size:5.29167px;font-family:'Arial Black';-inkscape-font-specification:'Arial Black, Normal';font-variant-ligatures:normal;font-variant-caps:normal;font-variant-numeric:normal;font-variant-east-asian:normal;stroke-width:0.264583"
         d="m 19.64025,2.0707459 h 1.0542 v 3.7878848 h -1.0542 z" />
      <path
         id="path63"
         style="font-style:normal;font-variant:normal;font-weight:normal;font-stretch:normal;font-size:5.29167px;font-family:'Arial Black';-inkscape-font-specification:'Arial Black, Normal';font-variant-ligatures:normal;font-variant-caps:normal;font-variant-numeric:normal;font-variant-east-asian:normal;stroke-width:0.264583"
         d="m 24.417738,4.7475867 h -2.108399 q 0.02842,0.2532147 0.136942,0.3772382 0.152446,0.1782838 0.397909,0.1782838 0.155029,0 0.294556,-0.077515 0.08527,-0.049093 0.183451,-0.1731162 l 1.036113,0.095601 q -0.237711,0.4134117 -0.573608,0.5942793 -0.335897,0.1782838 -0.963766,0.1782838 -0.545187,0 -0.85783,-0.1524456 -0.312642,-0.1550293 -0.519348,-0.4883425 -0.204122,-0.335897 -0.204122,-0.7880661 0,-0.643372 0.410828,-1.0412807 0.413411,-0.3979088 1.139466,-0.3979088 0.589111,0 0.930176,0.1782838 0.341065,0.1782838 0.519349,0.5167646 0.178283,0.3384809 0.178283,0.8810837 z M 23.348036,4.2437412 Q 23.31703,3.93885 23.182671,3.8070751 q -0.131775,-0.131775 -0.348816,-0.131775 -0.250631,0 -0.400493,0.1989544 -0.0956,0.1240235 -0.12144,0.3694867 z" />
      <path
         id="path65"
         style="font-style:normal;font-variant:normal;font-weight:normal;font-stretch:normal;font-size:5.29167px;font-family:'Arial Black';-inkscape-font-specification:'Arial Black, Normal';font-variant-ligatures:normal;font-variant-caps:normal;font-variant-numeric:normal;font-variant-east-asian:normal;stroke-width:0.264583"
         d="m 26.17474,2.0707459 v 1.0438646 h 0.578776 V 3.8820059 H 26.17474 v 0.9741014 q 0,0.1756999 0.03359,0.2325441 0.05168,0.08785 0.180868,0.08785 0.116272,0 0.325562,-0.067179 l 0.07751,0.7260543 q -0.390157,0.085266 -0.728638,0.085266 -0.392741,0 -0.578776,-0.1007691 Q 25.298824,5.7191042 25.20839,5.5149822 25.12054,5.3082763 25.12054,4.8483558 V 3.8820059 H 24.732966 V 3.1146105 H 25.12054 V 2.6107649 Z" />
    </g>
    <g
       style="font-style:normal;font-variant:normal;font-weight:normal;font-stretch:normal;font-size:3.52778px;line-height:1.25;font-family:'Arial Black';-inkscape-font-specification:'Arial Black, Normal';font-variant-ligatures:normal;font-variant-caps:normal;font-variant-numeric:normal;font-variant-east-asian:normal;fill:#000000;fill-opacity:1;stroke:none;stroke-width:0.264583"
       id="text27"
       aria-label="Details" />
    <g
       style="font-size:3.52777px;line-height:1.25;font-family:'Arial Black';-inkscape-font-specification:'Arial Black, Normal';stroke-width:0.264583"
       id="text51"
       aria-label="Shaper"
       transform="translate(-1.2888184e-7,4.9136905)">
      <path
         id="path68"
         style="font-style:normal;font-variant:normal;font-weight:normal;font-stretch:normal;font-size:5.29167px;font-family:'Arial Black';-inkscape-font-specification:'Arial Black, Normal';font-variant-ligatures:normal;font-variant-caps:normal;font-variant-numeric:normal;font-variant-east-asian:normal;stroke-width:0.264583"
         d="m 5.1062458,10.653096 1.1136278,-0.06976 q 0.036174,0.271301 0.1472779,0.413411 0.1808676,0.229961 0.5167646,0.229961 0.2506309,0 0.3849897,-0.116273 0.1369426,-0.118855 0.1369426,-0.273885 0,-0.147278 -0.1291912,-0.26355 Q 7.1474661,10.456725 6.6772103,10.353372 5.907231,10.180256 5.5790854,9.8934518 5.2483561,9.6066474 5.2483561,9.1622298 q 0,-0.291972 0.1679485,-0.5503543 0.1705323,-0.2609662 0.5090131,-0.4082441 0.3410647,-0.1498617 0.9327602,-0.1498617 0.7260543,0 1.1058763,0.2713014 Q 8.34636,8.5937887 8.4187071,9.1829004 L 7.3154146,9.247496 Q 7.2714896,8.9916975 7.1293793,8.8754254 6.9898529,8.7591534 6.7418059,8.7591534 q -0.2041221,0 -0.307475,0.08785 -0.1033529,0.085266 -0.1033529,0.2092896 0,0.090434 0.085266,0.1627809 0.082682,0.074931 0.3927412,0.1395265 0.7673954,0.1653646 1.0981248,0.335897 0.3333132,0.1679485 0.4831749,0.4185796 0.1524456,0.250631 0.1524456,0.560689 0,0.364319 -0.2015382,0.671794 -0.2015382,0.307475 -0.5632735,0.467672 -0.3617352,0.157614 -0.9120895,0.157614 -0.9663499,0 -1.3384204,-0.372071 -0.3720706,-0.37207 -0.4211631,-0.945679 z" />
      <path
         id="path70"
         style="font-style:normal;font-variant:normal;font-weight:normal;font-stretch:normal;font-size:5.29167px;font-family:'Arial Black';-inkscape-font-specification:'Arial Black, Normal';font-variant-ligatures:normal;font-variant-caps:normal;font-variant-numeric:normal;font-variant-east-asian:normal;stroke-width:0.264583"
         d="m 9.0646629,8.1183652 h 1.0516161 v 1.3952645 q 0.214457,-0.2222087 0.426331,-0.3178102 0.211873,-0.095602 0.501261,-0.095602 0.428915,0 0.674378,0.2609662 0.248047,0.2609661 0.248047,0.8009853 v 1.744081 h -1.056783 v -1.508953 q 0,-0.258382 -0.0956,-0.36432 -0.0956,-0.1085199 -0.268717,-0.1085199 -0.191203,0 -0.310059,0.1446949 -0.118856,0.144694 -0.118856,0.519348 v 1.31775 H 9.0646629 Z" />
      <path
         id="path72"
         style="font-style:normal;font-variant:normal;font-weight:normal;font-stretch:normal;font-size:5.29167px;font-family:'Arial Black';-inkscape-font-specification:'Arial Black, Normal';font-variant-ligatures:normal;font-variant-caps:normal;font-variant-numeric:normal;font-variant-east-asian:normal;stroke-width:0.264583"
         d="M 13.557931,10.051065 12.552824,9.9451282 q 0.05684,-0.2635499 0.162781,-0.4134117 0.108521,-0.1524456 0.310059,-0.26355 0.144694,-0.080099 0.397909,-0.1240235 0.253214,-0.043925 0.54777,-0.043925 0.47284,0 0.759644,0.05426 0.286804,0.051677 0.478007,0.219625 0.134359,0.116272 0.211874,0.3307294 0.07752,0.2118735 0.07752,0.4056606 v 1.211813 q 0,0.193787 0.02325,0.304891 0.02584,0.108521 0.108521,0.279053 h -0.987021 q -0.05943,-0.105937 -0.07752,-0.160197 -0.01809,-0.05684 -0.03617,-0.1757 -0.206706,0.198954 -0.410828,0.284221 -0.279053,0.113688 -0.64854,0.113688 -0.490926,0 -0.746724,-0.227377 -0.253215,-0.227376 -0.253215,-0.560689 0,-0.312643 0.183451,-0.514181 0.183452,-0.201538 0.676962,-0.299724 0.591695,-0.118855 0.767395,-0.165364 0.1757,-0.04909 0.372071,-0.126608 0,-0.1937867 -0.0801,-0.2713014 -0.0801,-0.077515 -0.281636,-0.077515 -0.258383,0 -0.387574,0.082682 -0.100769,0.064596 -0.162781,0.2428794 z m 0.91209,0.552938 q -0.217041,0.07752 -0.452169,0.136943 -0.320394,0.08527 -0.40566,0.167948 -0.08785,0.08527 -0.08785,0.193787 0,0.124024 0.08527,0.204122 0.08785,0.07752 0.255798,0.07752 0.1757,0 0.325562,-0.08527 0.152446,-0.08527 0.214457,-0.206706 0.0646,-0.124024 0.0646,-0.320394 z" />
      <path
         id="path74"
         style="font-style:normal;font-variant:normal;font-weight:normal;font-stretch:normal;font-size:5.29167px;font-family:'Arial Black';-inkscape-font-specification:'Arial Black, Normal';font-variant-ligatures:normal;font-variant-caps:normal;font-variant-numeric:normal;font-variant-east-asian:normal;stroke-width:0.264583"
         d="M 16.139171,12.950115 V 9.1622298 h 0.984436 V 9.56789 q 0.204122,-0.2557985 0.374655,-0.3462323 0.22996,-0.1214397 0.509013,-0.1214397 0.550354,0 0.850077,0.4211632 0.302308,0.4211632 0.302308,1.0412808 0,0.684713 -0.328146,1.046448 -0.328145,0.359152 -0.829407,0.359152 -0.242879,0 -0.444418,-0.08268 -0.198954,-0.08268 -0.356567,-0.245463 v 1.309999 z m 1.054199,-2.408124 q 0,0.325562 0.136943,0.483175 0.136943,0.157614 0.346232,0.157614 0.183452,0 0.307475,-0.149862 0.124024,-0.152446 0.124024,-0.514181 0,-0.333313 -0.129191,-0.488343 -0.129192,-0.1576128 -0.315227,-0.1576128 -0.201538,0 -0.335897,0.1576128 -0.134359,0.157614 -0.134359,0.511597 z" />
      <path
         id="path76"
         style="font-style:normal;font-variant:normal;font-weight:normal;font-stretch:normal;font-size:5.29167px;font-family:'Arial Black';-inkscape-font-specification:'Arial Black, Normal';font-variant-ligatures:normal;font-variant-caps:normal;font-variant-numeric:normal;font-variant-east-asian:normal;stroke-width:0.264583"
         d="m 22.715,10.795206 h -2.108399 q 0.02842,0.253215 0.136942,0.377238 0.152446,0.178284 0.397909,0.178284 0.155029,0 0.294556,-0.07752 0.08527,-0.04909 0.183451,-0.173116 l 1.036113,0.0956 q -0.237711,0.413411 -0.573608,0.594279 -0.335897,0.178284 -0.963766,0.178284 -0.545187,0 -0.85783,-0.152446 -0.312642,-0.155029 -0.519348,-0.488342 -0.204122,-0.335897 -0.204122,-0.788066 0,-0.6433724 0.410828,-1.0412812 0.413411,-0.3979088 1.139466,-0.3979088 0.589111,0 0.930176,0.1782838 0.341065,0.1782838 0.519348,0.5167647 Q 22.715,10.133747 22.715,10.67635 Z m -1.069703,-0.503845 q -0.03101,-0.3048916 -0.165364,-0.4366666 -0.131775,-0.131775 -0.348816,-0.131775 -0.250631,0 -0.400493,0.1989544 -0.0956,0.1240232 -0.12144,0.3694872 z" />
      <path
         id="path78"
         style="font-style:normal;font-variant:normal;font-weight:normal;font-stretch:normal;font-size:5.29167px;font-family:'Arial Black';-inkscape-font-specification:'Arial Black, Normal';font-variant-ligatures:normal;font-variant-caps:normal;font-variant-numeric:normal;font-variant-east-asian:normal;stroke-width:0.264583"
         d="m 23.213678,9.1622298 h 0.984437 V 9.611815 q 0.14211,-0.291972 0.291972,-0.4004926 0.152445,-0.1111044 0.374654,-0.1111044 0.232544,0 0.509013,0.1446941 l -0.325562,0.7493088 q -0.186035,-0.077515 -0.294555,-0.077515 -0.206706,0 -0.320395,0.1705321 -0.16278,0.240296 -0.16278,0.899171 v 0.919841 h -1.056784 z" />
    </g>
    <g
       style="display:inline;font-size:3.52776999999999985px;line-height:1.25;font-family:'Arial Black';-inkscape-font-specification:'Arial Black, Normal';stroke-width:0.264583"
       id="text85"
       aria-label="Out"
       transform="translate(-1.5e-7,-4.5357142)">
      <path
         id="path128"
         style="stroke-width:0.264583"
         d="m 18.656248,114.23236 q 0,-0.61839 0.344509,-0.9629 0.344509,-0.34451 0.959457,-0.34451 0.630451,0 0.971515,0.33934 0.341064,0.33762 0.341064,0.9474 0,0.44269 -0.149862,0.72691 -0.148138,0.2825 -0.430636,0.44098 -0.280774,0.15675 -0.701075,0.15675 -0.427191,0 -0.707966,-0.13608 -0.279052,-0.13609 -0.453029,-0.43064 -0.173977,-0.29456 -0.173977,-0.73725 z m 0.780313,0.003 q 0,0.3824 0.141248,0.54949 0.142972,0.16708 0.387573,0.16708 0.251491,0 0.389295,-0.16364 0.137803,-0.16364 0.137803,-0.58738 0,-0.35657 -0.144693,-0.52021 -0.142972,-0.16537 -0.389295,-0.16537 -0.235989,0 -0.37896,0.16709 -0.142971,0.16709 -0.142971,0.55294 z" />
      <path
         id="path130"
         style="stroke-width:0.264583"
         d="M 23.577556,115.49326 H 22.92299 v -0.29627 q -0.146416,0.18259 -0.296278,0.2601 -0.148139,0.0775 -0.365179,0.0775 -0.289388,0 -0.454752,-0.17225 -0.163641,-0.17398 -0.163641,-0.53399 v -1.16444 h 0.70452 v 1.00597 q 0,0.17225 0.06373,0.2446 0.06373,0.0724 0.179145,0.0724 0.125745,0 0.204982,-0.0965 0.08096,-0.0965 0.08096,-0.34623 v -0.88022 h 0.701075 z" />
      <path
         id="path132"
         style="stroke-width:0.264583"
         d="m 24.852239,112.96801 v 0.69591 h 0.38585 v 0.5116 h -0.38585 v 0.6494 q 0,0.11713 0.02239,0.15503 0.03445,0.0586 0.120578,0.0586 0.07751,0 0.21704,-0.0448 l 0.05168,0.48403 q -0.260104,0.0568 -0.485758,0.0568 -0.261826,0 -0.38585,-0.0672 -0.124023,-0.0672 -0.184312,-0.20327 -0.05857,-0.1378 -0.05857,-0.44441 v -0.64423 h -0.258382 v -0.5116 h 0.258382 v -0.33589 z" />
    </g>
    <g
       style="display:inline;font-size:3.52776999999999985px;line-height:1.25;font-family:'Arial Black';-inkscape-font-specification:'Arial Black, Normal';stroke-width:0.264583"
       id="text81"
       aria-label="In"
       transform="translate(-1.5e-7,-4.5357142)">
      <path
         id="path123"
         style="stroke-width:0.264583"
         d="m 6.9058897,112.96801 h 0.7820349 v 2.52525 H 6.9058897 Z" />
      <path
         id="path125"
         style="stroke-width:0.264583"
         d="m 8.1995202,113.66392 h 0.6528442 v 0.298 q 0.1464162,-0.18259 0.2962775,-0.2601 0.1498614,-0.0792 0.3651793,-0.0792 0.29111,0 0.4547517,0.17398 0.1653641,0.17225 0.1653641,0.53399 v 1.16271 H 9.4294166 v -1.00596 q 0,-0.17226 -0.063734,-0.24288 -0.063734,-0.0724 -0.1791446,-0.0724 -0.1274683,0 -0.2067053,0.0965 -0.079237,0.0965 -0.079237,0.34624 v 0.87849 H 8.1995202 Z" />
    </g>
    <g
       aria-label="Coefficients"
       id="text1045"
       style="font-size:3.52777px;line-height:1.25;font-family:'Arial Black';-inkscape-font-specification:'Arial Black, Normal';stroke-width:0.264583">
      <path
         d="m 5.486095,24.670575 0.6838499,0.206706 q -0.068902,0.287665 -0.2170405,0.480589 -0.1481388,0.192925 -0.3686244,0.29111 -0.2187631,0.09818 -0.5581043,0.09818 -0.411688,0 -0.6735147,-0.118855 -0.2601041,-0.120578 -0.4495839,-0.422023 -0.1894799,-0.301446 -0.1894799,-0.7717 0,-0.627006 0.332451,-0.962902 0.3341735,-0.337619 0.9439541,-0.337619 0.4771447,0 0.7493066,0.192925 0.2738845,0.192925 0.4065204,0.592555 l -0.6890176,0.153307 q -0.036173,-0.115411 -0.075792,-0.16881 -0.065457,-0.08957 -0.1601966,-0.137803 -0.09474,-0.04823 -0.2118729,-0.04823 -0.2652718,0 -0.4065204,0.213595 -0.1067977,0.158474 -0.1067977,0.497815 0,0.420301 0.1274682,0.577052 0.1274683,0.155029 0.3582892,0.155029 0.2239307,0 0.3376186,-0.125745 0.1154104,-0.125746 0.1670868,-0.36518 z"
         style="stroke-width:0.264583"
         id="path1206" />
      <path
         d="m 6.4145462,24.792876 q 0,-0.418578 0.2824972,-0.689018 0.2824972,-0.272162 0.763087,-0.272162 0.5494915,0 0.8302662,0.318671 0.2256532,0.256659 0.2256532,0.632174 0,0.422023 -0.2807746,0.692462 -0.2790522,0.268717 -0.7734223,0.268717 -0.4409712,0 -0.7131332,-0.22393 -0.3341735,-0.27733 -0.3341735,-0.726914 z m 0.7027979,-0.0017 q 0,0.244602 0.098185,0.361735 0.099908,0.117133 0.2497689,0.117133 0.1515839,0 0.2480463,-0.115411 0.098185,-0.11541 0.098185,-0.370347 0,-0.237711 -0.098185,-0.353121 -0.098185,-0.117133 -0.2428787,-0.117133 -0.1533064,0 -0.2532139,0.118855 -0.099908,0.117133 -0.099908,0.358289 z"
         style="stroke-width:0.264583"
         id="path1208" />
      <path
         d="M 10.887993,24.961685 H 9.4823969 q 0.018948,0.16881 0.091295,0.251492 0.1016301,0.118855 0.2652718,0.118855 0.1033527,0 0.1963705,-0.05168 0.05684,-0.03273 0.1223,-0.11541 l 0.69074,0.06373 q -0.158474,0.275607 -0.382404,0.396185 -0.223931,0.118855 -0.6425094,0.118855 -0.3634568,0 -0.5718846,-0.10163 -0.2084278,-0.103352 -0.3462313,-0.325561 -0.136081,-0.22393 -0.136081,-0.525376 0,-0.428913 0.2738845,-0.694185 0.275607,-0.265272 0.7596419,-0.265272 0.3927399,0 0.6201159,0.118856 0.227376,0.118856 0.346231,0.344509 0.118856,0.225653 0.118856,0.587387 z M 10.17486,24.625789 q -0.02067,-0.20326 -0.110243,-0.29111 -0.08785,-0.08785 -0.2325437,-0.08785 -0.1670867,0 -0.2669943,0.132635 -0.063734,0.08268 -0.08096,0.246324 z"
         style="stroke-width:0.264583"
         id="path1210" />
      <path
         d="m 11.993866,23.873038 h 0.334173 v 0.513318 h -0.334173 v 1.316023 h -0.702798 v -1.316023 h -0.261827 v -0.513318 h 0.261827 v -0.08268 q 0,-0.111965 0.02412,-0.246323 0.02412,-0.134359 0.08957,-0.218763 0.06718,-0.08613 0.186035,-0.137804 0.120578,-0.0534 0.351399,-0.0534 0.184312,0 0.535711,0.04306 l -0.07752,0.423746 q -0.125745,-0.02067 -0.20326,-0.02067 -0.09474,0 -0.136081,0.03273 -0.04134,0.03101 -0.05857,0.09991 -0.0086,0.0379 -0.0086,0.160197 z"
         style="stroke-width:0.264583"
         id="path1212" />
      <path
         d="m 13.365011,23.873038 h 0.334173 v 0.513318 h -0.334173 v 1.316023 h -0.702798 v -1.316023 h -0.261827 v -0.513318 h 0.261827 v -0.08268 q 0,-0.111965 0.02412,-0.246323 0.02412,-0.134359 0.08957,-0.218763 0.06718,-0.08613 0.186034,-0.137804 0.120578,-0.0534 0.351399,-0.0534 0.184313,0 0.535712,0.04306 l -0.07752,0.423746 q -0.125746,-0.02067 -0.20326,-0.02067 -0.09474,0 -0.136081,0.03273 -0.04134,0.03101 -0.05857,0.09991 -0.0086,0.0379 -0.0086,0.160197 z"
         style="stroke-width:0.264583"
         id="path1214" />
      <path
         d="m 13.981682,23.17713 h 0.701075 v 0.477144 h -0.701075 z m 0,0.695908 h 0.701075 v 1.829341 h -0.701075 z"
         style="stroke-width:0.264583"
         id="path1216" />
      <path
         d="m 16.498318,24.987523 0.666625,0.07579 q -0.05512,0.208428 -0.180867,0.361735 -0.125746,0.151584 -0.322116,0.235988 -0.194648,0.08441 -0.496093,0.08441 -0.29111,0 -0.485757,-0.0534 -0.192925,-0.05512 -0.332451,-0.1757 -0.139526,-0.1223 -0.218763,-0.285942 -0.07924,-0.163641 -0.07924,-0.434081 0,-0.282497 0.09646,-0.470254 0.07062,-0.137804 0.192925,-0.246324 0.122301,-0.110243 0.251491,-0.163642 0.204983,-0.08441 0.525376,-0.08441 0.447862,0 0.682128,0.160197 0.235988,0.160197 0.330728,0.468532 l -0.659734,0.08785 q -0.03101,-0.117133 -0.113688,-0.1757 -0.08096,-0.06029 -0.218763,-0.06029 -0.173977,0 -0.282497,0.125746 -0.106798,0.124023 -0.106798,0.377237 0,0.225653 0.106798,0.342786 0.106797,0.117133 0.272162,0.117133 0.137803,0 0.230821,-0.07062 0.09474,-0.07062 0.141248,-0.217041 z"
         style="stroke-width:0.264583"
         id="path1218" />
      <path
         d="m 17.516342,23.17713 h 0.701075 v 0.477144 h -0.701075 z m 0,0.695908 h 0.701075 v 1.829341 h -0.701075 z"
         style="stroke-width:0.264583"
         id="path1220" />
      <path
         d="m 20.699603,24.961685 h -1.405596 q 0.01895,0.16881 0.09129,0.251492 0.10163,0.118855 0.265272,0.118855 0.103352,0 0.19637,-0.05168 0.05684,-0.03273 0.1223,-0.11541 l 0.69074,0.06373 q -0.158474,0.275607 -0.382404,0.396185 -0.223931,0.118855 -0.642509,0.118855 -0.363457,0 -0.571885,-0.10163 -0.208428,-0.103352 -0.346231,-0.325561 -0.136081,-0.22393 -0.136081,-0.525376 0,-0.428913 0.273884,-0.694185 0.275607,-0.265272 0.759642,-0.265272 0.39274,0 0.620116,0.118856 0.227376,0.118856 0.346231,0.344509 0.118856,0.225653 0.118856,0.587387 z M 19.98647,24.625789 q -0.02067,-0.20326 -0.110243,-0.29111 -0.08785,-0.08785 -0.232543,-0.08785 -0.167087,0 -0.266995,0.132635 -0.06373,0.08268 -0.08096,0.246324 z"
         style="stroke-width:0.264583"
         id="path1222" />
      <path
         d="m 21.025164,23.873038 h 0.652844 v 0.298 q 0.146417,-0.18259 0.296278,-0.260104 0.149861,-0.07924 0.365179,-0.07924 0.29111,0 0.454752,0.173977 0.165364,0.172255 0.165364,0.533989 v 1.162717 h -0.70452 v -1.005965 q 0,-0.172255 -0.06374,-0.242879 -0.06373,-0.07235 -0.179144,-0.07235 -0.127468,0 -0.206705,0.09646 -0.07924,0.09646 -0.07924,0.346232 v 0.878497 h -0.701076 z"
         style="stroke-width:0.264583"
         id="path1224" />
      <path
         d="m 24.227373,23.17713 v 0.695908 h 0.38585 v 0.511595 h -0.38585 v 0.649399 q 0,0.117133 0.02239,0.155029 0.03445,0.05857 0.120578,0.05857 0.07752,0 0.217041,-0.04479 l 0.05168,0.484035 q -0.260104,0.05684 -0.485757,0.05684 -0.261827,0 -0.38585,-0.06718 -0.124024,-0.06718 -0.184313,-0.20326 -0.05857,-0.137804 -0.05857,-0.444416 v -0.644232 h -0.258382 v -0.511595 h 0.258382 v -0.335897 z"
         style="stroke-width:0.264583"
         id="path1226" />
      <path
         d="m 24.82165,25.195951 0.695908,-0.06546 q 0.04306,0.124023 0.120578,0.177422 0.07752,0.0534 0.206706,0.0534 0.141248,0 0.218763,-0.06029 0.06029,-0.04479 0.06029,-0.111965 0,-0.07579 -0.07924,-0.117133 -0.05684,-0.02928 -0.301446,-0.07235 -0.365179,-0.06373 -0.50815,-0.117133 -0.141249,-0.05512 -0.239434,-0.184312 -0.09646,-0.129191 -0.09646,-0.294555 0,-0.180867 0.105075,-0.31178 0.105075,-0.130914 0.289387,-0.194648 0.184313,-0.06546 0.494371,-0.06546 0.327283,0 0.482312,0.04995 0.156751,0.04995 0.260104,0.155029 0.105075,0.105075 0.173977,0.28422 l -0.664902,0.06546 q -0.02584,-0.08785 -0.08613,-0.129191 -0.08268,-0.05512 -0.199815,-0.05512 -0.118856,0 -0.173977,0.04306 -0.0534,0.04134 -0.0534,0.10163 0,0.06718 0.0689,0.10163 0.0689,0.03445 0.299722,0.06201 0.349677,0.03962 0.520209,0.110243 0.170531,0.07062 0.260104,0.201537 0.09129,0.130914 0.09129,0.287665 0,0.158474 -0.09646,0.308335 -0.09474,0.149862 -0.301445,0.239434 -0.204983,0.08785 -0.559827,0.08785 -0.50126,0 -0.714856,-0.142971 -0.211873,-0.142971 -0.272162,-0.406521 z"
         style="stroke-width:0.264583"
         id="path1228" />
    </g>
    <g
       aria-label="Bypass"
       id="text1079"
       style="display:inline;font-style:normal;font-variant:normal;font-weight:bold;font-stretch:normal;font-size:2.82222000000000017px;line-height:1.25;font-family:Arial;-inkscape-font-specification:'Arial, Bold';font-variant-ligatures:normal;font-variant-caps:normal;font-variant-numeric:normal;font-variant-east-asian:normal;stroke-width:0.264583">
      <path
         d="m 11.305966,80.52478 h 0.80753 q 0.239778,0 0.356911,0.02067 0.118511,0.01929 0.21084,0.08268 0.09371,0.06339 0.155718,0.169499 0.06201,0.104731 0.06201,0.235644 0,0.141938 -0.07717,0.260449 -0.07579,0.118511 -0.206706,0.177767 0.184657,0.05374 0.283876,0.183279 0.09922,0.129535 0.09922,0.304546 0,0.137804 -0.06477,0.268717 -0.06339,0.129536 -0.175011,0.208084 -0.110243,0.07717 -0.272851,0.09509 -0.101975,0.01102 -0.49196,0.01378 h -0.68764 z m 0.407899,0.336242 v 0.467154 h 0.267339 q 0.238401,0 0.296278,-0.0069 0.104731,-0.0124 0.163987,-0.07166 0.06063,-0.06063 0.06063,-0.158474 0,-0.09371 -0.05236,-0.151584 -0.05099,-0.05926 -0.152962,-0.07166 -0.06063,-0.0069 -0.348644,-0.0069 z m 0,0.803395 v 0.540191 h 0.377582 q 0.220486,0 0.279742,-0.0124 0.09095,-0.01654 0.14745,-0.07993 0.05788,-0.06477 0.05788,-0.172254 0,-0.09095 -0.0441,-0.154341 -0.0441,-0.06339 -0.128157,-0.09233 -0.08268,-0.02894 -0.361046,-0.02894 z"
         style="font-style:normal;font-variant:normal;font-weight:bold;font-stretch:normal;font-size:2.82222px;font-family:Arial;-inkscape-font-specification:'Arial, Bold';font-variant-ligatures:normal;font-variant-caps:normal;font-variant-numeric:normal;font-variant-east-asian:normal;stroke-width:0.264583"
         id="path1186" />
      <path
         d="m 13.158048,81.081507 h 0.412033 l 0.350021,1.03904 0.341754,-1.03904 h 0.401008 l -0.516764,1.408354 -0.09233,0.254937 q -0.05099,0.128158 -0.09784,0.195682 -0.04547,0.06752 -0.106109,0.108865 -0.05926,0.04272 -0.147449,0.06614 -0.08682,0.02343 -0.19706,0.02343 -0.111621,0 -0.219108,-0.02343 l -0.03445,-0.303168 q 0.09095,0.01792 0.163987,0.01792 0.135047,0 0.199815,-0.07993 0.06477,-0.07855 0.09922,-0.201193 z"
         style="font-style:normal;font-variant:normal;font-weight:bold;font-stretch:normal;font-size:2.82222px;font-family:Arial;-inkscape-font-specification:'Arial, Bold';font-variant-ligatures:normal;font-variant-caps:normal;font-variant-numeric:normal;font-variant-east-asian:normal;stroke-width:0.264583"
         id="path1188" />
      <path
         d="m 14.901265,81.081507 h 0.361046 v 0.214974 q 0.07028,-0.110243 0.190169,-0.179145 0.119889,-0.0689 0.265961,-0.0689 0.254937,0 0.432704,0.199815 0.177766,0.199815 0.177766,0.556727 0,0.366558 -0.179144,0.570507 -0.179145,0.202572 -0.434082,0.202572 -0.121267,0 -0.220486,-0.04823 -0.09784,-0.04823 -0.206706,-0.165365 v 0.73725 h -0.387228 z m 0.383094,0.706934 q 0,0.246668 0.09784,0.365179 0.09784,0.117134 0.2384,0.117134 0.135048,0 0.22462,-0.107487 0.08957,-0.108865 0.08957,-0.355534 0,-0.230132 -0.09233,-0.341753 -0.09233,-0.111621 -0.228754,-0.111621 -0.141938,0 -0.235644,0.110243 -0.09371,0.108865 -0.09371,0.323839 z"
         style="font-style:normal;font-variant:normal;font-weight:bold;font-stretch:normal;font-size:2.82222px;font-family:Arial;-inkscape-font-specification:'Arial, Bold';font-variant-ligatures:normal;font-variant-caps:normal;font-variant-numeric:normal;font-variant-east-asian:normal;stroke-width:0.264583"
         id="path1190" />
      <path
         d="m 16.926979,81.527991 -0.351399,-0.06339 q 0.05926,-0.212218 0.203949,-0.314193 0.144694,-0.101974 0.429948,-0.101974 0.259071,0 0.38585,0.06201 0.12678,0.06063 0.177767,0.155718 0.05236,0.09371 0.05236,0.345888 l -0.0041,0.451996 q 0,0.192925 0.01791,0.285254 0.01929,0.09095 0.07028,0.195681 h -0.383095 q -0.01516,-0.03858 -0.03721,-0.114377 -0.0096,-0.03445 -0.01378,-0.04547 -0.09922,0.09646 -0.212218,0.144694 -0.112999,0.04823 -0.241156,0.04823 -0.225998,0 -0.356912,-0.122646 -0.129535,-0.122645 -0.129535,-0.310058 0,-0.124023 0.05926,-0.220486 0.05926,-0.09784 0.165365,-0.148828 0.107487,-0.05236 0.30868,-0.09095 0.271473,-0.05099 0.376204,-0.09508 v -0.03858 q 0,-0.111621 -0.05512,-0.158474 -0.05512,-0.04823 -0.208084,-0.04823 -0.103353,0 -0.16123,0.04134 -0.05788,0.03996 -0.09371,0.141937 z m 0.518142,0.314193 q -0.07441,0.02481 -0.235644,0.05926 -0.16123,0.03445 -0.21084,0.06752 -0.07579,0.05374 -0.07579,0.136426 0,0.0813 0.06063,0.14056 0.06063,0.05926 0.15434,0.05926 0.104731,0 0.199815,-0.0689 0.07028,-0.05237 0.09233,-0.128158 0.01516,-0.04961 0.01516,-0.188791 z"
         style="font-style:normal;font-variant:normal;font-weight:bold;font-stretch:normal;font-size:2.82222px;font-family:Arial;-inkscape-font-specification:'Arial, Bold';font-variant-ligatures:normal;font-variant-caps:normal;font-variant-numeric:normal;font-variant-east-asian:normal;stroke-width:0.264583"
         id="path1192" />
      <path
         d="m 18.072128,82.127438 0.388607,-0.05926 q 0.0248,0.112999 0.100596,0.172255 0.07579,0.05788 0.212218,0.05788 0.150206,0 0.225998,-0.05512 0.05099,-0.03859 0.05099,-0.103353 0,-0.0441 -0.02756,-0.07304 -0.02894,-0.02756 -0.129536,-0.05099 -0.468532,-0.103353 -0.593934,-0.188791 -0.173632,-0.118512 -0.173632,-0.329351 0,-0.190169 0.150206,-0.319705 0.150206,-0.129535 0.465776,-0.129535 0.300412,0 0.446484,0.09784 0.146072,0.09784 0.201194,0.289388 l -0.36518,0.06752 q -0.02343,-0.08544 -0.08957,-0.130914 -0.06477,-0.04548 -0.186035,-0.04548 -0.152962,0 -0.219107,0.04272 -0.0441,0.03032 -0.0441,0.07855 0,0.04134 0.03859,0.07028 0.05237,0.03858 0.361046,0.108865 0.310058,0.07028 0.432704,0.172255 0.121267,0.103353 0.121267,0.28801 0,0.201193 -0.16812,0.345887 -0.168121,0.144694 -0.497472,0.144694 -0.299034,0 -0.474045,-0.121267 -0.173632,-0.121268 -0.227376,-0.329351 z"
         style="font-style:normal;font-variant:normal;font-weight:bold;font-stretch:normal;font-size:2.82222px;font-family:Arial;-inkscape-font-specification:'Arial, Bold';font-variant-ligatures:normal;font-variant-caps:normal;font-variant-numeric:normal;font-variant-east-asian:normal;stroke-width:0.264583"
         id="path1194" />
      <path
         d="m 19.64309,82.127438 0.388607,-0.05926 q 0.0248,0.112999 0.100596,0.172255 0.07579,0.05788 0.212218,0.05788 0.150206,0 0.225998,-0.05512 0.05099,-0.03859 0.05099,-0.103353 0,-0.0441 -0.02756,-0.07304 -0.02894,-0.02756 -0.129536,-0.05099 -0.468532,-0.103353 -0.593934,-0.188791 -0.173632,-0.118512 -0.173632,-0.329351 0,-0.190169 0.150206,-0.319705 0.150206,-0.129535 0.465776,-0.129535 0.300412,0 0.446484,0.09784 0.146072,0.09784 0.201194,0.289388 l -0.36518,0.06752 q -0.02343,-0.08544 -0.08957,-0.130914 -0.06477,-0.04548 -0.186035,-0.04548 -0.152962,0 -0.219108,0.04272 -0.0441,0.03032 -0.0441,0.07855 0,0.04134 0.03858,0.07028 0.05237,0.03858 0.361046,0.108865 0.310058,0.07028 0.432704,0.172255 0.121267,0.103353 0.121267,0.28801 0,0.201193 -0.168121,0.345887 -0.16812,0.144694 -0.497471,0.144694 -0.299034,0 -0.474045,-0.121267 -0.173632,-0.121268 -0.227376,-0.329351 z"
         style="font-style:normal;font-variant:normal;font-weight:bold;font-stretch:normal;font-size:2.82222px;font-family:Arial;-inkscape-font-specification:'Arial, Bold';font-variant-ligatures:normal;font-variant-caps:normal;font-variant-numeric:normal;font-variant-east-asian:normal;stroke-width:0.264583"
         id="path1196" />
    </g>
  </g>
  <g
     inkscape:groupmode="layer"
     id="layer2"
     inkscape:label="components"
     style="display:inline">
    <circle
       style="fill:#00ff00;fill-rule:evenodd;stroke-width:0.264583"
       id="dataIn"
       cx="8.5199137"
       cy="100.16369"
       label="input"
       r="4" />
    <circle
       style="fill:#0000ff;fill-rule:evenodd;stroke-width:0.264583"
       id="dataOut"
       cx="21.960087"
       cy="100.16369"
       label="output"
       r="4" />
    <circle
       style="fill:#ff0000;fill-rule:evenodd;stroke-width:0.264583"
       id="approx"
       cx="6.3811831"
       cy="59.939491"
       label="approx"
       r="4" />
    <circle
       style="fill:#ff0000;fill-rule:evenodd;stroke-width:0.264583"
       id="level2"
       cx="20.130066"
       cy="32.316963"
       label="detail2"
       r="4" />
    <circle
       style="fill:#ff0000;fill-rule:evenodd;stroke-width:0.264583"
       id="level3"
       cx="6.3811831"
       cy="46.254841"
       label="detail3"
       r="4" />
    <circle
       style="fill:#ff0000;fill-rule:evenodd;stroke-width:0.264583"
       id="level4"
       cx="20.130066"
       cy="46.254841"
       label="detail4"
       r="4" />
    <circle
       r="4"
       style="fill:#ff0000;fill-rule:evenodd;stroke-width:0.264583"
       id="level1"
       cx="6.3811831"
       cy="32.316963"
       label="detail1" />
    <rect
       y="76.831642"
       x="4.0075178"
       height="10.000423"
       width="4.7473302"
       id="algorithm"
       style="display:inline;opacity:1;vector-effect:none;fill:#ff0000;fill-opacity:0.501961;fill-rule:evenodd;stroke:none;stroke-width:0.186161;stroke-linecap:round;stroke-linejoin:miter;stroke-miterlimit:10;stroke-dasharray:none;stroke-dashoffset:0;stroke-opacity:1;paint-order:normal"
       inkscape:label="algorithm">
      <title
         id="title1147">algorithm</title>
    </rect>
    <g
       aria-label="Cut"
       id="text1075"
       style="font-style:normal;font-variant:normal;font-weight:bold;font-stretch:normal;font-size:2.82222px;line-height:1.25;font-family:Arial;-inkscape-font-specification:'Arial, Bold';font-variant-ligatures:normal;font-variant-caps:normal;font-variant-numeric:normal;font-variant-east-asian:normal;stroke-width:0.264583">
      <path
         d="m 12.663333,86.054853 0.395496,0.125401 q -0.09095,0.330729 -0.303168,0.49196 -0.21084,0.159852 -0.536056,0.159852 -0.402387,0 -0.661458,-0.274229 -0.259071,-0.275608 -0.259071,-0.752409 0,-0.504361 0.260449,-0.782725 0.260449,-0.279741 0.684884,-0.279741 0.370692,0 0.602203,0.219108 0.137803,0.129535 0.206705,0.37207 l -0.403765,0.09646 q -0.03583,-0.157096 -0.150206,-0.248046 -0.112999,-0.09095 -0.275607,-0.09095 -0.22462,0 -0.36518,0.16123 -0.139182,0.161231 -0.139182,0.522276 0,0.383095 0.137804,0.545703 0.137804,0.162609 0.35829,0.162609 0.162608,0 0.279741,-0.103353 0.117133,-0.103353 0.168121,-0.325217 z"
         style="font-style:normal;font-variant:normal;font-weight:bold;font-stretch:normal;font-size:2.82222px;font-family:Arial;-inkscape-font-specification:'Arial, Bold';font-variant-ligatures:normal;font-variant-caps:normal;font-variant-numeric:normal;font-variant-east-asian:normal;stroke-width:0.264583"
         id="path1199" />
      <path
         d="m 14.370721,86.797615 v -0.219108 q -0.07993,0.117133 -0.21084,0.184657 -0.129536,0.06752 -0.274229,0.06752 -0.14745,0 -0.264584,-0.06477 -0.117133,-0.06477 -0.169498,-0.181901 -0.05237,-0.117133 -0.05237,-0.323838 V 85.33414 h 0.387229 v 0.672482 q 0,0.30868 0.02067,0.37896 0.02205,0.0689 0.07855,0.110243 0.0565,0.03996 0.143315,0.03996 0.09922,0 0.177767,-0.05374 0.07855,-0.05512 0.107487,-0.135048 0.02894,-0.0813 0.02894,-0.395497 v -0.61736 h 0.387228 v 1.463475 z"
         style="font-style:normal;font-variant:normal;font-weight:bold;font-stretch:normal;font-size:2.82222px;font-family:Arial;-inkscape-font-specification:'Arial, Bold';font-variant-ligatures:normal;font-variant-caps:normal;font-variant-numeric:normal;font-variant-east-asian:normal;stroke-width:0.264583"
         id="path1201" />
      <path
         d="m 15.803879,85.33414 v 0.30868 h -0.264583 v 0.5898 q 0,0.179145 0.0069,0.209461 0.0083,0.02894 0.03445,0.04823 0.02756,0.01929 0.06615,0.01929 0.05374,0 0.155718,-0.03721 l 0.03307,0.300412 q -0.135048,0.05788 -0.305924,0.05788 -0.104731,0 -0.188791,-0.03445 -0.08406,-0.03583 -0.124024,-0.09095 -0.03858,-0.0565 -0.05374,-0.151585 -0.0124,-0.06752 -0.0124,-0.272851 V 85.64282 h -0.177767 v -0.30868 h 0.177767 v -0.290766 l 0.388606,-0.225998 v 0.516764 z"
         style="font-style:normal;font-variant:normal;font-weight:bold;font-stretch:normal;font-size:2.82222px;font-family:Arial;-inkscape-font-specification:'Arial, Bold';font-variant-ligatures:normal;font-variant-caps:normal;font-variant-numeric:normal;font-variant-east-asian:normal;stroke-width:0.264583"
         id="path1203" />
    </g>
    <g
       aria-label="Scale"
       id="text1071"
       style="font-style:normal;font-variant:normal;font-weight:bold;font-stretch:normal;font-size:2.82222px;line-height:1.25;font-family:Arial;-inkscape-font-specification:'Arial, Bold';font-variant-ligatures:normal;font-variant-caps:normal;font-variant-numeric:normal;font-variant-east-asian:normal;stroke-width:0.264583">
      <path
         d="m 11.281162,78.228975 0.396874,-0.03859 q 0.03583,0.199816 0.144694,0.293522 0.110243,0.09371 0.296278,0.09371 0.197059,0 0.296278,-0.08268 0.100597,-0.08406 0.100597,-0.195682 0,-0.07166 -0.04272,-0.121267 -0.04134,-0.05099 -0.146072,-0.08819 -0.07166,-0.02481 -0.326595,-0.08819 -0.327973,-0.0813 -0.460264,-0.199815 -0.186035,-0.166743 -0.186035,-0.406521 0,-0.15434 0.08682,-0.28801 0.08819,-0.135047 0.252181,-0.205327 0.165364,-0.07028 0.398252,-0.07028 0.380339,0 0.571886,0.166742 0.192925,0.166743 0.202571,0.445106 l -0.407899,0.01792 q -0.02618,-0.155718 -0.112999,-0.223242 -0.08544,-0.0689 -0.257693,-0.0689 -0.177766,0 -0.278363,0.07304 -0.06477,0.04685 -0.06477,0.125401 0,0.07166 0.06063,0.122645 0.07717,0.06477 0.374826,0.135048 0.297656,0.07028 0.439594,0.146072 0.143316,0.07441 0.223242,0.205328 0.0813,0.129535 0.0813,0.321082 0,0.173633 -0.09646,0.325217 -0.09646,0.151584 -0.272851,0.225998 -0.176389,0.07304 -0.439594,0.07304 -0.383094,0 -0.588422,-0.176389 -0.205327,-0.177766 -0.24529,-0.516764 z"
         style="font-style:normal;font-variant:normal;font-weight:bold;font-stretch:normal;font-size:2.82222px;font-family:Arial;-inkscape-font-specification:'Arial, Bold';font-variant-ligatures:normal;font-variant-caps:normal;font-variant-numeric:normal;font-variant-east-asian:normal;stroke-width:0.264583"
         id="path1175" />
      <path
         d="m 14.542976,77.855527 -0.381717,0.0689 q -0.01929,-0.114377 -0.08819,-0.172254 -0.06752,-0.05788 -0.176389,-0.05788 -0.144694,0 -0.23151,0.100597 -0.08544,0.09922 -0.08544,0.333485 0,0.260449 0.08682,0.367936 0.08819,0.107487 0.235644,0.107487 0.110243,0 0.180523,-0.06201 0.07028,-0.06339 0.09922,-0.216352 l 0.380338,0.06477 q -0.05926,0.261827 -0.227376,0.395496 -0.168121,0.13367 -0.450618,0.13367 -0.321083,0 -0.51263,-0.202571 -0.190169,-0.202572 -0.190169,-0.560862 0,-0.362423 0.191547,-0.563617 0.191547,-0.202571 0.518142,-0.202571 0.267339,0 0.424435,0.115755 0.158475,0.114377 0.227377,0.350021 z"
         style="font-style:normal;font-variant:normal;font-weight:bold;font-stretch:normal;font-size:2.82222px;font-family:Arial;-inkscape-font-specification:'Arial, Bold';font-variant-ligatures:normal;font-variant-caps:normal;font-variant-numeric:normal;font-variant-east-asian:normal;stroke-width:0.264583"
         id="path1177" />
      <path
         d="m 15.127263,77.869308 -0.351399,-0.06339 q 0.05926,-0.212218 0.203949,-0.314192 0.144694,-0.101975 0.429948,-0.101975 0.259071,0 0.38585,0.06201 0.12678,0.06063 0.177767,0.155719 0.05236,0.09371 0.05236,0.345887 l -0.0041,0.451996 q 0,0.192925 0.01791,0.285254 0.01929,0.09095 0.07028,0.195681 h -0.383095 q -0.01516,-0.03858 -0.03721,-0.114377 -0.0096,-0.03445 -0.01378,-0.04548 -0.09922,0.09646 -0.212218,0.144694 -0.112999,0.04823 -0.241156,0.04823 -0.225998,0 -0.356912,-0.122645 -0.129535,-0.122646 -0.129535,-0.310059 0,-0.124023 0.05926,-0.220486 0.05926,-0.09784 0.165365,-0.148828 0.107487,-0.05237 0.30868,-0.09095 0.271473,-0.05099 0.376204,-0.09508 v -0.03858 q 0,-0.111621 -0.05512,-0.158474 -0.05512,-0.04823 -0.208084,-0.04823 -0.103353,0 -0.16123,0.04134 -0.05788,0.03996 -0.09371,0.141938 z m 0.518142,0.314192 q -0.07441,0.02481 -0.235644,0.05926 -0.16123,0.03445 -0.21084,0.06752 -0.07579,0.05374 -0.07579,0.136425 0,0.0813 0.06063,0.14056 0.06063,0.05926 0.15434,0.05926 0.104731,0 0.199815,-0.0689 0.07028,-0.05237 0.09233,-0.128158 0.01516,-0.04961 0.01516,-0.188791 z"
         style="font-style:normal;font-variant:normal;font-weight:bold;font-stretch:normal;font-size:2.82222px;font-family:Arial;-inkscape-font-specification:'Arial, Bold';font-variant-ligatures:normal;font-variant-caps:normal;font-variant-numeric:normal;font-variant-east-asian:normal;stroke-width:0.264583"
         id="path1179" />
      <path
         d="m 16.408838,78.886299 v -2.020202 h 0.387228 v 2.020202 z"
         style="font-style:normal;font-variant:normal;font-weight:bold;font-stretch:normal;font-size:2.82222px;font-family:Arial;-inkscape-font-specification:'Arial, Bold';font-variant-ligatures:normal;font-variant-caps:normal;font-variant-numeric:normal;font-variant-east-asian:normal;stroke-width:0.264583"
         id="path1181" />
      <path
         d="m 18.039056,78.420523 0.38585,0.06477 q -0.07441,0.212218 -0.235644,0.323839 -0.159853,0.110243 -0.401009,0.110243 -0.381716,0 -0.564995,-0.249425 -0.144694,-0.199815 -0.144694,-0.504361 0,-0.363802 0.190169,-0.56913 0.190169,-0.206705 0.480935,-0.206705 0.326595,0 0.515386,0.216352 0.188791,0.214973 0.180523,0.660079 h -0.970139 q 0.0041,0.172255 0.09371,0.268718 0.08957,0.09508 0.223242,0.09508 0.09095,0 0.152962,-0.04961 0.06201,-0.04961 0.09371,-0.159852 z m 0.02205,-0.391363 q -0.0041,-0.168121 -0.08682,-0.254937 -0.08268,-0.08819 -0.201194,-0.08819 -0.126779,0 -0.209461,0.09233 -0.08268,0.09233 -0.0813,0.250803 z"
         style="font-style:normal;font-variant:normal;font-weight:bold;font-stretch:normal;font-size:2.82222px;font-family:Arial;-inkscape-font-specification:'Arial, Bold';font-variant-ligatures:normal;font-variant-caps:normal;font-variant-numeric:normal;font-variant-east-asian:normal;stroke-width:0.264583"
         id="path1183" />
    </g>
  </g>
</svg>
